<?xml version="1.0" standalone="no"?>
<svg xmlns="http://www.w3.org/2000/svg" viewBox="0 0 512 512" style="display: none">
    <defs>
        <g id="ion-ios-body">
            <circle cx="256" cy="56" r="56"></circle>
            <path
                d="M437 128H75a27 27 0 000 54h101.88c6.91 0 15 3.09 19.58 15 5.35 13.83 2.73 40.54-.57 61.23l-4.32 24.45a.42.42 0 01-.12.35l-34.6 196.81A27.43 27.43 0 00179 511.58a27.06 27.06 0 0031.42-22.29l23.91-136.8S242 320 256 320c14.23 0 21.74 32.49 21.74 32.49l23.91 136.92a27.24 27.24 0 1053.62-9.6L320.66 283a.45.45 0 00-.11-.35l-4.33-24.45c-3.3-20.69-5.92-47.4-.57-61.23 4.56-11.88 12.91-15 19.28-15H437a27 27 0 000-54z">
            </path>
        </g>
        <g id="ion-map">
            <path
                d="M48.17 113.34A32 32 0 0032 141.24V438a32 32 0 0047 28.37c.43-.23.85-.47 1.26-.74l84.14-55.05a8 8 0 003.63-6.72V46.45a8 8 0 00-12.51-6.63zM212.36 39.31A8 8 0 00200 46v357.56a8 8 0 003.63 6.72l96 62.42A8 8 0 00312 466V108.67a8 8 0 00-3.64-6.73zM464.53 46.47a31.64 31.64 0 00-31.5-.88 12.07 12.07 0 00-1.25.74l-84.15 55a8 8 0 00-3.63 6.72v357.46a8 8 0 0012.52 6.63l107.07-73.46a32 32 0 0016.41-28v-296a32.76 32.76 0 00-15.47-28.21z">
            </path>
        </g>
        <g id="ion-sad">
            <path
                d="M414.39 97.61A224 224 0 1097.61 414.39 224 224 0 10414.39 97.61zM184 208a24 24 0 11-24 24 23.94 23.94 0 0124-24zm-23.67 149.83c12-40.3 50.2-69.83 95.62-69.83s83.62 29.53 95.71 69.83a8 8 0 01-7.82 10.17H168.15a8 8 0 01-7.82-10.17zM328 256a24 24 0 1124-24 23.94 23.94 0 01-24 24z">
            </path>
        </g>
        <g id="ion-happy">
            <path
                d="M414.39 97.61A224 224 0 1097.61 414.39 224 224 0 10414.39 97.61zM184 208a24 24 0 11-24 24 23.94 23.94 0 0124-24zm167.67 106.17c-12 40.3-50.2 69.83-95.62 69.83s-83.62-29.53-95.72-69.83a8 8 0 017.83-10.17h175.69a8 8 0 017.82 10.17zM328 256a24 24 0 1124-24 23.94 23.94 0 01-24 24z">
            </path>
        </g>
        <g id="ion-android-warning">
            <path
                d="M449.07 399.08L278.64 82.58c-12.08-22.44-44.26-22.44-56.35 0L51.87 399.08A32 32 0 0080 446.25h340.89a32 32 0 0028.18-47.17zm-198.6-1.83a20 20 0 1120-20 20 20 0 01-20 20zm21.72-201.15l-5.74 122a16 16 0 01-32 0l-5.74-121.95a21.73 21.73 0 0121.5-22.69h.21a21.74 21.74 0 0121.73 22.7z">
            </path>
        </g>
    </defs>
</svg>