<?xml version="1.0" standalone="no"?>
<svg
    xmlns="http://www.w3.org/2000/svg"
    viewBox="0 0 33 33"
    style="display: none"
>
    <defs>
        <path id="pg-prayer" d="M16 2.3a13.7 13.7 0 1 1 0 27.4 13.7 13.7 0 0 1 0-27.4zM16 0a16 16 0 1 0 0 32 16 16 0 0 0 0-32zm0 16.1-.9 1.4.1.2 3.6 4.5.4.5c.6 1.1 0 2.2-1.2 2.3H9.4c-.5-.1-1-.4-1-1-.2-.5-.1-1 .3-1.5a2 2 0 0 1 1-.3h4.7V22l-3-2.7-.2-.3c-.6-.7-.7-1.4-.3-2.2l3.8-6.5c.6-1.1 1.8-1.4 2.8-.7.4.3.7.8.8 1.4l.3 2.7v.2l.3-.1 2.6-1.7c.2-.2.5-.3.9-.3.3 0 .6 0 .9.3.2.4.4.8.4 1.3l-.1.5a315.4 315.4 0 0 1-5.8 3.9 1 1 0 0 1-1.1-.4l-.5-.8-.3-.5zm4.6-5a2.3 2.3 0 1 1 .1-4.7c1.2 0 2.3 1 2.3 2.3 0 1.3-1 2.3-2.4 2.3z"/>
        <path id="pg-pause" d="M16 0a16 16 0 1 0 0 32 16 16 0 0 0 0-32zm0 29.7a13.7 13.7 0 1 1 0-27.4 13.7 13.7 0 0 1 0 27.4zm0-25a11.3 11.3 0 1 0 0 22.6 11.3 11.3 0 0 0 0-22.6zm-1.8 14.8c0 .6-.4 1-1 1h-1a1 1 0 0 1-1-1v-7c0-.6.4-1 1-1h1c.6 0 1 .4 1 1v7zm6.6 0c0 .6-.4 1-1 1h-1a1 1 0 0 1-1-1v-7c0-.6.4-1 1-1h1c.6 0 1 .4 1 1v7z"/>
        <path id="pg-chevron-down" d="M1 7.3a3.2 3.2 0 0 1 4.5 0L16 17.8 26.5 7.3a3.2 3.2 0 0 1 4.6 4.6L18.7 24.2a3.3 3.3 0 0 1-5.3.1L.9 12a3.2 3.2 0 0 1 0-4.6z"/>
    </defs>
</svg>

