<?xml version="1.0" standalone="no"?>
<svg xmlns="http://www.w3.org/2000/svg" viewBox="0 0 33 33" style="display: none">
    <defs>
        <path id="pg-prayer"
            d="M16 2.3a13.7 13.7 0 1 1 0 27.4 13.7 13.7 0 0 1 0-27.4zM16 0a16 16 0 1 0 0 32 16 16 0 0 0 0-32zm0 16.1-.9 1.4.1.2 3.6 4.5.4.5c.6 1.1 0 2.2-1.2 2.3H9.4c-.5-.1-1-.4-1-1-.2-.5-.1-1 .3-1.5a2 2 0 0 1 1-.3h4.7V22l-3-2.7-.2-.3c-.6-.7-.7-1.4-.3-2.2l3.8-6.5c.6-1.1 1.8-1.4 2.8-.7.4.3.7.8.8 1.4l.3 2.7v.2l.3-.1 2.6-1.7c.2-.2.5-.3.9-.3.3 0 .6 0 .9.3.2.4.4.8.4 1.3l-.1.5a315.4 315.4 0 0 1-5.8 3.9 1 1 0 0 1-1.1-.4l-.5-.8-.3-.5zm4.6-5a2.3 2.3 0 1 1 .1-4.7c1.2 0 2.3 1 2.3 2.3 0 1.3-1 2.3-2.4 2.3z" />
        <path id="pg-pause"
            d="M16 0a16 16 0 1 0 0 32 16 16 0 0 0 0-32zm0 29.7a13.7 13.7 0 1 1 0-27.4 13.7 13.7 0 0 1 0 27.4zm0-25a11.3 11.3 0 1 0 0 22.6 11.3 11.3 0 0 0 0-22.6zm-1.8 14.8c0 .6-.4 1-1 1h-1a1 1 0 0 1-1-1v-7c0-.6.4-1 1-1h1c.6 0 1 .4 1 1v7zm6.6 0c0 .6-.4 1-1 1h-1a1 1 0 0 1-1-1v-7c0-.6.4-1 1-1h1c.6 0 1 .4 1 1v7z" />
        <path id="pg-chevron-down"
            d="M1 7.3a3.2 3.2 0 0 1 4.5 0L16 17.8 26.5 7.3a3.2 3.2 0 0 1 4.6 4.6L18.7 24.2a3.3 3.3 0 0 1-5.3.1L.9 12a3.2 3.2 0 0 1 0-4.6z" />
        <path id="pg-settings"
            d="M16 0c-8.84 0-16 7.16-16 16s7.16 16 16 16 16-7.16 16-16-7.16-16-16-16zM16 29.68c-7.547 0-13.68-6.133-13.68-13.68s6.133-13.68 13.68-13.68 13.68 6.133 13.68 13.68-6.133 13.68-13.68 13.68zM17.147 26.107h-2.293s-0.040-0.027-0.067-0.027c-0.56-0.147-0.893-0.507-0.973-1.080-0.067-0.467-0.12-0.92-0.173-1.387-0.013-0.133-0.067-0.2-0.2-0.253-0.28-0.107-0.56-0.213-0.84-0.347-0.107-0.053-0.187-0.053-0.28 0.027-0.36 0.293-0.72 0.573-1.093 0.853-0.587 0.44-1.227 0.4-1.747-0.107-0.427-0.413-0.84-0.84-1.253-1.253-0.507-0.52-0.547-1.16-0.107-1.747 0.28-0.373 0.573-0.733 0.853-1.107 0.040-0.053 0.053-0.16 0.027-0.227-0.12-0.307-0.24-0.613-0.373-0.907-0.027-0.067-0.12-0.133-0.187-0.147-0.453-0.067-0.893-0.12-1.347-0.173-0.347-0.040-0.68-0.16-0.88-0.453-0.133-0.187-0.2-0.4-0.307-0.613 0-0.773 0-1.547 0-2.333 0-0.027 0.027-0.040 0.040-0.067 0.16-0.56 0.547-0.88 1.133-0.96 0.453-0.067 0.893-0.12 1.347-0.16 0.133-0.013 0.187-0.067 0.24-0.187 0.107-0.293 0.227-0.573 0.36-0.853 0.053-0.12 0.040-0.187-0.040-0.28-0.28-0.36-0.573-0.72-0.853-1.093-0.44-0.573-0.4-1.227 0.12-1.747 0.413-0.413 0.827-0.827 1.24-1.24 0.52-0.52 1.173-0.56 1.76-0.12 0.373 0.28 0.733 0.573 1.107 0.853 0.053 0.040 0.147 0.053 0.2 0.040 0.32-0.12 0.64-0.253 0.947-0.387 0.053-0.027 0.12-0.107 0.133-0.16 0.053-0.347 0.093-0.693 0.133-1.040s0.053-0.693 0.28-0.987c0.213-0.28 0.493-0.44 0.827-0.533 0.76 0 1.52 0 2.293 0 0.027 0 0.040 0.027 0.067 0.027 0.56 0.147 0.893 0.52 0.973 1.080 0.067 0.467 0.12 0.92 0.173 1.387 0.013 0.133 0.067 0.2 0.2 0.253 0.293 0.107 0.573 0.227 0.853 0.36 0.107 0.053 0.173 0.040 0.267-0.040 0.36-0.28 0.72-0.56 1.067-0.84 0.587-0.453 1.24-0.427 1.76 0.093 0.427 0.413 0.84 0.84 1.253 1.253 0.507 0.52 0.547 1.16 0.107 1.747-0.28 0.373-0.573 0.733-0.853 1.107-0.040 0.053-0.053 0.16-0.027 0.227 0.12 0.307 0.24 0.613 0.373 0.907 0.027 0.067 0.12 0.147 0.187 0.147 0.453 0.067 0.893 0.12 1.347 0.173 0.373 0.040 0.707 0.187 0.92 0.493 0.12 0.173 0.187 0.373 0.267 0.56v2.293s-0.027 0.040-0.027 0.067c-0.147 0.587-0.533 0.907-1.12 0.987-0.453 0.067-0.893 0.12-1.347 0.16-0.133 0.013-0.2 0.067-0.253 0.2-0.093 0.267-0.187 0.533-0.32 0.787-0.080 0.16-0.053 0.267 0.053 0.4 0.28 0.333 0.533 0.68 0.8 1.027 0.44 0.573 0.4 1.227-0.107 1.747-0.413 0.427-0.84 0.84-1.253 1.253-0.52 0.507-1.173 0.547-1.747 0.107-0.36-0.28-0.733-0.56-1.093-0.853-0.093-0.067-0.16-0.080-0.267-0.040-0.28 0.133-0.573 0.253-0.867 0.36-0.12 0.040-0.16 0.107-0.173 0.227-0.040 0.347-0.080 0.707-0.133 1.053-0.040 0.333-0.067 0.667-0.28 0.947s-0.493 0.427-0.813 0.52zM20.213 15.88c-0.107-2.347-2.040-4.173-4.32-4.080-2.347 0.093-4.187 2.040-4.093 4.333 0.093 2.333 2.053 4.173 4.32 4.080 2.36-0.107 4.187-2.053 4.093-4.333z">
        </path>
    </defs>
</svg>