<svg xmlns="http://www.w3.org/2000/svg" width="32" height="32">
  <path id="pg-icon" d="M16 0a16 16 0 1 0 0 32 16 16 0 0 0 0-32zm0 29.7a13.7 13.7 0 1 1 0-27.4 13.7 13.7 0 0 1 0 27.4zm5.5-11.9V15c0-.6-.2-1.1-.4-1.7L18.4 8l-.2-.3a.8.8 0 0 0-.8-.3c-.4 0-.7.2-.7.6-.1.4-.2.9 0 1.3A44.6 44.6 0 0 1 19 15v3.7c0 .3-.1.5-.4.6-.4.1-.8-.2-.8-.6V15c0-.3-.3-.5-.6-.5s-.5.1-.6.4V20a3 3 0 0 0 1.8 2.9l4.3 2.1.7-.5c.9-1 1.8-1.8 2.3-2.9l-2.4-1a3 3 0 0 1-1.8-3zm-5.9-4.2c.3.2.5.2.8 0l.8-.3-1.2-2.8-1.2 2.8c.3.1.6.1.8.3zm.4-9A11.3 11.3 0 0 0 5.7 21l.4-.3 2.1-1c.7-.3 1.1-1 1.1-1.8V15c0-.8.2-1.5.5-2.2 1-1.8 1.8-3.7 2.7-5.5.7-1.3 2.1-1.6 3.1-1l.4.4.2-.2a2 2 0 0 1 3 .6c.6.8 1 1.8 1.5 2.7l1.6 3.3c.3.6.4 1.2.4 1.8v3c0 .8.3 1.4 1.1 1.7l2 1c.2 0 .3.1.4.3A11.3 11.3 0 0 0 16 4.7zm-.6 15.7v-5.1c0-.4-.3-.6-.6-.6s-.6.2-.6.5v3.6c0 .2 0 .4-.2.5-.1.2-.4.3-.6.2-.3 0-.4-.3-.4-.6v-4.3c.7-1.7 1.3-3.4 2.1-5 .3-.5.3-1 .3-1.4 0-.4-.2-.6-.5-.8-.5-.2-1 0-1.2.6l-2.8 5.5c-.2.5-.3 1-.3 1.6v2.9A3 3 0 0 1 9 20.6l-1.7.8-.9.5c.5 1.5 1.8 2.4 2.2 2.7l.7.6 4.4-2.2a3 3 0 0 0 1.7-2.7zm1.2 2.9-.6-.8v.1a5 5 0 0 1-1.9 1.6L12 25l-1.5.8a11.2 11.2 0 0 0 11 0l-3.8-2c-.4-.1-.7-.4-1.1-.8z"/>
</svg>
