<svg xmlns="http://www.w3.org/2000/svg" style="display:none"><defs><symbol id="pg-close" viewBox="0 0 33 33" fill="currentColor"><path
    d="M16 0a16 16 0 1 0 0 32 16 16 0 0 0 0-32zm0 29.7a13.7 13.7 0 1 1 0-27.4 13.7 13.7 0 0 1 0 27.4zm0-25a11.3 11.3 0 1 0 0 22.7 11.3 11.3 0 0 0 0-22.7zm7 15.6c.3.2.3.7 0 1L21.3 23c-.3.3-.8.3-1 0L16 18.8 11.9 23c-.3.3-.8.3-1.1 0L9 21.3a.8.8 0 0 1 0-1l4.2-4.2L9 11.9a.8.8 0 0 1 0-1.1L10.8 9c.3-.3.8-.3 1 0l4.3 4.2L20.3 9c.2-.3.7-.3 1 0l1.7 1.7c.3.3.3.8 0 1L18.8 16l4.2 4.2z" /></symbol><symbol id="pg-go-logo" viewBox="0 0 100 100" fill="currentColor"><path
        d="M50,2.5C23.766,2.5,2.5,23.766,2.5,50s21.266,47.5,47.5,47.5,47.5-21.266,47.5-47.5S76.234,2.5,50,2.5ZM50,9.399c22.387,0,40.601,18.213,40.601,40.601,0,9.514-3.291,18.273-8.792,25.201l-27.285-52.257-1.583-3.033-2.94-5.631-3.095,5.928-27.196,52.086-1.518,2.907c-5.501-6.929-8.792-15.687-8.792-25.201,0-22.387,18.213-40.601,40.601-40.601ZM26.436,83.044l23.564-50.638h0s23.961,50.348,23.961,50.348c-6.721,4.93-15.006,7.846-23.962,7.846-8.779,0-16.916-2.802-23.564-7.557Z" /></symbol><symbol id="pg-prayer" viewBox="0 0 33 33" fill="currentColor"><path
    d="M16 2.3a13.7 13.7 0 1 1 0 27.4 13.7 13.7 0 0 1 0-27.4zM16 0a16 16 0 1 0 0 32 16 16 0 0 0 0-32zm0 16.1-.9 1.4.1.2 3.6 4.5.4.5c.6 1.1 0 2.2-1.2 2.3H9.4c-.5-.1-1-.4-1-1-.2-.5-.1-1 .3-1.5a2 2 0 0 1 1-.3h4.7V22l-3-2.7-.2-.3c-.6-.7-.7-1.4-.3-2.2l3.8-6.5c.6-1.1 1.8-1.4 2.8-.7.4.3.7.8.8 1.4l.3 2.7v.2l.3-.1 2.6-1.7c.2-.2.5-.3.9-.3.3 0 .6 0 .9.3.2.4.4.8.4 1.3l-.1.5a315.4 315.4 0 0 1-5.8 3.9 1 1 0 0 1-1.1-.4l-.5-.8-.3-.5zm4.6-5a2.3 2.3 0 1 1 .1-4.7c1.2 0 2.3 1 2.3 2.3 0 1.3-1 2.3-2.4 2.3z" /></symbol><symbol id="pg-relay" viewBox="0 0 33 33" fill="currentColor"><path
        d="M13 18.040c-0.56-0.507-1.133-1-1.693-1.507-0.053-0.040-0.053-0.080-0.027-0.133 0.52-1.013 1.027-2.013 1.533-3.027 0.253-0.493 0.067-1.067-0.413-1.32-0.28-0.16-0.573-0.32-0.853-0.48-0.040-0.027-0.080-0.040-0.12-0.040-0.867-0.187-1.747-0.373-2.613-0.573-0.24-0.053-0.44 0-0.627 0.12-0.6 0.427-1.2 0.867-1.8 1.293-0.173 0.12-0.347 0.24-0.52 0.373-0.267 0.213-0.307 0.627-0.093 0.907 0.227 0.28 0.613 0.347 0.907 0.133 0.653-0.467 1.307-0.947 1.973-1.413 0.053-0.040 0.093-0.040 0.147-0.027 0.36 0.12 0.733 0.227 1.093 0.347 0.093 0.027 0.187 0.053 0.28 0.093-0.040 0.067-0.080 0.133-0.12 0.187-0.52 0.853-1.040 1.693-1.56 2.547-0.24 0.387-0.28 0.8-0.107 1.213 0.133 0.307 0.36 0.52 0.653 0.693 0.813 0.493 1.613 0.987 2.427 1.493 0.053 0.027 0.053 0.067 0.053 0.107-0.040 0.2-0.080 0.413-0.12 0.613-0.147 0.747-0.293 1.493-0.44 2.253-0.080 0.44 0.2 0.853 0.653 0.96 0.413 0.093 0.853-0.173 0.96-0.6 0.040-0.147 0.067-0.293 0.093-0.44 0.2-1.040 0.4-2.080 0.6-3.12 0.053-0.267-0.040-0.48-0.24-0.667zM8 17.4c-0.080-0.107-0.147-0.227-0.227-0.347-0.027 0.040-0.040 0.067-0.067 0.107-0.213 0.333-0.427 0.667-0.627 1-0.027 0.053-0.067 0.067-0.133 0.067-0.827 0-1.667 0-2.493 0-0.453 0-0.827 0.387-0.827 0.84s0.36 0.813 0.84 0.813c0.36 0 0.733 0 1.093 0 0.573 0 1.133 0 1.707 0 0.453 0 0.813-0.2 1.080-0.56 0.24-0.333 0.467-0.667 0.707-1 0.013-0.027 0.027-0.040 0.040-0.067-0.173-0.107-0.333-0.2-0.493-0.307-0.24-0.147-0.44-0.32-0.6-0.547zM13.427 11.6c0.827 0 1.493-0.667 1.493-1.493s-0.667-1.493-1.493-1.493c-0.827 0-1.493 0.667-1.493 1.493s0.667 1.493 1.493 1.493zM15.147 15.24c-0.387 0-0.773 0-1.16 0-0.053 0-0.080-0.013-0.107-0.067-0.107-0.28-0.227-0.547-0.347-0.827-0.067-0.173-0.147-0.333-0.213-0.52-0.013 0.027-0.027 0.040-0.027 0.053-0.227 0.453-0.467 0.907-0.693 1.36-0.013 0.027-0.013 0.080 0 0.107 0.12 0.267 0.24 0.533 0.36 0.8 0.133 0.28 0.347 0.413 0.667 0.413 0.293 0 0.587 0 0.88 0 0-0.067 0.027-0.133 0.053-0.187l0.573-1.133zM15.973 16.573c0.36-0.027 0.627-0.347 0.6-0.693 0-0.147-0.067-0.267-0.147-0.373l-0.533 1.067s0.053 0 0.080 0zM24.84 18.293c-0.56-0.507-1.133-1-1.693-1.507-0.053-0.040-0.053-0.080-0.027-0.133 0.52-1.013 1.027-2.013 1.533-3.027 0.253-0.493 0.067-1.067-0.413-1.32-0.28-0.16-0.573-0.32-0.853-0.48-0.040-0.027-0.080-0.040-0.12-0.040-0.867-0.187-1.747-0.373-2.613-0.573-0.24-0.053-0.44 0-0.627 0.12-0.6 0.427-1.2 0.867-1.8 1.293-0.173 0.12-0.347 0.24-0.52 0.373-0.267 0.213-0.307 0.627-0.093 0.907 0.227 0.28 0.613 0.347 0.907 0.133 0.653-0.467 1.307-0.947 1.973-1.413 0.053-0.040 0.093-0.040 0.147-0.027 0.36 0.12 0.733 0.227 1.093 0.347 0.093 0.027 0.187 0.053 0.28 0.093-0.040 0.067-0.080 0.133-0.12 0.187-0.52 0.853-1.040 1.693-1.56 2.547-0.24 0.387-0.28 0.8-0.107 1.213 0.133 0.307 0.36 0.52 0.653 0.693 0.813 0.493 1.613 0.987 2.427 1.493 0.053 0.027 0.053 0.067 0.053 0.107-0.040 0.2-0.080 0.413-0.12 0.613-0.147 0.747-0.293 1.493-0.44 2.253-0.080 0.44 0.2 0.853 0.653 0.96 0.413 0.093 0.853-0.173 0.96-0.6 0.040-0.147 0.067-0.293 0.093-0.44 0.2-1.040 0.4-2.080 0.6-3.12 0.053-0.267-0.040-0.48-0.24-0.667zM19.84 17.667c-0.080-0.107-0.147-0.227-0.227-0.347-0.027 0.040-0.040 0.067-0.067 0.107-0.213 0.333-0.427 0.667-0.627 1-0.027 0.053-0.067 0.067-0.133 0.067-0.827 0-1.667 0-2.493 0-0.453 0-0.827 0.387-0.827 0.84s0.36 0.813 0.84 0.813c0.36 0 0.733 0 1.093 0 0.573 0 1.133 0 1.707 0 0.453 0 0.813-0.2 1.080-0.56 0.24-0.333 0.467-0.667 0.707-1 0.013-0.027 0.027-0.040 0.040-0.067-0.173-0.107-0.333-0.2-0.493-0.307-0.24-0.147-0.44-0.32-0.6-0.547zM25.267 11.853c0.827 0 1.493-0.667 1.493-1.493s-0.667-1.493-1.493-1.493c-0.827 0-1.493 0.667-1.493 1.493s0.667 1.493 1.493 1.493zM27.747 15.507c-0.64 0-1.28 0-1.907 0-0.053 0-0.080-0.013-0.107-0.067-0.107-0.28-0.227-0.547-0.347-0.827-0.067-0.173-0.147-0.333-0.213-0.52-0.013 0.027-0.027 0.040-0.027 0.053-0.227 0.453-0.467 0.907-0.693 1.36-0.013 0.027-0.013 0.080 0 0.107 0.12 0.267 0.24 0.533 0.36 0.8 0.133 0.28 0.347 0.413 0.667 0.413 0.56 0 1.107 0 1.667 0 0.227 0 0.453 0 0.667 0 0.36-0.027 0.627-0.347 0.6-0.693-0.027-0.36-0.307-0.627-0.68-0.627zM16 0c-8.84 0-16 7.16-16 16s7.16 16 16 16 16-7.16 16-16-7.16-16-16-16zM16 29.68c-7.547 0-13.68-6.133-13.68-13.68s6.133-13.68 13.68-13.68 13.68 6.133 13.68 13.68-6.133 13.68-13.68 13.68zM16.853 14.093c0.093-0.187 0.013-0.413-0.173-0.507-0.053-0.027-0.107-0.040-0.173-0.040-0.133 0-0.267 0.080-0.333 0.213l-1.373 2.747c-0.093 0.187-0.013 0.413 0.173 0.507 0.053 0.027 0.107 0.040 0.173 0.040 0.133 0 0.267-0.080 0.333-0.213l1.373-2.747z">
    </path></symbol><symbol id="pg-settings" viewBox="0 0 100 100" fill="currentColor"><path
        d="M71.574,43.229c-.2-.058-.281-.266-.362-.432-.426-.873-.661-2.021-1.186-2.894,1.433-2.473,5.263-5.079,2.72-8.169-.87-1.057-3.431-3.665-4.486-4.475-2.994-2.3-5.642,1.356-7.966,2.814l-3.198-1.292c-.155-.073-.197-.178-.23-.337-.51-2.484.159-6.179-2.873-7.223-1.063-.366-5.533-.31-6.834-.207-4.041.318-3.446,4.679-3.965,7.605-.141.302-1.079.479-1.417.625-.352.152-1.565.802-1.788.833-.246.034-.404-.157-.585-.279-2.253-1.512-4.711-4.866-7.67-2.43-1.057.87-3.665,3.431-4.475,4.486-2.253,2.933,1.223,5.571,2.731,7.818.123.142.096.24.056.403-.087.353-.617,1.272-.803,1.704-.146.338-.323,1.276-.625,1.417-2.558.543-6.418-.114-7.428,3.008-.338,1.044-.278,5.474-.177,6.75.324,4.115,4.597,3.337,7.43,3.913.196.04.295.12.385.296l1.244,3.132c-1.458,2.323-5.114,4.972-2.814,7.966.722.94,3.595,3.822,4.532,4.543,3.128,2.406,5.64-1.342,8.112-2.777.886.518,2.006.754,2.894,1.185.166.081.374.164.431.363.473,2.885-.111,6.713,3.538,7.522h6.579c3.647-.805,3.067-4.643,3.538-7.522l.212-.241,3.198-1.292c2.324,1.458,4.972,5.114,7.966,2.814.981-.754,3.709-3.493,4.486-4.475,2.514-3.175-1.266-5.645-2.72-8.169.524-.873.76-2.021,1.186-2.894.081-.166.162-.374.362-.432,2.885-.468,6.704.103,7.522-3.538v-6.579c-.808-3.649-4.636-3.065-7.522-3.538ZM50.057,62.152c-6.68,0-12.095-5.415-12.095-12.095s5.415-12.095,12.095-12.095,12.095,5.415,12.095,12.095-5.415,12.095-12.095,12.095Z" />
    <path
        d="M50,2.5C23.766,2.5,2.5,23.766,2.5,50s21.266,47.5,47.5,47.5,47.5-21.266,47.5-47.5S76.234,2.5,50,2.5ZM50,90.601c-22.387,0-40.601-18.213-40.601-40.601S27.613,9.399,50,9.399s40.601,18.213,40.601,40.601-18.213,40.601-40.601,40.601Z" /></symbol><symbol id="pg-streak" viewBox="0 0 100 100" fill="currentColor"><path
        d="M60.281,37.785c-4.41-4.517-6.1-11.273-4.566-17.359.281-1.113,1.042-2.512,1.394-3.644-.759-.225-1.183.236-1.742.392-4.653,1.294-10.122,6.047-12.851,10.039-4.875,7.132-6.421,16.464-4.187,24.832.324,1.213,1.548,3.423.911,4.526-.024.041-.638.648-.679.673-.452.273-1.142.245-1.653.151-1.119-.207-2.479-2.506-2.981-3.509-1.939-3.872-2.584-8.846-1.575-13.093.239-1.008,1.073-2.247,1.183-3.341-.203-.206-1.905,1.495-2.16,1.767-8.801,9.375-9.179,25.707-.744,35.386,6.548,7.514,15.846,9.731,25.656,8.23,13.922-2.131,22.873-16.683,17.693-29.885-2.768-7.055-8.125-10.612-13.699-15.166ZM39.479,68.863c-.533-.489-1.263-.964-1.145-1.758,5.09-.936,9.305-5.169,10.721-10.106,1.359-4.737-.214-7.048-1.048-11.556-.764-4.132-.948-7.953.425-11.998-.034-.275.492-.208.621-.153.305.129,2.72,4.742,3.424,5.663,3.584,4.69,9.503,7.287,11.425,13.311,4.588,14.378-12.834,27.221-24.421,16.596Z" />
    <path
        d="M50,2.5C23.766,2.5,2.5,23.766,2.5,50s21.266,47.5,47.5,47.5,47.5-21.266,47.5-47.5S76.234,2.5,50,2.5ZM50,90.601c-22.387,0-40.601-18.213-40.601-40.601S27.613,9.399,50,9.399s40.601,18.213,40.601,40.601-18.213,40.601-40.601,40.601Z" /></symbol></defs></svg>