<svg xmlns="http://www.w3.org/2000/svg" style="display:none"><defs><symbol id="pg-streak" viewBox="0 0 100 100" fill="currentColor"><path
      d="m 60.822073,37.147162 c -4.641942,-4.754484 -6.420827,-11.865685 -4.806148,-18.271661 0.295779,-1.171516 1.096805,-2.644069 1.467318,-3.835585 -0.798918,-0.236829 -1.245219,0.248407 -1.83362,0.41261 -4.897723,1.362031 -10.654364,6.364924 -13.526894,10.566807 -5.131399,7.50697 -6.758709,17.329605 -4.407214,26.137559 0.34104,1.276773 1.629417,3.602967 0.958914,4.763957 -0.02526,0.04316 -0.671556,0.682068 -0.714713,0.708383 -0.475772,0.287353 -1.202061,0.257881 -1.739937,0.158939 -1.177855,-0.217883 -2.609384,-2.637753 -3.137785,-3.693489 -2.040982,-4.075572 -2.719906,-9.311083 -1.657836,-13.781373 0.251569,-1.060994 1.129432,-2.365136 1.245216,-3.516654 -0.213675,-0.216831 -2.005191,1.573599 -2.273603,1.859901 -9.263886,9.867898 -9.661766,27.058563 -0.78313,37.246443 6.89239,7.909053 16.679415,10.242613 27.005369,8.662697 C 71.272233,82.322657 80.694009,67.005576 75.241568,53.109472 72.327986,45.683551 66.689236,41.939539 60.822073,37.146109 Z M 38.925997,69.859108 c -0.561031,-0.51471 -1.329425,-1.014682 -1.205218,-1.850427 5.357706,-0.98521 9.794393,-5.440764 11.284866,-10.63733 1.430477,-4.986051 -0.225255,-7.418552 -1.10312,-12.163564 -0.804182,-4.349243 -0.997858,-8.371135 0.447354,-12.628803 -0.03579,-0.289458 0.517877,-0.218934 0.653661,-0.161045 0.321042,0.135784 2.863059,4.991313 3.604086,5.960737 3.772499,4.936579 10.002805,7.670118 12.025892,14.010835 4.829305,15.133933 -13.508999,28.652162 -25.705414,17.468545 z" />
   <path
      d="m 50.000347,0.00703032 c -27.613769,0 -49.99824749,22.38407368 -49.99824749,49.99734268 0,27.613271 22.38447849,49.997347 49.99824749,49.997347 27.613771,0 49.99825,-22.384076 49.99825,-49.997347 0,-27.613269 -22.384479,-49.99734268 -49.99825,-49.99734268 z m 0,92.73296868 c -23.564437,0 -42.7363966,-19.170563 -42.7363966,-42.735626 0,-23.565061 19.1719596,-42.7356232 42.7363966,-42.7356232 23.564439,0 42.736397,19.1705622 42.736397,42.7356232 0,23.565063 -19.170907,42.735626 -42.736397,42.735626 z" /></symbol></defs></svg>