<svg xmlns="http://www.w3.org/2000/svg" style="display:none"><defs><symbol id="pg-go-logo" viewBox="0 0 100 100" fill="currentColor"><path
        d="M50,2.5C23.766,2.5,2.5,23.766,2.5,50s21.266,47.5,47.5,47.5,47.5-21.266,47.5-47.5S76.234,2.5,50,2.5ZM50,9.399c22.387,0,40.601,18.213,40.601,40.601,0,9.514-3.291,18.273-8.792,25.201l-27.285-52.257-1.583-3.033-2.94-5.631-3.095,5.928-27.196,52.086-1.518,2.907c-5.501-6.929-8.792-15.687-8.792-25.201,0-22.387,18.213-40.601,40.601-40.601ZM26.436,83.044l23.564-50.638h0s23.961,50.348,23.961,50.348c-6.721,4.93-15.006,7.846-23.962,7.846-8.779,0-16.916-2.802-23.564-7.557Z" /></symbol><symbol id="pg-prayer" viewBox="0 0 33 33" fill="currentColor"><path
    d="M16 2.3a13.7 13.7 0 1 1 0 27.4 13.7 13.7 0 0 1 0-27.4zM16 0a16 16 0 1 0 0 32 16 16 0 0 0 0-32zm0 16.1-.9 1.4.1.2 3.6 4.5.4.5c.6 1.1 0 2.2-1.2 2.3H9.4c-.5-.1-1-.4-1-1-.2-.5-.1-1 .3-1.5a2 2 0 0 1 1-.3h4.7V22l-3-2.7-.2-.3c-.6-.7-.7-1.4-.3-2.2l3.8-6.5c.6-1.1 1.8-1.4 2.8-.7.4.3.7.8.8 1.4l.3 2.7v.2l.3-.1 2.6-1.7c.2-.2.5-.3.9-.3.3 0 .6 0 .9.3.2.4.4.8.4 1.3l-.1.5a315.4 315.4 0 0 1-5.8 3.9 1 1 0 0 1-1.1-.4l-.5-.8-.3-.5zm4.6-5a2.3 2.3 0 1 1 .1-4.7c1.2 0 2.3 1 2.3 2.3 0 1.3-1 2.3-2.4 2.3z" /></symbol><symbol id="pg-relay" viewBox="0 0 33 33" fill="currentColor"><path
        d="M13 18.040c-0.56-0.507-1.133-1-1.693-1.507-0.053-0.040-0.053-0.080-0.027-0.133 0.52-1.013 1.027-2.013 1.533-3.027 0.253-0.493 0.067-1.067-0.413-1.32-0.28-0.16-0.573-0.32-0.853-0.48-0.040-0.027-0.080-0.040-0.12-0.040-0.867-0.187-1.747-0.373-2.613-0.573-0.24-0.053-0.44 0-0.627 0.12-0.6 0.427-1.2 0.867-1.8 1.293-0.173 0.12-0.347 0.24-0.52 0.373-0.267 0.213-0.307 0.627-0.093 0.907 0.227 0.28 0.613 0.347 0.907 0.133 0.653-0.467 1.307-0.947 1.973-1.413 0.053-0.040 0.093-0.040 0.147-0.027 0.36 0.12 0.733 0.227 1.093 0.347 0.093 0.027 0.187 0.053 0.28 0.093-0.040 0.067-0.080 0.133-0.12 0.187-0.52 0.853-1.040 1.693-1.56 2.547-0.24 0.387-0.28 0.8-0.107 1.213 0.133 0.307 0.36 0.52 0.653 0.693 0.813 0.493 1.613 0.987 2.427 1.493 0.053 0.027 0.053 0.067 0.053 0.107-0.040 0.2-0.080 0.413-0.12 0.613-0.147 0.747-0.293 1.493-0.44 2.253-0.080 0.44 0.2 0.853 0.653 0.96 0.413 0.093 0.853-0.173 0.96-0.6 0.040-0.147 0.067-0.293 0.093-0.44 0.2-1.040 0.4-2.080 0.6-3.12 0.053-0.267-0.040-0.48-0.24-0.667zM8 17.4c-0.080-0.107-0.147-0.227-0.227-0.347-0.027 0.040-0.040 0.067-0.067 0.107-0.213 0.333-0.427 0.667-0.627 1-0.027 0.053-0.067 0.067-0.133 0.067-0.827 0-1.667 0-2.493 0-0.453 0-0.827 0.387-0.827 0.84s0.36 0.813 0.84 0.813c0.36 0 0.733 0 1.093 0 0.573 0 1.133 0 1.707 0 0.453 0 0.813-0.2 1.080-0.56 0.24-0.333 0.467-0.667 0.707-1 0.013-0.027 0.027-0.040 0.040-0.067-0.173-0.107-0.333-0.2-0.493-0.307-0.24-0.147-0.44-0.32-0.6-0.547zM13.427 11.6c0.827 0 1.493-0.667 1.493-1.493s-0.667-1.493-1.493-1.493c-0.827 0-1.493 0.667-1.493 1.493s0.667 1.493 1.493 1.493zM15.147 15.24c-0.387 0-0.773 0-1.16 0-0.053 0-0.080-0.013-0.107-0.067-0.107-0.28-0.227-0.547-0.347-0.827-0.067-0.173-0.147-0.333-0.213-0.52-0.013 0.027-0.027 0.040-0.027 0.053-0.227 0.453-0.467 0.907-0.693 1.36-0.013 0.027-0.013 0.080 0 0.107 0.12 0.267 0.24 0.533 0.36 0.8 0.133 0.28 0.347 0.413 0.667 0.413 0.293 0 0.587 0 0.88 0 0-0.067 0.027-0.133 0.053-0.187l0.573-1.133zM15.973 16.573c0.36-0.027 0.627-0.347 0.6-0.693 0-0.147-0.067-0.267-0.147-0.373l-0.533 1.067s0.053 0 0.080 0zM24.84 18.293c-0.56-0.507-1.133-1-1.693-1.507-0.053-0.040-0.053-0.080-0.027-0.133 0.52-1.013 1.027-2.013 1.533-3.027 0.253-0.493 0.067-1.067-0.413-1.32-0.28-0.16-0.573-0.32-0.853-0.48-0.040-0.027-0.080-0.040-0.12-0.040-0.867-0.187-1.747-0.373-2.613-0.573-0.24-0.053-0.44 0-0.627 0.12-0.6 0.427-1.2 0.867-1.8 1.293-0.173 0.12-0.347 0.24-0.52 0.373-0.267 0.213-0.307 0.627-0.093 0.907 0.227 0.28 0.613 0.347 0.907 0.133 0.653-0.467 1.307-0.947 1.973-1.413 0.053-0.040 0.093-0.040 0.147-0.027 0.36 0.12 0.733 0.227 1.093 0.347 0.093 0.027 0.187 0.053 0.28 0.093-0.040 0.067-0.080 0.133-0.12 0.187-0.52 0.853-1.040 1.693-1.56 2.547-0.24 0.387-0.28 0.8-0.107 1.213 0.133 0.307 0.36 0.52 0.653 0.693 0.813 0.493 1.613 0.987 2.427 1.493 0.053 0.027 0.053 0.067 0.053 0.107-0.040 0.2-0.080 0.413-0.12 0.613-0.147 0.747-0.293 1.493-0.44 2.253-0.080 0.44 0.2 0.853 0.653 0.96 0.413 0.093 0.853-0.173 0.96-0.6 0.040-0.147 0.067-0.293 0.093-0.44 0.2-1.040 0.4-2.080 0.6-3.12 0.053-0.267-0.040-0.48-0.24-0.667zM19.84 17.667c-0.080-0.107-0.147-0.227-0.227-0.347-0.027 0.040-0.040 0.067-0.067 0.107-0.213 0.333-0.427 0.667-0.627 1-0.027 0.053-0.067 0.067-0.133 0.067-0.827 0-1.667 0-2.493 0-0.453 0-0.827 0.387-0.827 0.84s0.36 0.813 0.84 0.813c0.36 0 0.733 0 1.093 0 0.573 0 1.133 0 1.707 0 0.453 0 0.813-0.2 1.080-0.56 0.24-0.333 0.467-0.667 0.707-1 0.013-0.027 0.027-0.040 0.040-0.067-0.173-0.107-0.333-0.2-0.493-0.307-0.24-0.147-0.44-0.32-0.6-0.547zM25.267 11.853c0.827 0 1.493-0.667 1.493-1.493s-0.667-1.493-1.493-1.493c-0.827 0-1.493 0.667-1.493 1.493s0.667 1.493 1.493 1.493zM27.747 15.507c-0.64 0-1.28 0-1.907 0-0.053 0-0.080-0.013-0.107-0.067-0.107-0.28-0.227-0.547-0.347-0.827-0.067-0.173-0.147-0.333-0.213-0.52-0.013 0.027-0.027 0.040-0.027 0.053-0.227 0.453-0.467 0.907-0.693 1.36-0.013 0.027-0.013 0.080 0 0.107 0.12 0.267 0.24 0.533 0.36 0.8 0.133 0.28 0.347 0.413 0.667 0.413 0.56 0 1.107 0 1.667 0 0.227 0 0.453 0 0.667 0 0.36-0.027 0.627-0.347 0.6-0.693-0.027-0.36-0.307-0.627-0.68-0.627zM16 0c-8.84 0-16 7.16-16 16s7.16 16 16 16 16-7.16 16-16-7.16-16-16-16zM16 29.68c-7.547 0-13.68-6.133-13.68-13.68s6.133-13.68 13.68-13.68 13.68 6.133 13.68 13.68-6.133 13.68-13.68 13.68zM16.853 14.093c0.093-0.187 0.013-0.413-0.173-0.507-0.053-0.027-0.107-0.040-0.173-0.040-0.133 0-0.267 0.080-0.333 0.213l-1.373 2.747c-0.093 0.187-0.013 0.413 0.173 0.507 0.053 0.027 0.107 0.040 0.173 0.040 0.133 0 0.267-0.080 0.333-0.213l1.373-2.747z">
    </path></symbol><symbol id="pg-streak" viewBox="0 0 100 100" fill="currentColor"><path
      d="m 60.822073,37.147162 c -4.641942,-4.754484 -6.420827,-11.865685 -4.806148,-18.271661 0.295779,-1.171516 1.096805,-2.644069 1.467318,-3.835585 -0.798918,-0.236829 -1.245219,0.248407 -1.83362,0.41261 -4.897723,1.362031 -10.654364,6.364924 -13.526894,10.566807 -5.131399,7.50697 -6.758709,17.329605 -4.407214,26.137559 0.34104,1.276773 1.629417,3.602967 0.958914,4.763957 -0.02526,0.04316 -0.671556,0.682068 -0.714713,0.708383 -0.475772,0.287353 -1.202061,0.257881 -1.739937,0.158939 -1.177855,-0.217883 -2.609384,-2.637753 -3.137785,-3.693489 -2.040982,-4.075572 -2.719906,-9.311083 -1.657836,-13.781373 0.251569,-1.060994 1.129432,-2.365136 1.245216,-3.516654 -0.213675,-0.216831 -2.005191,1.573599 -2.273603,1.859901 -9.263886,9.867898 -9.661766,27.058563 -0.78313,37.246443 6.89239,7.909053 16.679415,10.242613 27.005369,8.662697 C 71.272233,82.322657 80.694009,67.005576 75.241568,53.109472 72.327986,45.683551 66.689236,41.939539 60.822073,37.146109 Z M 38.925997,69.859108 c -0.561031,-0.51471 -1.329425,-1.014682 -1.205218,-1.850427 5.357706,-0.98521 9.794393,-5.440764 11.284866,-10.63733 1.430477,-4.986051 -0.225255,-7.418552 -1.10312,-12.163564 -0.804182,-4.349243 -0.997858,-8.371135 0.447354,-12.628803 -0.03579,-0.289458 0.517877,-0.218934 0.653661,-0.161045 0.321042,0.135784 2.863059,4.991313 3.604086,5.960737 3.772499,4.936579 10.002805,7.670118 12.025892,14.010835 4.829305,15.133933 -13.508999,28.652162 -25.705414,17.468545 z" />
   <path
      d="m 50.000347,0.00703032 c -27.613769,0 -49.99824749,22.38407368 -49.99824749,49.99734268 0,27.613271 22.38447849,49.997347 49.99824749,49.997347 27.613771,0 49.99825,-22.384076 49.99825,-49.997347 0,-27.613269 -22.384479,-49.99734268 -49.99825,-49.99734268 z m 0,92.73296868 c -23.564437,0 -42.7363966,-19.170563 -42.7363966,-42.735626 0,-23.565061 19.1719596,-42.7356232 42.7363966,-42.7356232 23.564439,0 42.736397,19.1705622 42.736397,42.7356232 0,23.565063 -19.170907,42.735626 -42.736397,42.735626 z" /></symbol></defs></svg>