<svg xmlns="http://www.w3.org/2000/svg" style="display:none"><defs><symbol id="pg-pray-hands" viewBox="0 0 100 100" fill="currentColor"><path
        d="M50.231,2.919C23.997,2.919,2.731,24.185,2.731,50.419s21.266,47.5,47.5,47.5,47.5-21.266,47.5-47.5S76.464,2.919,50.231,2.919ZM50.231,91.019c-22.387,0-40.601-18.213-40.601-40.601S27.843,9.818,50.231,9.818s40.601,18.213,40.601,40.601-18.213,40.601-40.601,40.601Z" />
    <path
        d="M67.365,56.089c-.01-2.963-.021-5.927.005-8.889.016-1.817-.398-3.51-1.207-5.131-2.83-5.674-5.642-11.356-8.464-17.034-.15-.302-.311-.603-.504-.878-.643-.914-1.558-1.307-2.642-1.163-1.144.152-2.02.812-2.266,1.942-.302,1.384-.395,2.816.271,4.158,2.662,5.368,4.819,10.941,6.764,16.6.211.613.387,1.274.393,1.915.038,3.894.032,7.789.018,11.683-.003.84-.445,1.448-1.234,1.753-1.285.498-2.556-.449-2.561-1.921-.012-3.471-.004-6.942-.004-10.414,0-.339.015-.679-.013-1.015-.082-.959-.841-1.693-1.786-1.749-.911-.054-1.745.566-1.952,1.482-.06.264-.057.546-.057.82-.003,4.995-.004,9.99-.002,14.985.002,4.165,1.869,7.196,5.575,9.085,4.491,2.29,8.99,4.565,13.486,6.845.757-.553,1.49-1.135,2.201-1.745,2.778-2.787,5.625-5.704,7.264-8.955-1.79-.882-5.907-2.431-7.626-3.285-3.754-1.865-5.644-4.898-5.658-9.09Z" />
    <path
        d="M48.283,63.825c.097-5.311.028-10.625.029-15.937,0-.085-.003-.17-.013-.253-.12-.947-.91-1.67-1.847-1.69-.915-.02-1.733.632-1.907,1.543-.047.247-.039.506-.039.759-.002,3.577.019,7.154-.024,10.731-.007.53-.217,1.125-.515,1.567-.425.63-1.284.773-2.008.511-.778-.282-1.257-.961-1.259-1.869-.008-3.768-.021-7.535.014-11.302.006-.685.143-1.398.364-2.048,1.842-5.425,3.792-10.813,6.428-15.912.73-1.413.906-2.839.791-4.351-.085-1.127-.675-1.944-1.721-2.392-1.454-.623-2.93.035-3.741,1.665-2.88,5.791-5.751,11.585-8.631,17.376-.768,1.544-1.145,3.166-1.134,4.893.019,3.048.03,6.096,0,9.143-.038,3.749-1.623,6.657-4.917,8.507-1.73.971-3.548,1.784-5.326,2.671-.201.1-2.502,1.458-2.74,1.588,1.682,4.486,5.608,7.29,6.962,8.382.713.612,1.449,1.198,2.21,1.753,4.565-2.313,9.138-4.607,13.685-6.955,3.382-1.747,5.272-4.563,5.342-8.38Z" /></symbol></defs></svg>