<svg xmlns="http://www.w3.org/2000/svg" style="display:none"><defs><symbol id="ion-ellipsis-horizontal" viewBox="0 0 512 512" fill="currentColor"><circle cx="256" cy="256" r="48" />
    <circle cx="416" cy="256" r="48" />
    <circle cx="96" cy="256" r="48" /></symbol><symbol id="pg-chevron-left" viewBox="0 0 33 33" fill="currentColor"><path
        d="M23.48 0.947c1.267 1.267 1.267 3.307 0 4.573l-10.467 10.467 10.493 10.493c1.253 1.267 1.253 3.32-0.027 4.573-1.267 1.253-3.293 1.253-4.56 0l-12.307-12.307c-1.507-1.013-1.92-3.053-0.907-4.56 0.2-0.307 0.453-0.573 0.747-0.787l12.44-12.453c1.267-1.267 3.307-1.267 4.573 0z">
    </path></symbol><symbol id="pg-close" viewBox="0 0 33 33" fill="currentColor"><path
    d="M16 0a16 16 0 1 0 0 32 16 16 0 0 0 0-32zm0 29.7a13.7 13.7 0 1 1 0-27.4 13.7 13.7 0 0 1 0 27.4zm0-25a11.3 11.3 0 1 0 0 22.7 11.3 11.3 0 0 0 0-22.7zm7 15.6c.3.2.3.7 0 1L21.3 23c-.3.3-.8.3-1 0L16 18.8 11.9 23c-.3.3-.8.3-1.1 0L9 21.3a.8.8 0 0 1 0-1l4.2-4.2L9 11.9a.8.8 0 0 1 0-1.1L10.8 9c.3-.3.8-.3 1 0l4.3 4.2L20.3 9c.2-.3.7-.3 1 0l1.7 1.7c.3.3.3.8 0 1L18.8 16l4.2 4.2z" /></symbol><symbol id="pg-go-logo" viewBox="0 0 100 100" fill="currentColor"><path
        d="M50,2.5C23.766,2.5,2.5,23.766,2.5,50s21.266,47.5,47.5,47.5,47.5-21.266,47.5-47.5S76.234,2.5,50,2.5ZM50,9.399c22.387,0,40.601,18.213,40.601,40.601,0,9.514-3.291,18.273-8.792,25.201l-27.285-52.257-1.583-3.033-2.94-5.631-3.095,5.928-27.196,52.086-1.518,2.907c-5.501-6.929-8.792-15.687-8.792-25.201,0-22.387,18.213-40.601,40.601-40.601ZM26.436,83.044l23.564-50.638h0s23.961,50.348,23.961,50.348c-6.721,4.93-15.006,7.846-23.962,7.846-8.779,0-16.916-2.802-23.564-7.557Z" /></symbol><symbol id="pg-info" viewBox="0 0 100 100" fill="currentColor"><path
        d="M50.042,2.542C23.809,2.542,2.542,23.809,2.542,50.042s21.266,47.5,47.5,47.5,47.5-21.266,47.5-47.5S76.276,2.542,50.042,2.542ZM50.042,90.643c-22.387,0-40.601-18.213-40.601-40.601S27.655,9.442,50.042,9.442s40.601,18.213,40.601,40.601-18.213,40.601-40.601,40.601Z" />
    <path
        d="M49.882,35.479c-1.64,0-2.972.561-3.997,1.682-1.026,1.121-1.537,2.788-1.537,5.002v32.02c0,2.187.512,3.868,1.537,5.044,1.025,1.175,2.357,1.762,3.997,1.762s2.993-.574,4.059-1.722,1.599-2.842,1.599-5.084v-32.348c0-1.995-.533-3.553-1.599-4.674s-2.419-1.682-4.059-1.682Z" />
    <path
        d="M50.005,19.325c-1.504,0-2.822.513-3.957,1.537-1.134,1.026-1.701,2.331-1.701,3.916,0,1.749.553,3.102,1.66,4.059,1.107.957,2.44,1.435,3.998,1.435,1.503,0,2.802-.485,3.895-1.456,1.093-.97,1.64-2.316,1.64-4.038,0-1.776-.56-3.13-1.681-4.059-1.121-.929-2.406-1.394-3.854-1.394Z" /></symbol><symbol id="pg-logo-prayer" viewBox="0 0 33 33" fill="currentColor"><path
        d="M11.827 21.213h0.627s0.053-0.013 0.080-0.027c-0.373-0.347-0.747-0.707-1.107-1.053 0.080 0.28 0.173 0.547 0.28 0.813 0.040 0.093 0.080 0.187 0.12 0.267zM27.093 16.173c0-0.147-0.027-0.293-0.027-0.44 0-0.853-0.147-1.68-0.373-2.493-0.427-1.507-1.107-2.893-2.147-4.080-0.307-0.347-0.627-0.68-0.973-1 0.107 0.307 0.16 0.627 0.16 0.96 0 0.213-0.027 0.427-0.067 0.627 0.067 0.067 0.12 0.133 0.187 0.2 0.933 1.12 1.547 2.4 1.893 3.813 0.16 0.653 0.28 1.307 0.293 1.973 0 0.027 0 0.053 0 0.093-0.053 0-0.093 0-0.133 0-1.080 0-2.16 0-3.24 0-0.52 0.347-1.067 0.707-1.64 1.080h0.107c0 0.88-0.16 1.733-0.373 2.573-0.173 0.64-0.387 1.267-0.627 1.88-0.347-0.147-0.693-0.28-1.053-0.387 0.147 0.187 0.293 0.387 0.453 0.573v0.027c0.147 0.16 0.293 0.347 0.427 0.56 0.24 0.387 0.373 0.813 0.4 1.213 0.013-0.040 0.040-0.080 0.053-0.133 0.067-0.173 0.133-0.347 0.2-0.52 0.053-0.12 0.053-0.12 0.173-0.067 0.4 0.2 0.8 0.4 1.187 0.627 0.267 0.147 0.533 0.32 0.8 0.493 0.027 0 0.040 0.027 0.067 0.053-1.053 1.12-2.333 1.84-3.867 2.16 0.093-0.147 0.187-0.267 0.267-0.387 0.093-0.133 0.173-0.267 0.267-0.4-0.347 0.253-0.773 0.413-1.267 0.453-0.053 0-0.107 0-0.16 0-0.013 0.027-0.040 0.067-0.053 0.093-0.12 0.2-0.267 0.387-0.413 0.587-0.013 0.027-0.053 0.053-0.093 0.053-0.293 0.027-0.587 0.040-0.893 0.053-0.013 0-0.027 0-0.053 0v-0.773h-0.067c-0.333 0-0.68 0-1.013 0 0 0.227 0 0.453 0 0.68 0 0.093-0.027 0.107-0.107 0.107-0.28-0.027-0.547-0.040-0.827-0.053-0.040 0-0.080-0.027-0.093-0.053-0.16-0.227-0.307-0.44-0.453-0.667-0.36 0-0.733 0-1.093 0 0.080 0.12 0.147 0.24 0.213 0.36-0.373-0.093-0.733-0.213-1.080-0.36-0.2 0-0.413 0-0.613 0h-0.080c-0.44 0-0.907 0-1.373-0.053 0.533 0.347 1.080 0.653 1.667 0.92 0.813 0.36 1.653 0.613 2.52 0.787 0.467 0.093 0.933 0.147 1.4 0.147 0.48 0 0.973 0 1.453 0 0.28 0 0.56-0.053 0.84-0.093 0.987-0.133 1.933-0.427 2.84-0.827 0.947-0.413 1.827-0.933 2.6-1.613 1.44-1.227 2.507-2.72 3.147-4.507 0.267-0.733 0.44-1.493 0.547-2.267 0.067-0.493 0.107-0.987 0.093-1.48 0-0.080 0.013-0.16 0.027-0.24 0-0.080 0-0.16 0-0.253zM26.053 17.067c-0.040 1.080-0.28 2.107-0.68 3.107-0.267 0.693-0.587 1.36-1.013 1.973-0.213 0.307-0.48 0.587-0.72 0.893-0.027 0.040-0.067 0.053-0.107 0.027-0.627-0.413-1.307-0.707-1.973-1.053-0.147-0.080-0.293-0.16-0.44-0.227-0.067-0.040-0.080-0.067-0.053-0.133 0.293-0.76 0.56-1.533 0.773-2.32 0.173-0.653 0.307-1.333 0.36-2.013 0-0.12 0-0.24 0-0.373 0.040 0 0.080 0 0.107 0 1.213 0 2.427 0 3.627 0 0.133 0 0.133 0 0.133 0.133zM4.96 16.627s0 0 0 0c0 0.24 0.013 0.467 0.040 0.707 0.053 0.627 0.16 1.24 0.32 1.84 0.36 1.32 0.92 2.533 1.693 3.653 0.293 0.413 0.6 0.8 0.947 1.173-0.107-0.493-0.093-0.947 0.067-1.36-0.52-0.64-0.92-1.347-1.24-2.107-0.32-0.747-0.56-1.507-0.68-2.307-0.067-0.387-0.080-0.773-0.12-1.16 0-0.040 0-0.067 0-0.12h0.107c1.24 0 2.467 0 3.707 0 0.093 0 0.12 0.027 0.12 0.107 0 0.6 0.067 1.187 0.173 1.773 0.12 0.64 0.307 1.267 0.52 1.88 0.053 0.173 0.12 0.347 0.173 0.52h0.933s0.107 0 0.107 0c-0.040-0.080-0.080-0.173-0.12-0.267-0.107-0.267-0.2-0.547-0.28-0.813-0.067-0.067-0.147-0.133-0.213-0.2-0.133-0.12-0.24-0.227-0.333-0.347-0.827-0.933-0.947-2.027-0.347-3.080 0.12-0.213 0.24-0.427 0.373-0.653-0.027 0-0.040 0-0.080 0 0.027-0.333 0.040-0.653 0.067-0.96 0.053-0.56 0.173-1.107 0.307-1.653 0.16-0.627 0.373-1.227 0.613-1.827 0.027-0.067 0.053-0.093 0.133-0.067 0.413 0.147 0.84 0.307 1.267 0.44 0.16-0.28 0.333-0.573 0.493-0.853-0.413-0.080-0.813-0.187-1.213-0.32-0.080-0.027-0.16-0.053-0.24-0.080-0.080-0.013-0.067-0.053-0.053-0.12 0.347-0.8 0.72-1.587 1.173-2.32 0.333-0.533 0.693-1.053 1.040-1.573 0.027-0.040 0.080-0.067 0.12-0.067 0.28-0.013 0.56-0.027 0.827-0.040 0.027 0 0.053 0.040 0.067 0.067 0 0.053 0 0.093 0 0.147 0 0.787 0 1.573 0 2.36 0.333-0.147 0.68-0.227 1.053-0.227 0 0 0.027 0 0.040 0v-2.347c0.080 0 0.147 0 0.213 0 0.2 0 0.4 0.013 0.613 0.040 0.040 0 0.107 0.027 0.133 0.067 0.227 0.267 0.427 0.547 0.627 0.827 0.48-0.667 1.227-1.147 2.067-1.28-0.653-0.253-1.32-0.453-2.013-0.573-0.36-0.067-0.747-0.093-1.107-0.133-0.053 0-0.107 0-0.16-0.040h-1.453c-0.12 0.013-0.227 0.027-0.333 0.040-0.707 0.040-1.387 0.187-2.053 0.373-1.373 0.387-2.627 1.027-3.787 1.853-1.413 1.013-2.507 2.293-3.293 3.84-0.333 0.667-0.6 1.347-0.773 2.067-0.133 0.533-0.24 1.067-0.24 1.613 0 0.093 0 0.173-0.027 0.28v1.213zM13.053 6.787c-0.72 1.027-1.293 2.133-1.76 3.307-0.72-0.36-1.48-0.653-2.12-1.173 1.093-1.093 2.427-1.733 3.88-2.133zM5.907 15.747c0.080-0.507 0.147-1.013 0.24-1.52 0.147-0.747 0.373-1.48 0.68-2.187 0.373-0.853 0.867-1.627 1.507-2.32 0.027-0.027 0.053-0.053 0.080-0.080 0 0 0.027 0 0.027-0.013 0.173 0.133 0.333 0.28 0.52 0.373 0.44 0.227 0.88 0.44 1.32 0.653 0.24 0.12 0.48 0.227 0.72 0.333-0.707 1.547-0.973 3.173-1.12 4.867h-0.147c-1.133 0-2.267 0-3.413 0-0.107 0-0.227 0-0.333 0-0.093 0-0.107-0.027-0.093-0.107zM10.48 3.8c4.733-1.893 9.373-1.2 12.907 1.080l-0.427 0.347c-0.36 0.293-0.28 0.88 0.16 1.040 0.56 0.213 1.133 0.44 1.693 0.653l1.693 0.653c0.44 0.173 0.893-0.2 0.827-0.667l-0.56-3.6c-0.067-0.467-0.613-0.68-0.987-0.387l-0.52 0.413c-4.173-2.973-9.853-4-15.68-1.707-3.28 1.293-7.053 5.067-8.333 8.347-1.72 4.4-1.573 8.693-0.107 12.347 0.253 0.627 0.987 0.907 1.6 0.6 0.547-0.267 0.787-0.92 0.56-1.493-1.28-3.213-1.387-7.027 0.267-10.907 1.307-3.067 3.813-5.493 6.92-6.733zM30.827 10.347c-0.227-0.573-0.907-0.827-1.453-0.547l-0.187 0.093c-0.507 0.253-0.72 0.84-0.507 1.36 0.933 2.293 1.267 4.88 0.787 7.587-0.987 5.627-5.44 10.067-11.067 11.027-3.52 0.6-6.867-0.16-9.573-1.84l0.36-0.427c0.307-0.36 0.107-0.92-0.36-1l-1.813-0.32c-0.6-0.107-1.2-0.213-1.813-0.32-0.467-0.080-0.84 0.373-0.68 0.813l1.253 3.467c0.16 0.44 0.747 0.547 1.053 0.187l0.493-0.587c3.12 2.027 7 3 11.12 2.387 6.827-1 12.253-6.36 13.36-13.16 0.507-3.107 0.107-6.067-0.96-8.693zM17.707 10.080s-0.080-0.067-0.12-0.093c-0.333-0.253-0.707-0.373-1.080-0.373-0.627 0-1.24 0.347-1.627 1-1.213 2.093-2.413 4.2-3.613 6.307-0.427 0.747-0.32 1.453 0.24 2.093 0.093 0.093 0.187 0.2 0.28 0.28 0.92 0.88 1.84 1.747 2.76 2.613 0.040 0.040 0.067 0.080 0.12 0.147h-0.333c-0.88 0-1.76 0-2.627 0-0.507 0-1 0-1.507 0v0c-0.387 0-0.76 0.093-1.040 0.36-0.413 0.387-0.493 0.88-0.36 1.413 0.133 0.547 0.547 0.84 1.067 0.907 0.507 0.067 1.013 0.067 1.533 0.067 0.96 0 1.907 0 2.867 0 1.147 0 2.293 0 3.44 0 0.133 0 0.28 0 0.413-0.013 1.187-0.093 1.72-1.16 1.093-2.173-0.107-0.173-0.24-0.347-0.373-0.507-1.147-1.453-2.293-2.907-3.427-4.36-0.040-0.053-0.080-0.16-0.067-0.2 0.24-0.427 0.493-0.853 0.773-1.32 0.093 0.187 0.16 0.333 0.24 0.48 0.147 0.253 0.28 0.52 0.467 0.747 0.2 0.253 0.467 0.373 0.76 0.373 0.107 0 0.213-0.013 0.32-0.040 0.253-0.067 0.52-0.187 0.747-0.333 1.4-0.907 2.8-1.827 4.187-2.76 0.24-0.16 0.44-0.387 0.613-0.613 0.093-0.133 0.147-0.32 0.147-0.493 0-0.44-0.16-0.84-0.44-1.173-0.2-0.253-0.467-0.373-0.787-0.373-0.027 0-0.053 0-0.067 0-0.32 0.013-0.613 0.16-0.88 0.333-0.827 0.547-1.667 1.093-2.493 1.627-0.053 0.040-0.12 0.067-0.187 0.107-0.013-0.067-0.027-0.12-0.027-0.16-0.12-0.893-0.24-1.787-0.373-2.68 0-0.040-0.013-0.067-0.027-0.107-0.28-0.32-0.493-0.68-0.627-1.080zM18.413 9.107c0 1.227 0.987 2.227 2.227 2.24 0 0 0 0 0 0 1.227 0 2.24-0.987 2.24-2.213 0-1.187-1.027-2.24-2.213-2.24 0 0 0 0-0.013 0-1.2 0-2.227 1.027-2.24 2.227z">
    </path></symbol><symbol id="pg-plus" viewBox="0 0 100 100" fill="currentColor"><path
        d="M50,2.5C23.766,2.5,2.5,23.766,2.5,50s21.266,47.5,47.5,47.5,47.5-21.266,47.5-47.5S76.234,2.5,50,2.5ZM50,90.601c-22.387,0-40.601-18.213-40.601-40.601S27.613,9.399,50,9.399s40.601,18.213,40.601,40.601-18.213,40.601-40.601,40.601Z" />
    <path
        d="M75.112,43.598h-18.71v-18.709c0-3.536-2.866-6.402-6.402-6.402h0c-3.536,0-6.402,2.866-6.402,6.402v18.709h-18.709c-3.536,0-6.402,2.866-6.402,6.402h0c0,3.536,2.866,6.402,6.402,6.402h18.709v18.71c0,3.536,2.866,6.402,6.402,6.402h0c3.536,0,6.402-2.866,6.402-6.402v-18.71h18.71c3.536,0,6.402-2.866,6.402-6.402h0c0-3.536-2.866-6.402-6.402-6.402Z" /></symbol><symbol id="pg-prayer" viewBox="0 0 33 33" fill="currentColor"><path
    d="M16 2.3a13.7 13.7 0 1 1 0 27.4 13.7 13.7 0 0 1 0-27.4zM16 0a16 16 0 1 0 0 32 16 16 0 0 0 0-32zm0 16.1-.9 1.4.1.2 3.6 4.5.4.5c.6 1.1 0 2.2-1.2 2.3H9.4c-.5-.1-1-.4-1-1-.2-.5-.1-1 .3-1.5a2 2 0 0 1 1-.3h4.7V22l-3-2.7-.2-.3c-.6-.7-.7-1.4-.3-2.2l3.8-6.5c.6-1.1 1.8-1.4 2.8-.7.4.3.7.8.8 1.4l.3 2.7v.2l.3-.1 2.6-1.7c.2-.2.5-.3.9-.3.3 0 .6 0 .9.3.2.4.4.8.4 1.3l-.1.5a315.4 315.4 0 0 1-5.8 3.9 1 1 0 0 1-1.1-.4l-.5-.8-.3-.5zm4.6-5a2.3 2.3 0 1 1 .1-4.7c1.2 0 2.3 1 2.3 2.3 0 1.3-1 2.3-2.4 2.3z" /></symbol><symbol id="pg-private" viewBox="0 0 100 100" fill="currentColor"><path
        d="M61.09,71.93c0-2.814,1.336-5.32,3.405-6.924-.749-.492-1.532-.933-2.295-1.404-.257-.159-.482-.161-.759-.015-2.645,1.399-5.43,2.381-8.404,2.792-3.684.509-7.266.077-10.76-1.165-1.331-.473-2.613-1.056-3.858-1.72-.127-.068-.228-.088-.364-.015-3.717,1.998-6.905,4.603-9.325,8.094-1.811,2.612-3.035,5.487-3.807,8.561-.151.599-.272,1.206-.407,1.809-.008.038-.024.074-.037.116-10.944-8.417-18.564-24.133-14.257-41.91C14.392,22.93,29.757,8.948,49.99,8.948c20.386,0,36.134,14.538,40.013,31.948.722,3.24,1.046,6.371,1.048,9.377,2.559,1.67,4.628,4.029,5.94,6.814.238-1.593.393-3.199.467-4.816.005-.114.027-.227.041-.341v-3.859c-.029-.385-.063-.769-.086-1.154-.225-3.669-.873-7.262-1.943-10.777-1.689-5.549-4.321-10.611-7.883-15.187-3.092-3.972-6.718-7.381-10.876-10.221-4.957-3.386-10.366-5.741-16.22-7.067-2.828-.641-5.693-1.018-8.593-1.123-.122-.004-.244-.027-.366-.04h-3.216c-.418.029-.835.063-1.253.088-6.095.368-11.906,1.852-17.421,4.472-4.541,2.157-8.635,4.976-12.286,8.43-4.54,4.294-8.119,9.28-10.692,14.98-1.732,3.838-2.918,7.841-3.574,12-.295,1.867-.486,3.743-.552,5.632-.004.105-.025.21-.039.315v3.216c.03.426.063.852.089,1.278.257,4.372,1.105,8.627,2.55,12.761,2.268,6.487,5.787,12.21,10.53,17.178,3.764,3.942,8.077,7.153,12.944,9.609,4.007,2.022,8.221,3.435,12.637,4.247,2.258.415,4.532.674,6.827.754.097.003.194.026.291.039h3.216c.451-.03.902-.063,1.353-.09,3.226-.191,6.392-.709,9.499-1.546-.847-1.348-1.346-2.937-1.346-4.644v-19.29Z" />
    <path
        d="M50.109,25.663c-9.468.003-17.078,7.553-17.057,16.971.02,9.238,7.562,16.93,16.922,16.939,9.553.009,17.108-7.811,16.99-17.146-.117-9.248-7.615-16.78-16.855-16.764Z" />
    <path
        d="M94.663,93.846c1.45,0,2.626-1.176,2.626-2.626v-19.29c0-1.45-1.176-2.626-2.626-2.626h-2.242v-5.214c0-5.71-4.645-10.355-10.355-10.355s-10.355,4.645-10.355,10.355v5.214h-1.86c-1.45,0-2.626,1.176-2.626,2.626v19.29c0,1.45,1.176,2.626,2.626,2.626h24.812ZM76.246,64.833c0-3.613,2.611-6.553,5.82-6.553s5.82,2.94,5.82,6.553v4.471h-11.641v-4.471Z" /></symbol><symbol id="pg-relay" viewBox="0 0 33 33" fill="currentColor"><path
        d="M13 18.040c-0.56-0.507-1.133-1-1.693-1.507-0.053-0.040-0.053-0.080-0.027-0.133 0.52-1.013 1.027-2.013 1.533-3.027 0.253-0.493 0.067-1.067-0.413-1.32-0.28-0.16-0.573-0.32-0.853-0.48-0.040-0.027-0.080-0.040-0.12-0.040-0.867-0.187-1.747-0.373-2.613-0.573-0.24-0.053-0.44 0-0.627 0.12-0.6 0.427-1.2 0.867-1.8 1.293-0.173 0.12-0.347 0.24-0.52 0.373-0.267 0.213-0.307 0.627-0.093 0.907 0.227 0.28 0.613 0.347 0.907 0.133 0.653-0.467 1.307-0.947 1.973-1.413 0.053-0.040 0.093-0.040 0.147-0.027 0.36 0.12 0.733 0.227 1.093 0.347 0.093 0.027 0.187 0.053 0.28 0.093-0.040 0.067-0.080 0.133-0.12 0.187-0.52 0.853-1.040 1.693-1.56 2.547-0.24 0.387-0.28 0.8-0.107 1.213 0.133 0.307 0.36 0.52 0.653 0.693 0.813 0.493 1.613 0.987 2.427 1.493 0.053 0.027 0.053 0.067 0.053 0.107-0.040 0.2-0.080 0.413-0.12 0.613-0.147 0.747-0.293 1.493-0.44 2.253-0.080 0.44 0.2 0.853 0.653 0.96 0.413 0.093 0.853-0.173 0.96-0.6 0.040-0.147 0.067-0.293 0.093-0.44 0.2-1.040 0.4-2.080 0.6-3.12 0.053-0.267-0.040-0.48-0.24-0.667zM8 17.4c-0.080-0.107-0.147-0.227-0.227-0.347-0.027 0.040-0.040 0.067-0.067 0.107-0.213 0.333-0.427 0.667-0.627 1-0.027 0.053-0.067 0.067-0.133 0.067-0.827 0-1.667 0-2.493 0-0.453 0-0.827 0.387-0.827 0.84s0.36 0.813 0.84 0.813c0.36 0 0.733 0 1.093 0 0.573 0 1.133 0 1.707 0 0.453 0 0.813-0.2 1.080-0.56 0.24-0.333 0.467-0.667 0.707-1 0.013-0.027 0.027-0.040 0.040-0.067-0.173-0.107-0.333-0.2-0.493-0.307-0.24-0.147-0.44-0.32-0.6-0.547zM13.427 11.6c0.827 0 1.493-0.667 1.493-1.493s-0.667-1.493-1.493-1.493c-0.827 0-1.493 0.667-1.493 1.493s0.667 1.493 1.493 1.493zM15.147 15.24c-0.387 0-0.773 0-1.16 0-0.053 0-0.080-0.013-0.107-0.067-0.107-0.28-0.227-0.547-0.347-0.827-0.067-0.173-0.147-0.333-0.213-0.52-0.013 0.027-0.027 0.040-0.027 0.053-0.227 0.453-0.467 0.907-0.693 1.36-0.013 0.027-0.013 0.080 0 0.107 0.12 0.267 0.24 0.533 0.36 0.8 0.133 0.28 0.347 0.413 0.667 0.413 0.293 0 0.587 0 0.88 0 0-0.067 0.027-0.133 0.053-0.187l0.573-1.133zM15.973 16.573c0.36-0.027 0.627-0.347 0.6-0.693 0-0.147-0.067-0.267-0.147-0.373l-0.533 1.067s0.053 0 0.080 0zM24.84 18.293c-0.56-0.507-1.133-1-1.693-1.507-0.053-0.040-0.053-0.080-0.027-0.133 0.52-1.013 1.027-2.013 1.533-3.027 0.253-0.493 0.067-1.067-0.413-1.32-0.28-0.16-0.573-0.32-0.853-0.48-0.040-0.027-0.080-0.040-0.12-0.040-0.867-0.187-1.747-0.373-2.613-0.573-0.24-0.053-0.44 0-0.627 0.12-0.6 0.427-1.2 0.867-1.8 1.293-0.173 0.12-0.347 0.24-0.52 0.373-0.267 0.213-0.307 0.627-0.093 0.907 0.227 0.28 0.613 0.347 0.907 0.133 0.653-0.467 1.307-0.947 1.973-1.413 0.053-0.040 0.093-0.040 0.147-0.027 0.36 0.12 0.733 0.227 1.093 0.347 0.093 0.027 0.187 0.053 0.28 0.093-0.040 0.067-0.080 0.133-0.12 0.187-0.52 0.853-1.040 1.693-1.56 2.547-0.24 0.387-0.28 0.8-0.107 1.213 0.133 0.307 0.36 0.52 0.653 0.693 0.813 0.493 1.613 0.987 2.427 1.493 0.053 0.027 0.053 0.067 0.053 0.107-0.040 0.2-0.080 0.413-0.12 0.613-0.147 0.747-0.293 1.493-0.44 2.253-0.080 0.44 0.2 0.853 0.653 0.96 0.413 0.093 0.853-0.173 0.96-0.6 0.040-0.147 0.067-0.293 0.093-0.44 0.2-1.040 0.4-2.080 0.6-3.12 0.053-0.267-0.040-0.48-0.24-0.667zM19.84 17.667c-0.080-0.107-0.147-0.227-0.227-0.347-0.027 0.040-0.040 0.067-0.067 0.107-0.213 0.333-0.427 0.667-0.627 1-0.027 0.053-0.067 0.067-0.133 0.067-0.827 0-1.667 0-2.493 0-0.453 0-0.827 0.387-0.827 0.84s0.36 0.813 0.84 0.813c0.36 0 0.733 0 1.093 0 0.573 0 1.133 0 1.707 0 0.453 0 0.813-0.2 1.080-0.56 0.24-0.333 0.467-0.667 0.707-1 0.013-0.027 0.027-0.040 0.040-0.067-0.173-0.107-0.333-0.2-0.493-0.307-0.24-0.147-0.44-0.32-0.6-0.547zM25.267 11.853c0.827 0 1.493-0.667 1.493-1.493s-0.667-1.493-1.493-1.493c-0.827 0-1.493 0.667-1.493 1.493s0.667 1.493 1.493 1.493zM27.747 15.507c-0.64 0-1.28 0-1.907 0-0.053 0-0.080-0.013-0.107-0.067-0.107-0.28-0.227-0.547-0.347-0.827-0.067-0.173-0.147-0.333-0.213-0.52-0.013 0.027-0.027 0.040-0.027 0.053-0.227 0.453-0.467 0.907-0.693 1.36-0.013 0.027-0.013 0.080 0 0.107 0.12 0.267 0.24 0.533 0.36 0.8 0.133 0.28 0.347 0.413 0.667 0.413 0.56 0 1.107 0 1.667 0 0.227 0 0.453 0 0.667 0 0.36-0.027 0.627-0.347 0.6-0.693-0.027-0.36-0.307-0.627-0.68-0.627zM16 0c-8.84 0-16 7.16-16 16s7.16 16 16 16 16-7.16 16-16-7.16-16-16-16zM16 29.68c-7.547 0-13.68-6.133-13.68-13.68s6.133-13.68 13.68-13.68 13.68 6.133 13.68 13.68-6.133 13.68-13.68 13.68zM16.853 14.093c0.093-0.187 0.013-0.413-0.173-0.507-0.053-0.027-0.107-0.040-0.173-0.040-0.133 0-0.267 0.080-0.333 0.213l-1.373 2.747c-0.093 0.187-0.013 0.413 0.173 0.507 0.053 0.027 0.107 0.040 0.173 0.040 0.133 0 0.267-0.080 0.333-0.213l1.373-2.747z">
    </path></symbol><symbol id="pg-settings" viewBox="0 0 100 100" fill="currentColor"><path
        d="M71.574,43.229c-.2-.058-.281-.266-.362-.432-.426-.873-.661-2.021-1.186-2.894,1.433-2.473,5.263-5.079,2.72-8.169-.87-1.057-3.431-3.665-4.486-4.475-2.994-2.3-5.642,1.356-7.966,2.814l-3.198-1.292c-.155-.073-.197-.178-.23-.337-.51-2.484.159-6.179-2.873-7.223-1.063-.366-5.533-.31-6.834-.207-4.041.318-3.446,4.679-3.965,7.605-.141.302-1.079.479-1.417.625-.352.152-1.565.802-1.788.833-.246.034-.404-.157-.585-.279-2.253-1.512-4.711-4.866-7.67-2.43-1.057.87-3.665,3.431-4.475,4.486-2.253,2.933,1.223,5.571,2.731,7.818.123.142.096.24.056.403-.087.353-.617,1.272-.803,1.704-.146.338-.323,1.276-.625,1.417-2.558.543-6.418-.114-7.428,3.008-.338,1.044-.278,5.474-.177,6.75.324,4.115,4.597,3.337,7.43,3.913.196.04.295.12.385.296l1.244,3.132c-1.458,2.323-5.114,4.972-2.814,7.966.722.94,3.595,3.822,4.532,4.543,3.128,2.406,5.64-1.342,8.112-2.777.886.518,2.006.754,2.894,1.185.166.081.374.164.431.363.473,2.885-.111,6.713,3.538,7.522h6.579c3.647-.805,3.067-4.643,3.538-7.522l.212-.241,3.198-1.292c2.324,1.458,4.972,5.114,7.966,2.814.981-.754,3.709-3.493,4.486-4.475,2.514-3.175-1.266-5.645-2.72-8.169.524-.873.76-2.021,1.186-2.894.081-.166.162-.374.362-.432,2.885-.468,6.704.103,7.522-3.538v-6.579c-.808-3.649-4.636-3.065-7.522-3.538ZM50.057,62.152c-6.68,0-12.095-5.415-12.095-12.095s5.415-12.095,12.095-12.095,12.095,5.415,12.095,12.095-5.415,12.095-12.095,12.095Z" />
    <path
        d="M50,2.5C23.766,2.5,2.5,23.766,2.5,50s21.266,47.5,47.5,47.5,47.5-21.266,47.5-47.5S76.234,2.5,50,2.5ZM50,90.601c-22.387,0-40.601-18.213-40.601-40.601S27.613,9.399,50,9.399s40.601,18.213,40.601,40.601-18.213,40.601-40.601,40.601Z" /></symbol><symbol id="pg-streak" viewBox="0 0 100 100" fill="currentColor"><path
      d="m 60.822073,37.147162 c -4.641942,-4.754484 -6.420827,-11.865685 -4.806148,-18.271661 0.295779,-1.171516 1.096805,-2.644069 1.467318,-3.835585 -0.798918,-0.236829 -1.245219,0.248407 -1.83362,0.41261 -4.897723,1.362031 -10.654364,6.364924 -13.526894,10.566807 -5.131399,7.50697 -6.758709,17.329605 -4.407214,26.137559 0.34104,1.276773 1.629417,3.602967 0.958914,4.763957 -0.02526,0.04316 -0.671556,0.682068 -0.714713,0.708383 -0.475772,0.287353 -1.202061,0.257881 -1.739937,0.158939 -1.177855,-0.217883 -2.609384,-2.637753 -3.137785,-3.693489 -2.040982,-4.075572 -2.719906,-9.311083 -1.657836,-13.781373 0.251569,-1.060994 1.129432,-2.365136 1.245216,-3.516654 -0.213675,-0.216831 -2.005191,1.573599 -2.273603,1.859901 -9.263886,9.867898 -9.661766,27.058563 -0.78313,37.246443 6.89239,7.909053 16.679415,10.242613 27.005369,8.662697 C 71.272233,82.322657 80.694009,67.005576 75.241568,53.109472 72.327986,45.683551 66.689236,41.939539 60.822073,37.146109 Z M 38.925997,69.859108 c -0.561031,-0.51471 -1.329425,-1.014682 -1.205218,-1.850427 5.357706,-0.98521 9.794393,-5.440764 11.284866,-10.63733 1.430477,-4.986051 -0.225255,-7.418552 -1.10312,-12.163564 -0.804182,-4.349243 -0.997858,-8.371135 0.447354,-12.628803 -0.03579,-0.289458 0.517877,-0.218934 0.653661,-0.161045 0.321042,0.135784 2.863059,4.991313 3.604086,5.960737 3.772499,4.936579 10.002805,7.670118 12.025892,14.010835 4.829305,15.133933 -13.508999,28.652162 -25.705414,17.468545 z" />
   <path
      d="m 50.000347,0.00703032 c -27.613769,0 -49.99824749,22.38407368 -49.99824749,49.99734268 0,27.613271 22.38447849,49.997347 49.99824749,49.997347 27.613771,0 49.99825,-22.384076 49.99825,-49.997347 0,-27.613269 -22.384479,-49.99734268 -49.99825,-49.99734268 z m 0,92.73296868 c -23.564437,0 -42.7363966,-19.170563 -42.7363966,-42.735626 0,-23.565061 19.1719596,-42.7356232 42.7363966,-42.7356232 23.564439,0 42.736397,19.1705622 42.736397,42.7356232 0,23.565063 -19.170907,42.735626 -42.736397,42.735626 z" /></symbol><symbol id="pg-world-light" viewBox="0 0 33 33" fill="currentColor"><path
        d="M16 2.32c7.547 0 13.68 6.133 13.68 13.68s-6.133 13.68-13.68 13.68-13.68-6.133-13.68-13.68 6.133-13.68 13.68-13.68zM16 0c-8.84 0-16 7.16-16 16s7.16 16 16 16 16-7.16 16-16-7.16-16-16-16v0zM4.987 16.587c0-0.667 0-1.32 0-1.987 0.013 0.107 0.027 0.213 0.053 0.347 0-0.107 0.027-0.187 0.027-0.28 0-0.547 0.107-1.080 0.24-1.613 0.173-0.72 0.44-1.413 0.773-2.067 0.787-1.547 1.88-2.827 3.293-3.84 1.16-0.827 2.413-1.467 3.787-1.853 0.68-0.187 1.36-0.333 2.053-0.373 0.107 0 0.2-0.027 0.333-0.040-0.053-0.013-0.080-0.027-0.12-0.040 0.627 0 1.253 0 1.893 0-0.107 0-0.213 0.027-0.32 0.027 0.053 0.027 0.107 0.027 0.16 0.040 0.373 0.040 0.747 0.067 1.107 0.133 1.2 0.213 2.32 0.64 3.387 1.227 1.133 0.64 2.133 1.467 2.973 2.44 1.027 1.187 1.72 2.56 2.147 4.080 0.227 0.813 0.373 1.64 0.373 2.493 0 0.147 0.013 0.293 0.027 0.44 0 0.080 0 0.16 0 0.253 0 0.080-0.027 0.16-0.027 0.24 0.013 0.493-0.027 0.987-0.093 1.48-0.107 0.773-0.28 1.533-0.547 2.267-0.64 1.787-1.707 3.28-3.147 4.507-0.787 0.667-1.667 1.187-2.6 1.613-0.907 0.4-1.853 0.693-2.84 0.827-0.28 0.040-0.56 0.080-0.84 0.093-0.48 0.013-0.973 0-1.453 0-0.467 0-0.933-0.053-1.4-0.147-0.867-0.173-1.707-0.427-2.52-0.787-0.973-0.427-1.853-0.987-2.68-1.64-0.747-0.587-1.387-1.293-1.933-2.080-0.773-1.12-1.347-2.333-1.693-3.653-0.16-0.6-0.267-1.213-0.32-1.84-0.013-0.227-0.027-0.467-0.040-0.707 0 0 0 0 0 0-0.013 0.147-0.040 0.28-0.053 0.427zM8.52 9.16s-0.013 0-0.027 0.013c-0.027 0.027-0.053 0.053-0.080 0.080-0.627 0.693-1.133 1.467-1.507 2.32-0.307 0.707-0.547 1.427-0.68 2.187-0.093 0.507-0.16 1.013-0.24 1.52 0 0.080 0 0.12 0.093 0.107 0.107 0 0.227 0 0.333 0 1.133 0 2.267 0 3.413 0 0.053 0 0.107 0 0.147 0 0.133-1.68 0.4-3.32 1.12-4.867-0.24-0.107-0.48-0.213-0.72-0.333-0.44-0.213-0.893-0.427-1.32-0.653-0.187-0.093-0.347-0.24-0.52-0.373zM26.12 15.387s0-0.067 0-0.093c-0.013-0.667-0.133-1.32-0.293-1.973-0.347-1.413-0.947-2.693-1.893-3.813-0.107-0.133-0.227-0.253-0.347-0.373-0.787 0.573-1.653 0.96-2.493 1.387 0.080 0.227 0.173 0.427 0.24 0.64 0.253 0.72 0.453 1.453 0.6 2.2 0.133 0.64 0.253 1.293 0.253 1.947 0 0.067 0.040 0.080 0.093 0.080 1.24 0 2.467 0 3.707 0 0.040 0 0.080 0 0.133 0zM6.053 16.48s0 0.080 0 0.12c0.040 0.387 0.053 0.773 0.12 1.16 0.12 0.8 0.36 1.56 0.68 2.307 0.4 0.92 0.893 1.773 1.6 2.507 0.040 0.040 0.067 0.067 0.133 0.027 0.787-0.44 1.587-0.853 2.413-1.227 0.053-0.027 0.053-0.053 0.040-0.093-0.12-0.347-0.24-0.68-0.36-1.027-0.2-0.613-0.4-1.24-0.52-1.88-0.107-0.587-0.173-1.173-0.173-1.773 0-0.093-0.027-0.107-0.12-0.107-1.24 0-2.467 0-3.707 0-0.027 0-0.067 0-0.107 0zM22.253 16.48c0 0.133 0 0.253 0 0.373-0.053 0.68-0.173 1.347-0.36 2.013-0.213 0.787-0.48 1.56-0.773 2.32-0.027 0.067-0.027 0.107 0.053 0.133 0.147 0.067 0.293 0.16 0.44 0.227 0.667 0.347 1.347 0.64 1.973 1.053 0.053 0.027 0.080 0.013 0.107-0.027 0.24-0.293 0.507-0.573 0.72-0.893 0.427-0.613 0.747-1.28 1.013-1.973 0.387-1 0.64-2.027 0.68-3.107 0-0.133 0-0.133-0.133-0.133-1.213 0-2.427 0-3.627 0-0.027 0-0.067 0-0.107 0zM10.893 15.387s0.080 0 0.107 0c1.44 0 2.867 0 4.307 0 0.040 0 0.093 0 0.133 0 0.067 0 0.093-0.027 0.080-0.093 0-0.080 0-0.147 0-0.227 0-1.080 0-2.173 0-3.253 0-0.067 0-0.107-0.093-0.107-0.533-0.013-1.053-0.107-1.573-0.24-0.627-0.147-1.227-0.387-1.84-0.6-0.080-0.027-0.107 0-0.133 0.067-0.24 0.6-0.453 1.2-0.613 1.827-0.147 0.547-0.253 1.093-0.307 1.653-0.027 0.32-0.040 0.64-0.067 0.96zM21.213 15.387c-0.013-0.293-0.027-0.573-0.053-0.853-0.080-0.667-0.2-1.32-0.373-1.973-0.147-0.547-0.293-1.107-0.547-1.613-0.040-0.080-0.080-0.093-0.16-0.053-0.347 0.133-0.707 0.253-1.067 0.373-0.76 0.253-1.52 0.427-2.32 0.453-0.027 0-0.067 0-0.093 0.013v3.653h4.6zM11.973 20.92c0.6-0.187 1.187-0.387 1.76-0.547 0.56-0.16 1.133-0.253 1.707-0.267 0.080 0 0.080-0.053 0.080-0.107 0-1.133 0-2.28 0-3.413 0-0.080-0.013-0.107-0.107-0.107-1.467 0-2.947 0-4.413 0-0.027 0-0.067 0-0.107 0 0 0.16 0.013 0.307 0.040 0.467 0.067 0.44 0.133 0.867 0.213 1.307 0.147 0.76 0.333 1.52 0.627 2.24 0.067 0.16 0.147 0.307 0.2 0.44zM21.2 16.48h-4.587v3.613c1.24 0.080 2.427 0.347 3.573 0.84 0.253-0.613 0.467-1.24 0.627-1.88 0.227-0.84 0.387-1.693 0.373-2.573zM15.52 20.947c-0.6 0.12-1.173 0.24-1.76 0.373-0.467 0.12-0.933 0.267-1.4 0.4-0.107 0.027-0.107 0.053-0.067 0.16 0.587 1.427 1.307 2.76 2.2 4.013 0.013 0.027 0.067 0.053 0.093 0.053 0.28 0.027 0.547 0.040 0.827 0.053 0.080 0 0.107-0.013 0.107-0.107 0-1.613 0-3.227 0-4.84 0-0.027 0-0.053 0-0.093zM16.613 25.987s0.040 0 0.053 0c0.293-0.013 0.587-0.040 0.893-0.053 0.027 0 0.067-0.027 0.093-0.053 0.133-0.187 0.293-0.373 0.413-0.587 0.387-0.693 0.773-1.4 1.133-2.107 0.24-0.453 0.44-0.92 0.653-1.387 0.027-0.053 0-0.067-0.040-0.080-0.293-0.107-0.573-0.213-0.867-0.307-0.6-0.187-1.227-0.293-1.853-0.36-0.147-0.013-0.293-0.027-0.453-0.040v4.973zM19.867 9.973c-0.040-0.067-0.053-0.12-0.080-0.16-0.307-0.72-0.653-1.427-1.053-2.093-0.347-0.587-0.733-1.147-1.16-1.667-0.027-0.040-0.080-0.067-0.133-0.067-0.2-0.013-0.4-0.027-0.613-0.040-0.067 0-0.147 0-0.213 0v4.76s0.107 0 0.147 0c0.32-0.040 0.653-0.067 0.973-0.107 0.587-0.067 1.16-0.187 1.707-0.413 0.147-0.053 0.28-0.133 0.427-0.213zM15.52 10.72s0-0.080 0-0.107c0-1.48 0-2.973 0-4.453 0-0.053 0-0.107 0-0.147 0-0.027-0.040-0.067-0.067-0.067-0.28 0-0.56 0.013-0.827 0.040-0.040 0-0.093 0.027-0.12 0.067-0.347 0.52-0.707 1.040-1.040 1.573-0.453 0.733-0.84 1.52-1.173 2.32-0.027 0.067-0.027 0.093 0.053 0.12s0.16 0.053 0.24 0.080c0.733 0.24 1.493 0.387 2.267 0.507 0.227 0.040 0.453 0.053 0.693 0.067zM22.867 23.373s-0.040-0.040-0.067-0.053c-0.267-0.16-0.52-0.333-0.8-0.493-0.387-0.213-0.787-0.413-1.187-0.627-0.12-0.067-0.12-0.053-0.173 0.067-0.067 0.173-0.133 0.347-0.2 0.52-0.307 0.827-0.68 1.627-1.187 2.36-0.080 0.12-0.173 0.24-0.267 0.387 1.533-0.32 2.813-1.027 3.867-2.16zM13.16 25.573c-0.24-0.4-0.493-0.8-0.72-1.227-0.347-0.653-0.667-1.32-1-1.987-0.107-0.213-0.107-0.213-0.32-0.107-0.653 0.307-1.253 0.68-1.853 1.080 0 0-0.013 0.027-0.027 0.027 1.173 0.987 2.413 1.84 3.92 2.2zM9.227 8.453c0.64 0.52 1.4 0.813 2.12 1.173 0.467-1.173 1.040-2.28 1.76-3.307-1.453 0.413-2.787 1.040-3.88 2.133zM18.84 6.227s0.027 0.053 0.040 0.067c0.227 0.32 0.467 0.64 0.68 0.973 0.467 0.747 0.853 1.533 1.173 2.347 0.027 0.080 0.067 0.093 0.133 0.053 0.080-0.053 0.173-0.093 0.253-0.133 0.56-0.293 1.133-0.573 1.627-0.973 0.040-0.027 0.080-0.053 0.12-0.093-1.2-1.013-2.52-1.747-4.013-2.227z">
    </path></symbol></defs></svg>