<svg xmlns="http://www.w3.org/2000/svg" style="display:none"><defs><symbol id="ion-android-warning" viewBox="0 0 512 512" fill="currentColor"><g>
        <path
            d="M449.07 399.08L278.64 82.58c-12.08-22.44-44.26-22.44-56.35 0L51.87 399.08A32 32 0 0080 446.25h340.89a32 32 0 0028.18-47.17zm-198.6-1.83a20 20 0 1120-20 20 20 0 01-20 20zm21.72-201.15l-5.74 122a16 16 0 01-32 0l-5.74-121.95a21.73 21.73 0 0121.5-22.69h.21a21.74 21.74 0 0121.73 22.7z">
        </path>
    </g></symbol><symbol id="ion-happy" viewBox="0 0 512 512" fill="currentColor"><g>
        <path
            d="M414.39 97.61A224 224 0 1097.61 414.39 224 224 0 10414.39 97.61zM184 208a24 24 0 11-24 24 23.94 23.94 0 0124-24zm167.67 106.17c-12 40.3-50.2 69.83-95.62 69.83s-83.62-29.53-95.72-69.83a8 8 0 017.83-10.17h175.69a8 8 0 017.82 10.17zM328 256a24 24 0 1124-24 23.94 23.94 0 01-24 24z">
        </path>
    </g></symbol><symbol id="ion-ios-body" viewBox="0 0 512 512" fill="currentColor"><g>
        <circle cx="256" cy="56" r="56"></circle>
        <path
            d="M437 128H75a27 27 0 000 54h101.88c6.91 0 15 3.09 19.58 15 5.35 13.83 2.73 40.54-.57 61.23l-4.32 24.45a.42.42 0 01-.12.35l-34.6 196.81A27.43 27.43 0 00179 511.58a27.06 27.06 0 0031.42-22.29l23.91-136.8S242 320 256 320c14.23 0 21.74 32.49 21.74 32.49l23.91 136.92a27.24 27.24 0 1053.62-9.6L320.66 283a.45.45 0 00-.11-.35l-4.33-24.45c-3.3-20.69-5.92-47.4-.57-61.23 4.56-11.88 12.91-15 19.28-15H437a27 27 0 000-54z">
        </path>
    </g></symbol><symbol id="ion-map" viewBox="0 0 512 512" fill="currentColor"><g>
        <path
            d="M48.17 113.34A32 32 0 0032 141.24V438a32 32 0 0047 28.37c.43-.23.85-.47 1.26-.74l84.14-55.05a8 8 0 003.63-6.72V46.45a8 8 0 00-12.51-6.63zM212.36 39.31A8 8 0 00200 46v357.56a8 8 0 003.63 6.72l96 62.42A8 8 0 00312 466V108.67a8 8 0 00-3.64-6.73zM464.53 46.47a31.64 31.64 0 00-31.5-.88 12.07 12.07 0 00-1.25.74l-84.15 55a8 8 0 00-3.63 6.72v357.46a8 8 0 0012.52 6.63l107.07-73.46a32 32 0 0016.41-28v-296a32.76 32.76 0 00-15.47-28.21z">
        </path>
    </g></symbol><symbol id="ion-sad" viewBox="0 0 512 512" fill="currentColor"><g>
        <path
            d="M414.39 97.61A224 224 0 1097.61 414.39 224 224 0 10414.39 97.61zM184 208a24 24 0 11-24 24 23.94 23.94 0 0124-24zm-23.67 149.83c12-40.3 50.2-69.83 95.62-69.83s83.62 29.53 95.71 69.83a8 8 0 01-7.82 10.17H168.15a8 8 0 01-7.82-10.17zM328 256a24 24 0 1124-24 23.94 23.94 0 01-24 24z">
        </path>
    </g></symbol><symbol id="pg-chevron-down" viewBox="0 0 33 33" fill="currentColor"><path
        d="M0.947 7.32c1.267-1.267 3.307-1.267 4.573 0l10.467 10.467 10.493-10.493c1.267-1.253 3.32-1.253 4.573 0.027 1.253 1.267 1.253 3.293 0 4.56l-12.307 12.307c-1.013 1.507-3.053 1.92-4.56 0.907-0.307-0.2-0.573-0.453-0.787-0.747l-12.453-12.453c-1.267-1.267-1.267-3.307 0-4.573z">
    </path></symbol><symbol id="pg-close" viewBox="0 0 33 33" fill="currentColor"><path
    d="M16 0a16 16 0 1 0 0 32 16 16 0 0 0 0-32zm0 29.7a13.7 13.7 0 1 1 0-27.4 13.7 13.7 0 0 1 0 27.4zm0-25a11.3 11.3 0 1 0 0 22.7 11.3 11.3 0 0 0 0-22.7zm7 15.6c.3.2.3.7 0 1L21.3 23c-.3.3-.8.3-1 0L16 18.8 11.9 23c-.3.3-.8.3-1.1 0L9 21.3a.8.8 0 0 1 0-1l4.2-4.2L9 11.9a.8.8 0 0 1 0-1.1L10.8 9c.3-.3.8-.3 1 0l4.3 4.2L20.3 9c.2-.3.7-.3 1 0l1.7 1.7c.3.3.3.8 0 1L18.8 16l4.2 4.2z" /></symbol><symbol id="pg-pause" viewBox="0 0 100 100" fill="currentColor"><rect x="66.667" y="7.5" width="28.333" height="85" rx="9.45" ry="9.45" />
    <rect x="5" y="7.5" width="28.333" height="85" rx="9.45" ry="9.45" /></symbol><symbol id="pg-play" viewBox="0 0 100 100" fill="currentColor"><path
        d="M81.366,41.052l-26.2-15.127-26.2-15.126c-6.888-3.977-15.498.994-15.498,8.948v60.506c0,7.954,8.61,12.925,15.498,8.948l26.2-15.126,26.2-15.127c6.888-3.977,6.888-13.919,0-17.896Z" /></symbol><symbol id="pg-pray-hands-dark" viewBox="0 0 33 33" fill="currentColor"><path
        d="M16 0c-8.84 0-16 7.16-16 16s7.16 16 16 16 16-7.16 16-16-7.173-16-16-16zM16 29.68c-7.547 0-13.68-6.133-13.68-13.68s6.133-13.68 13.68-13.68 13.68 6.133 13.68 13.68-6.133 13.68-13.68 13.68zM21.467 17.813c0-0.947 0-1.893 0-2.84 0-0.573-0.133-1.12-0.387-1.64-0.907-1.813-1.8-3.627-2.693-5.427-0.053-0.093-0.093-0.187-0.16-0.28-0.2-0.293-0.493-0.413-0.84-0.373-0.36 0.053-0.64 0.253-0.72 0.613-0.093 0.44-0.12 0.893 0.080 1.32 0.853 1.707 1.533 3.493 2.16 5.293 0.067 0.2 0.12 0.4 0.12 0.613 0 1.24 0 2.48 0 3.72 0 0.267-0.147 0.467-0.4 0.56-0.413 0.16-0.813-0.147-0.813-0.613 0-1.107 0-2.213 0-3.32 0-0.107 0-0.213 0-0.32-0.027-0.307-0.267-0.533-0.573-0.56-0.293-0.013-0.56 0.187-0.627 0.467-0.013 0.080-0.013 0.173-0.013 0.267 0 1.587 0 3.187 0 4.773 0 1.333 0.6 2.293 1.773 2.893 1.427 0.733 2.867 1.453 4.293 2.187 0.24-0.173 0.48-0.36 0.707-0.56 0.88-0.893 1.787-1.813 2.32-2.853-0.573-0.28-1.88-0.773-2.427-1.053-1.2-0.6-1.8-1.56-1.8-2.893zM15.613 13.6c0.28 0.187 0.467 0.187 0.747 0 0.227-0.147 0.533-0.187 0.827-0.28-0.387-0.933-0.787-1.88-1.173-2.827h-0.080c-0.387 0.947-0.787 1.893-1.173 2.813 0.293 0.093 0.6 0.133 0.84 0.28zM16 4.653c-6.28 0-11.36 5.080-11.36 11.347 0 1.76 0.4 3.427 1.107 4.907 0.080-0.093 0.2-0.187 0.373-0.267 0.693-0.347 1.387-0.68 2.080-1.027 0.747-0.36 1.107-0.96 1.107-1.773 0-0.96 0-1.92 0-2.88 0-0.747 0.16-1.453 0.493-2.12 0.92-1.84 1.84-3.693 2.747-5.533 0.613-1.267 2.053-1.573 3.053-0.933 0.133 0.080 0.24 0.187 0.387 0.293 0.053-0.040 0.12-0.093 0.187-0.147 0.973-0.813 2.48-0.573 3.107 0.533 0.507 0.893 0.933 1.84 1.4 2.76 0.547 1.093 1.080 2.187 1.613 3.28 0.28 0.587 0.387 1.2 0.387 1.84 0 0.96 0 1.933 0 2.893 0 0.827 0.36 1.427 1.12 1.787 0.667 0.333 1.333 0.667 2.013 0.987 0.173 0.080 0.32 0.133 0.427 0.267 0.72-1.48 1.12-3.107 1.12-4.867 0-6.267-5.080-11.347-11.347-11.347zM15.373 20.28c0.027-1.693 0-3.387 0-5.080 0-0.027 0-0.053 0-0.080-0.040-0.307-0.293-0.533-0.587-0.533s-0.547 0.2-0.613 0.493c-0.013 0.080 0 0.16 0 0.24 0 1.147 0 2.28 0 3.427 0 0.173-0.067 0.36-0.16 0.493-0.133 0.2-0.413 0.24-0.64 0.16-0.253-0.093-0.4-0.307-0.4-0.6 0-1.2 0-2.4 0-3.6 0-0.213 0.040-0.44 0.12-0.653 0.587-1.733 1.213-3.453 2.053-5.067 0.227-0.453 0.293-0.907 0.253-1.387-0.027-0.36-0.213-0.613-0.547-0.76-0.467-0.2-0.933 0-1.187 0.533-0.92 1.84-1.827 3.693-2.747 5.533-0.24 0.493-0.36 1.013-0.36 1.56 0 0.973 0 1.947 0 2.92 0 1.2-0.52 2.12-1.573 2.707-0.547 0.307-1.133 0.573-1.693 0.853-0.067 0.027-0.8 0.467-0.88 0.507 0.533 1.427 1.787 2.32 2.213 2.667 0.227 0.2 0.467 0.387 0.707 0.56 1.453-0.733 2.907-1.467 4.36-2.213 1.080-0.56 1.68-1.453 1.707-2.667zM16.6 23.173c-0.24-0.2-0.4-0.48-0.613-0.733-0.013 0.027-0.040 0.040-0.053 0.067-0.453 0.707-1.067 1.213-1.8 1.573-0.72 0.36-1.427 0.72-2.147 1.093-0.493 0.253-0.987 0.507-1.48 0.747 1.627 0.907 3.493 1.413 5.493 1.413s3.867-0.52 5.493-1.427c-1.253-0.64-2.52-1.267-3.76-1.92-0.413-0.213-0.773-0.52-1.133-0.84z">
    </path></symbol><symbol id="pg-prayer" viewBox="0 0 33 33" fill="currentColor"><path
    d="M16 2.3a13.7 13.7 0 1 1 0 27.4 13.7 13.7 0 0 1 0-27.4zM16 0a16 16 0 1 0 0 32 16 16 0 0 0 0-32zm0 16.1-.9 1.4.1.2 3.6 4.5.4.5c.6 1.1 0 2.2-1.2 2.3H9.4c-.5-.1-1-.4-1-1-.2-.5-.1-1 .3-1.5a2 2 0 0 1 1-.3h4.7V22l-3-2.7-.2-.3c-.6-.7-.7-1.4-.3-2.2l3.8-6.5c.6-1.1 1.8-1.4 2.8-.7.4.3.7.8.8 1.4l.3 2.7v.2l.3-.1 2.6-1.7c.2-.2.5-.3.9-.3.3 0 .6 0 .9.3.2.4.4.8.4 1.3l-.1.5a315.4 315.4 0 0 1-5.8 3.9 1 1 0 0 1-1.1-.4l-.5-.8-.3-.5zm4.6-5a2.3 2.3 0 1 1 .1-4.7c1.2 0 2.3 1 2.3 2.3 0 1.3-1 2.3-2.4 2.3z" /></symbol><symbol id="pg-settings" viewBox="0 0 100 100" fill="currentColor"><path
        d="M71.574,43.229c-.2-.058-.281-.266-.362-.432-.426-.873-.661-2.021-1.186-2.894,1.433-2.473,5.263-5.079,2.72-8.169-.87-1.057-3.431-3.665-4.486-4.475-2.994-2.3-5.642,1.356-7.966,2.814l-3.198-1.292c-.155-.073-.197-.178-.23-.337-.51-2.484.159-6.179-2.873-7.223-1.063-.366-5.533-.31-6.834-.207-4.041.318-3.446,4.679-3.965,7.605-.141.302-1.079.479-1.417.625-.352.152-1.565.802-1.788.833-.246.034-.404-.157-.585-.279-2.253-1.512-4.711-4.866-7.67-2.43-1.057.87-3.665,3.431-4.475,4.486-2.253,2.933,1.223,5.571,2.731,7.818.123.142.096.24.056.403-.087.353-.617,1.272-.803,1.704-.146.338-.323,1.276-.625,1.417-2.558.543-6.418-.114-7.428,3.008-.338,1.044-.278,5.474-.177,6.75.324,4.115,4.597,3.337,7.43,3.913.196.04.295.12.385.296l1.244,3.132c-1.458,2.323-5.114,4.972-2.814,7.966.722.94,3.595,3.822,4.532,4.543,3.128,2.406,5.64-1.342,8.112-2.777.886.518,2.006.754,2.894,1.185.166.081.374.164.431.363.473,2.885-.111,6.713,3.538,7.522h6.579c3.647-.805,3.067-4.643,3.538-7.522l.212-.241,3.198-1.292c2.324,1.458,4.972,5.114,7.966,2.814.981-.754,3.709-3.493,4.486-4.475,2.514-3.175-1.266-5.645-2.72-8.169.524-.873.76-2.021,1.186-2.894.081-.166.162-.374.362-.432,2.885-.468,6.704.103,7.522-3.538v-6.579c-.808-3.649-4.636-3.065-7.522-3.538ZM50.057,62.152c-6.68,0-12.095-5.415-12.095-12.095s5.415-12.095,12.095-12.095,12.095,5.415,12.095,12.095-5.415,12.095-12.095,12.095Z" />
    <path
        d="M50,2.5C23.766,2.5,2.5,23.766,2.5,50s21.266,47.5,47.5,47.5,47.5-21.266,47.5-47.5S76.234,2.5,50,2.5ZM50,90.601c-22.387,0-40.601-18.213-40.601-40.601S27.613,9.399,50,9.399s40.601,18.213,40.601,40.601-18.213,40.601-40.601,40.601Z" /></symbol></defs></svg>