<svg xmlns="http://www.w3.org/2000/svg" style="display:none"><defs><symbol id="pg-chevron-down" viewBox="0 0 33 33" fill="currentColor"><path
        d="M0.947 7.32c1.267-1.267 3.307-1.267 4.573 0l10.467 10.467 10.493-10.493c1.267-1.253 3.32-1.253 4.573 0.027 1.253 1.267 1.253 3.293 0 4.56l-12.307 12.307c-1.013 1.507-3.053 1.92-4.56 0.907-0.307-0.2-0.573-0.453-0.787-0.747l-12.453-12.453c-1.267-1.267-1.267-3.307 0-4.573z">
    </path></symbol><symbol id="pg-relay" viewBox="0 0 33 33" fill="currentColor"><path
        d="M13 18.040c-0.56-0.507-1.133-1-1.693-1.507-0.053-0.040-0.053-0.080-0.027-0.133 0.52-1.013 1.027-2.013 1.533-3.027 0.253-0.493 0.067-1.067-0.413-1.32-0.28-0.16-0.573-0.32-0.853-0.48-0.040-0.027-0.080-0.040-0.12-0.040-0.867-0.187-1.747-0.373-2.613-0.573-0.24-0.053-0.44 0-0.627 0.12-0.6 0.427-1.2 0.867-1.8 1.293-0.173 0.12-0.347 0.24-0.52 0.373-0.267 0.213-0.307 0.627-0.093 0.907 0.227 0.28 0.613 0.347 0.907 0.133 0.653-0.467 1.307-0.947 1.973-1.413 0.053-0.040 0.093-0.040 0.147-0.027 0.36 0.12 0.733 0.227 1.093 0.347 0.093 0.027 0.187 0.053 0.28 0.093-0.040 0.067-0.080 0.133-0.12 0.187-0.52 0.853-1.040 1.693-1.56 2.547-0.24 0.387-0.28 0.8-0.107 1.213 0.133 0.307 0.36 0.52 0.653 0.693 0.813 0.493 1.613 0.987 2.427 1.493 0.053 0.027 0.053 0.067 0.053 0.107-0.040 0.2-0.080 0.413-0.12 0.613-0.147 0.747-0.293 1.493-0.44 2.253-0.080 0.44 0.2 0.853 0.653 0.96 0.413 0.093 0.853-0.173 0.96-0.6 0.040-0.147 0.067-0.293 0.093-0.44 0.2-1.040 0.4-2.080 0.6-3.12 0.053-0.267-0.040-0.48-0.24-0.667zM8 17.4c-0.080-0.107-0.147-0.227-0.227-0.347-0.027 0.040-0.040 0.067-0.067 0.107-0.213 0.333-0.427 0.667-0.627 1-0.027 0.053-0.067 0.067-0.133 0.067-0.827 0-1.667 0-2.493 0-0.453 0-0.827 0.387-0.827 0.84s0.36 0.813 0.84 0.813c0.36 0 0.733 0 1.093 0 0.573 0 1.133 0 1.707 0 0.453 0 0.813-0.2 1.080-0.56 0.24-0.333 0.467-0.667 0.707-1 0.013-0.027 0.027-0.040 0.040-0.067-0.173-0.107-0.333-0.2-0.493-0.307-0.24-0.147-0.44-0.32-0.6-0.547zM13.427 11.6c0.827 0 1.493-0.667 1.493-1.493s-0.667-1.493-1.493-1.493c-0.827 0-1.493 0.667-1.493 1.493s0.667 1.493 1.493 1.493zM15.147 15.24c-0.387 0-0.773 0-1.16 0-0.053 0-0.080-0.013-0.107-0.067-0.107-0.28-0.227-0.547-0.347-0.827-0.067-0.173-0.147-0.333-0.213-0.52-0.013 0.027-0.027 0.040-0.027 0.053-0.227 0.453-0.467 0.907-0.693 1.36-0.013 0.027-0.013 0.080 0 0.107 0.12 0.267 0.24 0.533 0.36 0.8 0.133 0.28 0.347 0.413 0.667 0.413 0.293 0 0.587 0 0.88 0 0-0.067 0.027-0.133 0.053-0.187l0.573-1.133zM15.973 16.573c0.36-0.027 0.627-0.347 0.6-0.693 0-0.147-0.067-0.267-0.147-0.373l-0.533 1.067s0.053 0 0.080 0zM24.84 18.293c-0.56-0.507-1.133-1-1.693-1.507-0.053-0.040-0.053-0.080-0.027-0.133 0.52-1.013 1.027-2.013 1.533-3.027 0.253-0.493 0.067-1.067-0.413-1.32-0.28-0.16-0.573-0.32-0.853-0.48-0.040-0.027-0.080-0.040-0.12-0.040-0.867-0.187-1.747-0.373-2.613-0.573-0.24-0.053-0.44 0-0.627 0.12-0.6 0.427-1.2 0.867-1.8 1.293-0.173 0.12-0.347 0.24-0.52 0.373-0.267 0.213-0.307 0.627-0.093 0.907 0.227 0.28 0.613 0.347 0.907 0.133 0.653-0.467 1.307-0.947 1.973-1.413 0.053-0.040 0.093-0.040 0.147-0.027 0.36 0.12 0.733 0.227 1.093 0.347 0.093 0.027 0.187 0.053 0.28 0.093-0.040 0.067-0.080 0.133-0.12 0.187-0.52 0.853-1.040 1.693-1.56 2.547-0.24 0.387-0.28 0.8-0.107 1.213 0.133 0.307 0.36 0.52 0.653 0.693 0.813 0.493 1.613 0.987 2.427 1.493 0.053 0.027 0.053 0.067 0.053 0.107-0.040 0.2-0.080 0.413-0.12 0.613-0.147 0.747-0.293 1.493-0.44 2.253-0.080 0.44 0.2 0.853 0.653 0.96 0.413 0.093 0.853-0.173 0.96-0.6 0.040-0.147 0.067-0.293 0.093-0.44 0.2-1.040 0.4-2.080 0.6-3.12 0.053-0.267-0.040-0.48-0.24-0.667zM19.84 17.667c-0.080-0.107-0.147-0.227-0.227-0.347-0.027 0.040-0.040 0.067-0.067 0.107-0.213 0.333-0.427 0.667-0.627 1-0.027 0.053-0.067 0.067-0.133 0.067-0.827 0-1.667 0-2.493 0-0.453 0-0.827 0.387-0.827 0.84s0.36 0.813 0.84 0.813c0.36 0 0.733 0 1.093 0 0.573 0 1.133 0 1.707 0 0.453 0 0.813-0.2 1.080-0.56 0.24-0.333 0.467-0.667 0.707-1 0.013-0.027 0.027-0.040 0.040-0.067-0.173-0.107-0.333-0.2-0.493-0.307-0.24-0.147-0.44-0.32-0.6-0.547zM25.267 11.853c0.827 0 1.493-0.667 1.493-1.493s-0.667-1.493-1.493-1.493c-0.827 0-1.493 0.667-1.493 1.493s0.667 1.493 1.493 1.493zM27.747 15.507c-0.64 0-1.28 0-1.907 0-0.053 0-0.080-0.013-0.107-0.067-0.107-0.28-0.227-0.547-0.347-0.827-0.067-0.173-0.147-0.333-0.213-0.52-0.013 0.027-0.027 0.040-0.027 0.053-0.227 0.453-0.467 0.907-0.693 1.36-0.013 0.027-0.013 0.080 0 0.107 0.12 0.267 0.24 0.533 0.36 0.8 0.133 0.28 0.347 0.413 0.667 0.413 0.56 0 1.107 0 1.667 0 0.227 0 0.453 0 0.667 0 0.36-0.027 0.627-0.347 0.6-0.693-0.027-0.36-0.307-0.627-0.68-0.627zM16 0c-8.84 0-16 7.16-16 16s7.16 16 16 16 16-7.16 16-16-7.16-16-16-16zM16 29.68c-7.547 0-13.68-6.133-13.68-13.68s6.133-13.68 13.68-13.68 13.68 6.133 13.68 13.68-6.133 13.68-13.68 13.68zM16.853 14.093c0.093-0.187 0.013-0.413-0.173-0.507-0.053-0.027-0.107-0.040-0.173-0.040-0.133 0-0.267 0.080-0.333 0.213l-1.373 2.747c-0.093 0.187-0.013 0.413 0.173 0.507 0.053 0.027 0.107 0.040 0.173 0.040 0.133 0 0.267-0.080 0.333-0.213l1.373-2.747z">
    </path></symbol></defs></svg>