<svg xmlns="http://www.w3.org/2000/svg" style="display:none"><defs><symbol id="pg-chevron-down"><path
        d="M0.947 7.32c1.267-1.267 3.307-1.267 4.573 0l10.467 10.467 10.493-10.493c1.267-1.253 3.32-1.253 4.573 0.027 1.253 1.267 1.253 3.293 0 4.56l-12.307 12.307c-1.013 1.507-3.053 1.92-4.56 0.907-0.307-0.2-0.573-0.453-0.787-0.747l-12.453-12.453c-1.267-1.267-1.267-3.307 0-4.573z">
    </path></symbol><symbol id="pg-pause"><rect x="66.667" y="7.5" width="28.333" height="85" rx="9.45" ry="9.45" />
    <rect x="5" y="7.5" width="28.333" height="85" rx="9.45" ry="9.45" /></symbol><symbol id="pg-prayer"><path
    d="M16 2.3a13.7 13.7 0 1 1 0 27.4 13.7 13.7 0 0 1 0-27.4zM16 0a16 16 0 1 0 0 32 16 16 0 0 0 0-32zm0 16.1-.9 1.4.1.2 3.6 4.5.4.5c.6 1.1 0 2.2-1.2 2.3H9.4c-.5-.1-1-.4-1-1-.2-.5-.1-1 .3-1.5a2 2 0 0 1 1-.3h4.7V22l-3-2.7-.2-.3c-.6-.7-.7-1.4-.3-2.2l3.8-6.5c.6-1.1 1.8-1.4 2.8-.7.4.3.7.8.8 1.4l.3 2.7v.2l.3-.1 2.6-1.7c.2-.2.5-.3.9-.3.3 0 .6 0 .9.3.2.4.4.8.4 1.3l-.1.5a315.4 315.4 0 0 1-5.8 3.9 1 1 0 0 1-1.1-.4l-.5-.8-.3-.5zm4.6-5a2.3 2.3 0 1 1 .1-4.7c1.2 0 2.3 1 2.3 2.3 0 1.3-1 2.3-2.4 2.3z" /></symbol><symbol id="pg-settings"><path
        d="M71.574,43.229c-.2-.058-.281-.266-.362-.432-.426-.873-.661-2.021-1.186-2.894,1.433-2.473,5.263-5.079,2.72-8.169-.87-1.057-3.431-3.665-4.486-4.475-2.994-2.3-5.642,1.356-7.966,2.814l-3.198-1.292c-.155-.073-.197-.178-.23-.337-.51-2.484.159-6.179-2.873-7.223-1.063-.366-5.533-.31-6.834-.207-4.041.318-3.446,4.679-3.965,7.605-.141.302-1.079.479-1.417.625-.352.152-1.565.802-1.788.833-.246.034-.404-.157-.585-.279-2.253-1.512-4.711-4.866-7.67-2.43-1.057.87-3.665,3.431-4.475,4.486-2.253,2.933,1.223,5.571,2.731,7.818.123.142.096.24.056.403-.087.353-.617,1.272-.803,1.704-.146.338-.323,1.276-.625,1.417-2.558.543-6.418-.114-7.428,3.008-.338,1.044-.278,5.474-.177,6.75.324,4.115,4.597,3.337,7.43,3.913.196.04.295.12.385.296l1.244,3.132c-1.458,2.323-5.114,4.972-2.814,7.966.722.94,3.595,3.822,4.532,4.543,3.128,2.406,5.64-1.342,8.112-2.777.886.518,2.006.754,2.894,1.185.166.081.374.164.431.363.473,2.885-.111,6.713,3.538,7.522h6.579c3.647-.805,3.067-4.643,3.538-7.522l.212-.241,3.198-1.292c2.324,1.458,4.972,5.114,7.966,2.814.981-.754,3.709-3.493,4.486-4.475,2.514-3.175-1.266-5.645-2.72-8.169.524-.873.76-2.021,1.186-2.894.081-.166.162-.374.362-.432,2.885-.468,6.704.103,7.522-3.538v-6.579c-.808-3.649-4.636-3.065-7.522-3.538ZM50.057,62.152c-6.68,0-12.095-5.415-12.095-12.095s5.415-12.095,12.095-12.095,12.095,5.415,12.095,12.095-5.415,12.095-12.095,12.095Z" />
    <path
        d="M50,2.5C23.766,2.5,2.5,23.766,2.5,50s21.266,47.5,47.5,47.5,47.5-21.266,47.5-47.5S76.234,2.5,50,2.5ZM50,90.601c-22.387,0-40.601-18.213-40.601-40.601S27.613,9.399,50,9.399s40.601,18.213,40.601,40.601-18.213,40.601-40.601,40.601Z" /></symbol></defs></svg>