<?xml version="1.0" encoding="UTF-8"?>
<svg id="Layer_1" xmlns="http://www.w3.org/2000/svg" width="100" height="100"
    viewBox="0 0 100 100">
    <path
        d="M49.857,2.516C23.624,2.516,2.357,23.782,2.357,50.016s21.266,47.5,47.5,47.5,47.5-21.266,47.5-47.5S76.091,2.516,49.857,2.516ZM49.857,90.616c-22.387,0-40.601-18.213-40.601-40.601S27.47,9.415,49.857,9.415s40.601,18.213,40.601,40.601-18.213,40.601-40.601,40.601Z" />
    <path
        d="M78.297,65.418c-.55-1.686-1.897-2.661-3.085-3.521-1.063-.769-2.067-1.496-2.452-2.632-.684-3.133-1.155-6.417-1.61-9.593-.453-3.16-.92-6.427-1.6-9.559-.771-3.551-2.44-6.833-4.826-9.491-2.342-2.608-5.281-4.499-8.527-5.492-.04-2.886-1.501-5.234-3.894-6.2-.481-.194-.931-.3-1.367-.403-.168-.04-.339-.08-.515-.126l-.083-.022h-.876l-.071.004c-.627.068-1.458.337-1.979.547-2.377.959-3.835,3.282-3.893,6.142-.372.096-.735.237-1.063.371-5.08,2.074-8.59,5.445-10.731,10.305-1.89,4.29-2.562,9.343-3.211,14.23-.41,3.083-.833,6.27-1.557,9.28-.384,1.139-1.39,1.867-2.454,2.638-1.188.86-2.535,1.835-3.085,3.521-.591,1.813-.337,3.716.697,5.222,1.053,1.533,2.768,2.469,4.706,2.57l12.726.012c.898,3.982,3.901,7.119,7.782,8.07.277.068,1.224.293,1.812.345.125.011.248.015.369.015.139,0,.276-.005.41-.01.199-.007.386-.014.557-.004l.135.008.127-.045c.252-.089.549-.13.863-.174.253-.035.514-.071.783-.135,3.87-.924,6.874-4.062,7.784-8.071l12.694-.012h.032c1.936-.098,3.651-1.03,4.703-2.56,1.038-1.508,1.293-3.415.7-5.233Z" />
</svg>