<svg version="1.1" xmlns="http://www.w3.org/2000/svg" width="32" height="32" viewBox="0 0 33 33">
    <path
        d="M16 2.32c7.547 0 13.68 6.133 13.68 13.68s-6.133 13.68-13.68 13.68-13.68-6.133-13.68-13.68 6.133-13.68 13.68-13.68zM16 0c-8.84 0-16 7.16-16 16s7.16 16 16 16 16-7.16 16-16-7.16-16-16-16v0zM16.067 25.387c-1.547 0-3.080 0-4.627 0-0.427 0-0.573-0.133-0.573-0.56 0-0.947 0-1.907 0-2.853 0.027-1.973 1.573-3.76 3.52-4.080 0.080-0.013 0.187 0 0.267 0.027 0.933 0.4 1.853 0.427 2.787 0 0.2-0.093 0.387-0.040 0.573 0 1.68 0.413 2.947 1.8 3.213 3.507 0.027 0.2 0.040 0.387 0.040 0.587 0 0.947 0 1.893 0 2.84 0 0.36-0.147 0.52-0.52 0.52-1.56 0-3.12 0-4.693 0zM18.8 14.2c-0.013 0.307 0 0.613-0.053 0.92-0.213 1.387-1.4 2.333-2.813 2.293-1.307-0.040-2.467-1.107-2.56-2.44-0.053-0.733-0.12-1.48 0.147-2.2 0.373-1.040 1.387-1.747 2.48-1.787 1.32-0.053 2.587 0.947 2.76 2.347 0.040 0.28 0 0.573 0 0.867 0 0 0.027 0 0.040 0zM13.4 17.187s-0.093 0.053-0.133 0.067c-2.040 0.893-3.16 2.453-3.307 4.68 0 0.173-0.067 0.227-0.24 0.227-0.653 0-1.307 0-1.973 0-0.373 0-0.547-0.173-0.547-0.56 0-0.92 0-1.84 0-2.76 0-2.040 1.467-3.853 3.507-4.24 0.093-0.013 0.213-0.013 0.307 0.013 0.4 0.173 0.813 0.293 1.253 0.307 0.133 0 0.2 0.067 0.213 0.2 0.080 0.76 0.4 1.427 0.893 2 0 0.013 0.013 0.040 0.027 0.067zM18.773 17.187c0.173-0.267 0.347-0.493 0.48-0.733 0.24-0.413 0.373-0.853 0.427-1.32 0-0.12 0.053-0.187 0.187-0.2 0.427 0 0.84-0.133 1.24-0.307 0.093-0.040 0.213-0.040 0.32-0.027 1.92 0.36 3.373 2 3.467 3.96 0.053 1.013 0.027 2.040 0.027 3.053 0 0.347-0.187 0.52-0.533 0.52-0.667 0-1.32 0-1.987 0-0.147 0-0.2-0.053-0.2-0.187-0.027-0.813-0.24-1.6-0.627-2.32-0.6-1.093-1.467-1.867-2.6-2.36-0.067-0.027-0.133-0.053-0.2-0.093zM12.467 7.693c1.32 0 2.48 0.987 2.707 2.293 0.027 0.147 0 0.213-0.16 0.267-1.533 0.48-2.547 1.84-2.56 3.453 0 0.040 0 0.093 0 0.133q0 0.36-0.36 0.32c-1.28-0.173-2.28-1.187-2.373-2.48-0.040-0.533-0.040-1.080 0.027-1.613 0.16-1.36 1.347-2.373 2.733-2.373zM22.453 10.947c0 0.613-0.040 1.213-0.347 1.76-0.453 0.813-1.147 1.293-2.067 1.427-0.293 0.040-0.32 0.027-0.32-0.28 0-1.2-0.413-2.213-1.36-2.973-0.347-0.28-0.787-0.453-1.2-0.653-0.147-0.067-0.2-0.12-0.16-0.293 0.253-1.347 1.467-2.32 2.84-2.253 1.347 0.067 2.467 1.147 2.573 2.507 0.027 0.253 0.027 0.493 0.040 0.747z">
    </path>
</svg>
