<svg version="1.1" xmlns="http://www.w3.org/2000/svg" width="34" height="34" viewBox="0 0 33 33">
    <path
        d="M16 0c-8.84 0-16 7.16-16 16s7.16 16 16 16 16-7.16 16-16-7.16-16-16-16zM16 29.68c-7.547 0-13.68-6.133-13.68-13.68s6.133-13.68 13.68-13.68 13.68 6.133 13.68 13.68-6.133 13.68-13.68 13.68zM21.893 18.133c-1.027 0.2-1.707 0.84-2.053 1.827 0 0.027-0.027 0.053-0.040 0.080-0.080-0.040-0.147-0.080-0.213-0.12-0.693-0.347-1.373-0.693-2.067-1.027-0.067-0.027-0.080-0.067-0.053-0.12 0.027-0.067 0.040-0.147 0.067-0.227 0.107-0.413 0.12-0.813 0.053-1.227-0.053-0.387-0.16-0.76-0.373-1.093-0.107-0.173-0.227-0.347-0.347-0.533 1.267-1.28 2.547-2.56 3.813-3.84 0.027 0.013 0.040 0.027 0.053 0.040 0.52 0.413 1.133 0.6 1.787 0.56 0.813-0.040 1.467-0.4 1.973-1.040 0.387-0.493 0.547-1.053 0.547-1.68 0-0.64-0.227-1.213-0.653-1.707-0.573-0.653-1.293-0.96-2.16-0.907-0.707 0.040-1.32 0.32-1.787 0.853-0.573 0.64-0.827 1.387-0.68 2.253 0.067 0.4 0.227 0.773 0.467 1.107 0.027 0.040 0.080 0.080 0 0.133-1.053 1.053-2.093 2.12-3.147 3.173-0.213 0.213-0.427 0.413-0.627 0.627-0.107-0.080-0.213-0.16-0.32-0.227-0.493-0.32-1.027-0.48-1.613-0.507-0.613-0.040-1.2 0.107-1.733 0.4-0.067 0.040-0.093 0.040-0.133-0.040-0.173-0.36-0.347-0.72-0.533-1.067-0.373-0.76-0.76-1.52-1.147-2.28-0.040-0.080-0.027-0.107 0.040-0.16 0.573-0.427 0.893-1.053 0.96-1.707 0-0.080 0-0.16 0-0.253 0-1.333-1.080-2.413-2.413-2.413s-2.413 1.080-2.413 2.413c0 1.227 0.92 2.24 2.093 2.387 0 0 0 0 0 0 0.040 0 0.080 0 0.133 0.013 0.040 0 0.093 0 0.133 0 0.013 0 0.027 0 0.053 0 0 0 0.013 0 0.027 0 0.040 0 0.067 0 0.107 0 0.187 0 0.36-0.040 0.533-0.080 0.040 0 0.067-0.013 0.107-0.027 0.053 0 0.080 0 0.107 0.053 0.093 0.187 0.187 0.373 0.28 0.56 0.493 0.987 0.987 1.96 1.467 2.947 0.027 0.040 0.013 0.067-0.027 0.107-0.2 0.173-0.373 0.387-0.52 0.613-0.413 0.613-0.587 1.28-0.533 2.013 0.040 0.68 0.293 1.293 0.72 1.827 0.027 0.040 0.027 0.067 0 0.093-0.533 0.533-1.053 1.053-1.587 1.587-0.053 0.053-0.12 0.107-0.187 0.173-0.853-0.6-1.933-0.32-2.453 0.387-0.52 0.68-0.453 1.693 0.16 2.32 0.64 0.653 1.64 0.68 2.293 0.2 0.747-0.533 1.027-1.6 0.4-2.507 0.6-0.6 1.2-1.2 1.8-1.787 1.613 1.333 3.947 0.867 4.947-0.893 0.027 0 0.053 0.027 0.067 0.040 0.787 0.4 1.573 0.787 2.36 1.187 0.053 0.027 0.067 0.053 0.067 0.107 0.013 0.187 0.027 0.387 0.053 0.573 0.24 1.16 1.187 2.067 2.453 2.133 1 0.053 1.8-0.36 2.373-1.173 0.387-0.56 0.52-1.187 0.427-1.867-0.213-1.427-1.56-2.533-3.12-2.24zM20.587 14.227c-0.973 0-1.733 0.787-1.747 1.72-0.013 1.040 0.747 1.813 1.747 1.84 0.987 0.013 1.8-0.773 1.8-1.733s-0.707-1.813-1.8-1.813zM16.413 21.347c-0.8 0-1.733 0.64-1.733 1.787 0 0.973 0.813 1.773 1.787 1.76 0.987 0 1.773-0.8 1.773-1.787 0-0.973-0.813-1.773-1.813-1.76zM17.080 10.067c0.827 0 1.467-0.68 1.453-1.493-0.027-0.84-0.68-1.48-1.493-1.467s-1.467 0.68-1.453 1.48c0 0.853 0.627 1.493 1.507 1.48zM14.067 13.627c0.827 0 1.48-0.64 1.48-1.467 0-0.84-0.64-1.48-1.493-1.493-0.747 0-1.453 0.68-1.467 1.413 0 0.867 0.627 1.533 1.467 1.547zM7.853 18.52c0 0.72 0.613 1.347 1.32 1.347 0.747 0 1.347-0.6 1.347-1.333-0.013-0.76-0.627-1.347-1.373-1.333-0.707 0-1.307 0.613-1.293 1.333zM23.893 12.733c-0.64 0-1.187 0.52-1.2 1.147 0 0.68 0.52 1.213 1.2 1.227 0.6-0.027 1.147-0.467 1.16-1.173 0.013-0.64-0.52-1.187-1.16-1.2z">
    </path>
</svg>
