<svg version="1.1" xmlns="http://www.w3.org/2000/svg" width="32" height="32" viewBox="0 0 33 33">
    <path
        d="M16 2.32c7.547 0 13.68 6.133 13.68 13.68s-6.133 13.68-13.68 13.68-13.68-6.133-13.68-13.68 6.133-13.68 13.68-13.68zM16 0c-8.84 0-16 7.16-16 16s7.16 16 16 16 16-7.16 16-16-7.16-16-16-16v0zM16 4.653c-6.267 0-11.347 5.080-11.347 11.347s5.080 11.347 11.347 11.347 11.347-5.080 11.347-11.347-5.080-11.347-11.347-11.347zM13.227 22.867c-0.4 0.347-1 0.307-1.347-0.093l-0.080-0.093s-0.067-0.053-0.093-0.093l-4.427-5.093c-0.347-0.4-0.307-1 0.093-1.347l1.36-1.187c0.4-0.347 1-0.307 1.347 0.093l2.787 3.2 9.2-8c0.4-0.347 1-0.307 1.347 0.093l1.187 1.36c0.347 0.4 0.307 1-0.093 1.347l-11.28 9.8z">
    </path>
</svg>
