<svg version="1.1" xmlns="http://www.w3.org/2000/svg" width="32" height="32" viewBox="0 0 33 33">
    <path
        d="M16 2.32c7.547 0 13.68 6.133 13.68 13.68s-6.133 13.68-13.68 13.68-13.68-6.133-13.68-13.68 6.133-13.68 13.68-13.68zM16 0c-8.84 0-16 7.16-16 16s7.16 16 16 16 16-7.16 16-16-7.16-16-16-16v0zM5.28 11.053c0.107-0.427 0.28-0.813 0.627-1.093 0.773-0.627 1.853-0.493 2.467 0.307 0.56 0.733 0.4 1.813-0.36 2.387-0.053 0.040-0.093 0.067-0.16 0.12 0.533 1.24 1.2 2.373 2.333 3.16 1.147 0.8 2.387 0.627 3.36-0.427 0.587-0.627 0.987-1.373 1.28-2.173 0.24-0.667 0.427-1.36 0.627-2.040 0-0.027 0-0.053 0-0.093-0.653-0.2-1.147-0.6-1.413-1.227-0.2-0.44-0.227-0.907-0.107-1.373 0.24-0.96 1.133-1.627 2.133-1.613 0.947 0.013 1.827 0.733 2.027 1.667 0.24 1.107-0.267 1.96-1.56 2.56 0.080 0.333 0.16 0.667 0.267 1 0.307 1.067 0.72 2.093 1.413 2.987 0.44 0.56 0.96 1 1.667 1.16 0.733 0.16 1.4-0.053 1.987-0.48 0.867-0.613 1.44-1.44 1.92-2.36 0.107-0.213 0.2-0.427 0.307-0.64 0.053-0.107 0.027-0.147-0.067-0.227-0.76-0.56-0.96-1.467-0.493-2.28 0.347-0.6 1.080-0.933 1.8-0.8 0.653 0.12 1.24 0.707 1.347 1.36 0.16 0.947-0.4 1.787-1.333 1.987-0.12 0.027-0.16 0.080-0.187 0.2-0.52 2.747-1.053 5.507-1.587 8.253 0 0.053-0.027 0.107-0.040 0.173h-0.24c-4.88 0-9.76 0-14.64 0-0.16 0-0.227-0.027-0.253-0.2-0.52-2.747-1.053-5.493-1.573-8.24-0.027-0.12-0.067-0.173-0.173-0.187-0.72-0.16-1.173-0.613-1.347-1.333 0-0.027-0.027-0.067-0.040-0.093 0-0.16 0-0.307 0-0.467zM16 22.44c2.24 0 4.48 0 6.72 0 0.533 0 0.973 0.173 1.253 0.653 0.467 0.813-0.053 1.813-0.973 1.907-0.080 0-0.173 0-0.253 0-4.493 0-8.987 0-13.493 0-0.693 0-1.173-0.333-1.347-0.933-0.227-0.773 0.32-1.56 1.12-1.627 0.107 0 0.227 0 0.333 0 2.213 0 4.427 0 6.64 0z">
    </path>
</svg>
