<?xml version="1.0" encoding="UTF-8"?>
<svg id="Layer_1" xmlns="http://www.w3.org/2000/svg" width="100" height="100"
    viewBox="0 0 100 100">
    <path
        d="M50,2.5C23.766,2.5,2.5,23.766,2.5,50s21.266,47.5,47.5,47.5,47.5-21.266,47.5-47.5S76.234,2.5,50,2.5ZM50,9.399c22.387,0,40.601,18.213,40.601,40.601,0,9.514-3.291,18.273-8.792,25.201l-27.285-52.257-1.583-3.033-2.94-5.631-3.095,5.928-27.196,52.086-1.518,2.907c-5.501-6.929-8.792-15.687-8.792-25.201,0-22.387,18.213-40.601,40.601-40.601ZM26.436,83.044l23.564-50.638h0s23.961,50.348,23.961,50.348c-6.721,4.93-15.006,7.846-23.962,7.846-8.779,0-16.916-2.802-23.564-7.557Z" />
</svg>