<svg version="1.1" xmlns="http://www.w3.org/2000/svg" width="32" height="32" viewBox="0 0 33 33">
    <path
        d="M16 2.32c7.547 0 13.68 6.133 13.68 13.68s-6.133 13.68-13.68 13.68-13.68-6.133-13.68-13.68 6.133-13.68 13.68-13.68zM16 0c-8.84 0-16 7.16-16 16s7.16 16 16 16 16-7.16 16-16-7.16-16-16-16v0zM15.987 11.56c0.187-0.373 0.347-0.773 0.573-1.12 1.16-1.773 2.813-2.653 4.933-2.56 2.573 0.12 4.667 2.040 5.067 4.587 0.173 1.093 0.013 2.173-0.307 3.227-0.413 1.387-1.133 2.6-2 3.747-1.16 1.533-2.493 2.907-3.973 4.147-1.373 1.16-2.8 2.253-4.2 3.373-0.067 0.053-0.12 0.067-0.2 0-1.6-1.293-3.28-2.507-4.813-3.893-1.347-1.227-2.6-2.52-3.653-4.013-0.853-1.213-1.547-2.507-1.88-3.96-0.267-1.173-0.333-2.36 0.080-3.52 0.76-2.093 2.253-3.333 4.467-3.653 2.307-0.333 4.533 0.907 5.56 2.933 0.12 0.227 0.213 0.48 0.307 0.707z">
    </path>
</svg>
