<?xml version="1.0" encoding="UTF-8"?>
<svg id="Layer_1" xmlns="http://www.w3.org/2000/svg" width="100" height="100" viewBox="0 0 100 100">
    <path
        d="M50.042,2.542C23.809,2.542,2.542,23.809,2.542,50.042s21.266,47.5,47.5,47.5,47.5-21.266,47.5-47.5S76.276,2.542,50.042,2.542ZM50.042,90.643c-22.387,0-40.601-18.213-40.601-40.601S27.655,9.442,50.042,9.442s40.601,18.213,40.601,40.601-18.213,40.601-40.601,40.601Z" />
    <path
        d="M49.882,35.479c-1.64,0-2.972.561-3.997,1.682-1.026,1.121-1.537,2.788-1.537,5.002v32.02c0,2.187.512,3.868,1.537,5.044,1.025,1.175,2.357,1.762,3.997,1.762s2.993-.574,4.059-1.722,1.599-2.842,1.599-5.084v-32.348c0-1.995-.533-3.553-1.599-4.674s-2.419-1.682-4.059-1.682Z" />
    <path
        d="M50.005,19.325c-1.504,0-2.822.513-3.957,1.537-1.134,1.026-1.701,2.331-1.701,3.916,0,1.749.553,3.102,1.66,4.059,1.107.957,2.44,1.435,3.998,1.435,1.503,0,2.802-.485,3.895-1.456,1.093-.97,1.64-2.316,1.64-4.038,0-1.776-.56-3.13-1.681-4.059-1.121-.929-2.406-1.394-3.854-1.394Z" />
</svg>