<svg version="1.1" xmlns="http://www.w3.org/2000/svg" width="32" height="32" viewBox="0 0 33 33">
    <path
        d="M11.827 21.213h0.627s0.053-0.013 0.080-0.027c-0.373-0.347-0.747-0.707-1.107-1.053 0.080 0.28 0.173 0.547 0.28 0.813 0.040 0.093 0.080 0.187 0.12 0.267zM27.093 16.173c0-0.147-0.027-0.293-0.027-0.44 0-0.853-0.147-1.68-0.373-2.493-0.427-1.507-1.107-2.893-2.147-4.080-0.307-0.347-0.627-0.68-0.973-1 0.107 0.307 0.16 0.627 0.16 0.96 0 0.213-0.027 0.427-0.067 0.627 0.067 0.067 0.12 0.133 0.187 0.2 0.933 1.12 1.547 2.4 1.893 3.813 0.16 0.653 0.28 1.307 0.293 1.973 0 0.027 0 0.053 0 0.093-0.053 0-0.093 0-0.133 0-1.080 0-2.16 0-3.24 0-0.52 0.347-1.067 0.707-1.64 1.080h0.107c0 0.88-0.16 1.733-0.373 2.573-0.173 0.64-0.387 1.267-0.627 1.88-0.347-0.147-0.693-0.28-1.053-0.387 0.147 0.187 0.293 0.387 0.453 0.573v0.027c0.147 0.16 0.293 0.347 0.427 0.56 0.24 0.387 0.373 0.813 0.4 1.213 0.013-0.040 0.040-0.080 0.053-0.133 0.067-0.173 0.133-0.347 0.2-0.52 0.053-0.12 0.053-0.12 0.173-0.067 0.4 0.2 0.8 0.4 1.187 0.627 0.267 0.147 0.533 0.32 0.8 0.493 0.027 0 0.040 0.027 0.067 0.053-1.053 1.12-2.333 1.84-3.867 2.16 0.093-0.147 0.187-0.267 0.267-0.387 0.093-0.133 0.173-0.267 0.267-0.4-0.347 0.253-0.773 0.413-1.267 0.453-0.053 0-0.107 0-0.16 0-0.013 0.027-0.040 0.067-0.053 0.093-0.12 0.2-0.267 0.387-0.413 0.587-0.013 0.027-0.053 0.053-0.093 0.053-0.293 0.027-0.587 0.040-0.893 0.053-0.013 0-0.027 0-0.053 0v-0.773h-0.067c-0.333 0-0.68 0-1.013 0 0 0.227 0 0.453 0 0.68 0 0.093-0.027 0.107-0.107 0.107-0.28-0.027-0.547-0.040-0.827-0.053-0.040 0-0.080-0.027-0.093-0.053-0.16-0.227-0.307-0.44-0.453-0.667-0.36 0-0.733 0-1.093 0 0.080 0.12 0.147 0.24 0.213 0.36-0.373-0.093-0.733-0.213-1.080-0.36-0.2 0-0.413 0-0.613 0h-0.080c-0.44 0-0.907 0-1.373-0.053 0.533 0.347 1.080 0.653 1.667 0.92 0.813 0.36 1.653 0.613 2.52 0.787 0.467 0.093 0.933 0.147 1.4 0.147 0.48 0 0.973 0 1.453 0 0.28 0 0.56-0.053 0.84-0.093 0.987-0.133 1.933-0.427 2.84-0.827 0.947-0.413 1.827-0.933 2.6-1.613 1.44-1.227 2.507-2.72 3.147-4.507 0.267-0.733 0.44-1.493 0.547-2.267 0.067-0.493 0.107-0.987 0.093-1.48 0-0.080 0.013-0.16 0.027-0.24 0-0.080 0-0.16 0-0.253zM26.053 17.067c-0.040 1.080-0.28 2.107-0.68 3.107-0.267 0.693-0.587 1.36-1.013 1.973-0.213 0.307-0.48 0.587-0.72 0.893-0.027 0.040-0.067 0.053-0.107 0.027-0.627-0.413-1.307-0.707-1.973-1.053-0.147-0.080-0.293-0.16-0.44-0.227-0.067-0.040-0.080-0.067-0.053-0.133 0.293-0.76 0.56-1.533 0.773-2.32 0.173-0.653 0.307-1.333 0.36-2.013 0-0.12 0-0.24 0-0.373 0.040 0 0.080 0 0.107 0 1.213 0 2.427 0 3.627 0 0.133 0 0.133 0 0.133 0.133zM4.96 16.627s0 0 0 0c0 0.24 0.013 0.467 0.040 0.707 0.053 0.627 0.16 1.24 0.32 1.84 0.36 1.32 0.92 2.533 1.693 3.653 0.293 0.413 0.6 0.8 0.947 1.173-0.107-0.493-0.093-0.947 0.067-1.36-0.52-0.64-0.92-1.347-1.24-2.107-0.32-0.747-0.56-1.507-0.68-2.307-0.067-0.387-0.080-0.773-0.12-1.16 0-0.040 0-0.067 0-0.12h0.107c1.24 0 2.467 0 3.707 0 0.093 0 0.12 0.027 0.12 0.107 0 0.6 0.067 1.187 0.173 1.773 0.12 0.64 0.307 1.267 0.52 1.88 0.053 0.173 0.12 0.347 0.173 0.52h0.933s0.107 0 0.107 0c-0.040-0.080-0.080-0.173-0.12-0.267-0.107-0.267-0.2-0.547-0.28-0.813-0.067-0.067-0.147-0.133-0.213-0.2-0.133-0.12-0.24-0.227-0.333-0.347-0.827-0.933-0.947-2.027-0.347-3.080 0.12-0.213 0.24-0.427 0.373-0.653-0.027 0-0.040 0-0.080 0 0.027-0.333 0.040-0.653 0.067-0.96 0.053-0.56 0.173-1.107 0.307-1.653 0.16-0.627 0.373-1.227 0.613-1.827 0.027-0.067 0.053-0.093 0.133-0.067 0.413 0.147 0.84 0.307 1.267 0.44 0.16-0.28 0.333-0.573 0.493-0.853-0.413-0.080-0.813-0.187-1.213-0.32-0.080-0.027-0.16-0.053-0.24-0.080-0.080-0.013-0.067-0.053-0.053-0.12 0.347-0.8 0.72-1.587 1.173-2.32 0.333-0.533 0.693-1.053 1.040-1.573 0.027-0.040 0.080-0.067 0.12-0.067 0.28-0.013 0.56-0.027 0.827-0.040 0.027 0 0.053 0.040 0.067 0.067 0 0.053 0 0.093 0 0.147 0 0.787 0 1.573 0 2.36 0.333-0.147 0.68-0.227 1.053-0.227 0 0 0.027 0 0.040 0v-2.347c0.080 0 0.147 0 0.213 0 0.2 0 0.4 0.013 0.613 0.040 0.040 0 0.107 0.027 0.133 0.067 0.227 0.267 0.427 0.547 0.627 0.827 0.48-0.667 1.227-1.147 2.067-1.28-0.653-0.253-1.32-0.453-2.013-0.573-0.36-0.067-0.747-0.093-1.107-0.133-0.053 0-0.107 0-0.16-0.040h-1.453c-0.12 0.013-0.227 0.027-0.333 0.040-0.707 0.040-1.387 0.187-2.053 0.373-1.373 0.387-2.627 1.027-3.787 1.853-1.413 1.013-2.507 2.293-3.293 3.84-0.333 0.667-0.6 1.347-0.773 2.067-0.133 0.533-0.24 1.067-0.24 1.613 0 0.093 0 0.173-0.027 0.28v1.213zM13.053 6.787c-0.72 1.027-1.293 2.133-1.76 3.307-0.72-0.36-1.48-0.653-2.12-1.173 1.093-1.093 2.427-1.733 3.88-2.133zM5.907 15.747c0.080-0.507 0.147-1.013 0.24-1.52 0.147-0.747 0.373-1.48 0.68-2.187 0.373-0.853 0.867-1.627 1.507-2.32 0.027-0.027 0.053-0.053 0.080-0.080 0 0 0.027 0 0.027-0.013 0.173 0.133 0.333 0.28 0.52 0.373 0.44 0.227 0.88 0.44 1.32 0.653 0.24 0.12 0.48 0.227 0.72 0.333-0.707 1.547-0.973 3.173-1.12 4.867h-0.147c-1.133 0-2.267 0-3.413 0-0.107 0-0.227 0-0.333 0-0.093 0-0.107-0.027-0.093-0.107zM10.48 3.8c4.733-1.893 9.373-1.2 12.907 1.080l-0.427 0.347c-0.36 0.293-0.28 0.88 0.16 1.040 0.56 0.213 1.133 0.44 1.693 0.653l1.693 0.653c0.44 0.173 0.893-0.2 0.827-0.667l-0.56-3.6c-0.067-0.467-0.613-0.68-0.987-0.387l-0.52 0.413c-4.173-2.973-9.853-4-15.68-1.707-3.28 1.293-7.053 5.067-8.333 8.347-1.72 4.4-1.573 8.693-0.107 12.347 0.253 0.627 0.987 0.907 1.6 0.6 0.547-0.267 0.787-0.92 0.56-1.493-1.28-3.213-1.387-7.027 0.267-10.907 1.307-3.067 3.813-5.493 6.92-6.733zM30.827 10.347c-0.227-0.573-0.907-0.827-1.453-0.547l-0.187 0.093c-0.507 0.253-0.72 0.84-0.507 1.36 0.933 2.293 1.267 4.88 0.787 7.587-0.987 5.627-5.44 10.067-11.067 11.027-3.52 0.6-6.867-0.16-9.573-1.84l0.36-0.427c0.307-0.36 0.107-0.92-0.36-1l-1.813-0.32c-0.6-0.107-1.2-0.213-1.813-0.32-0.467-0.080-0.84 0.373-0.68 0.813l1.253 3.467c0.16 0.44 0.747 0.547 1.053 0.187l0.493-0.587c3.12 2.027 7 3 11.12 2.387 6.827-1 12.253-6.36 13.36-13.16 0.507-3.107 0.107-6.067-0.96-8.693zM17.707 10.080s-0.080-0.067-0.12-0.093c-0.333-0.253-0.707-0.373-1.080-0.373-0.627 0-1.24 0.347-1.627 1-1.213 2.093-2.413 4.2-3.613 6.307-0.427 0.747-0.32 1.453 0.24 2.093 0.093 0.093 0.187 0.2 0.28 0.28 0.92 0.88 1.84 1.747 2.76 2.613 0.040 0.040 0.067 0.080 0.12 0.147h-0.333c-0.88 0-1.76 0-2.627 0-0.507 0-1 0-1.507 0v0c-0.387 0-0.76 0.093-1.040 0.36-0.413 0.387-0.493 0.88-0.36 1.413 0.133 0.547 0.547 0.84 1.067 0.907 0.507 0.067 1.013 0.067 1.533 0.067 0.96 0 1.907 0 2.867 0 1.147 0 2.293 0 3.44 0 0.133 0 0.28 0 0.413-0.013 1.187-0.093 1.72-1.16 1.093-2.173-0.107-0.173-0.24-0.347-0.373-0.507-1.147-1.453-2.293-2.907-3.427-4.36-0.040-0.053-0.080-0.16-0.067-0.2 0.24-0.427 0.493-0.853 0.773-1.32 0.093 0.187 0.16 0.333 0.24 0.48 0.147 0.253 0.28 0.52 0.467 0.747 0.2 0.253 0.467 0.373 0.76 0.373 0.107 0 0.213-0.013 0.32-0.040 0.253-0.067 0.52-0.187 0.747-0.333 1.4-0.907 2.8-1.827 4.187-2.76 0.24-0.16 0.44-0.387 0.613-0.613 0.093-0.133 0.147-0.32 0.147-0.493 0-0.44-0.16-0.84-0.44-1.173-0.2-0.253-0.467-0.373-0.787-0.373-0.027 0-0.053 0-0.067 0-0.32 0.013-0.613 0.16-0.88 0.333-0.827 0.547-1.667 1.093-2.493 1.627-0.053 0.040-0.12 0.067-0.187 0.107-0.013-0.067-0.027-0.12-0.027-0.16-0.12-0.893-0.24-1.787-0.373-2.68 0-0.040-0.013-0.067-0.027-0.107-0.28-0.32-0.493-0.68-0.627-1.080zM18.413 9.107c0 1.227 0.987 2.227 2.227 2.24 0 0 0 0 0 0 1.227 0 2.24-0.987 2.24-2.213 0-1.187-1.027-2.24-2.213-2.24 0 0 0 0-0.013 0-1.2 0-2.227 1.027-2.24 2.227z">
    </path>
</svg>
