<svg version="1.1" xmlns="http://www.w3.org/2000/svg" width="32" height="32" viewBox="0 0 32 32">
    <path
        d="M6.333 3.36h19.32c1.642 0 2.973 1.331 2.973 2.973v-0.013c0 1.642-1.331 2.973-2.973 2.973h-19.32c-1.642 0-2.973-1.331-2.973-2.973v0.013c0-1.642 1.331-2.973 2.973-2.973zM6.333 22.693h19.32c1.642 0 2.973 1.331 2.973 2.973v-0.013c0 1.642-1.331 2.973-2.973 2.973h-19.32c-1.642 0-2.973-1.331-2.973-2.973v0.013c0-1.642 1.331-2.973 2.973-2.973zM6.333 13.027h19.32c1.642 0 2.973 1.331 2.973 2.973v-0.013c0 1.642-1.331 2.973-2.973 2.973h-19.32c-1.642 0-2.973-1.331-2.973-2.973v0.013c0-1.642 1.331-2.973 2.973-2.973z">
    </path>
</svg>