<svg version="1.1" xmlns="http://www.w3.org/2000/svg" width="32" height="32" viewBox="0 0 33 33">
    <path
        d="M16 0c-8.84 0-16 7.16-16 16s7.16 16 16 16 16-7.16 16-16-7.173-16-16-16zM16 29.68c-7.547 0-13.68-6.133-13.68-13.68s6.133-13.68 13.68-13.68 13.68 6.133 13.68 13.68-6.133 13.68-13.68 13.68zM21.467 17.813c0-0.947 0-1.893 0-2.84 0-0.573-0.133-1.12-0.387-1.64-0.907-1.813-1.8-3.627-2.693-5.427-0.053-0.093-0.093-0.187-0.16-0.28-0.2-0.293-0.493-0.413-0.84-0.373-0.36 0.053-0.64 0.253-0.72 0.613-0.093 0.44-0.12 0.893 0.080 1.32 0.853 1.707 1.533 3.493 2.16 5.293 0.067 0.2 0.12 0.4 0.12 0.613 0 1.24 0 2.48 0 3.72 0 0.267-0.147 0.467-0.4 0.56-0.413 0.16-0.813-0.147-0.813-0.613 0-1.107 0-2.213 0-3.32 0-0.107 0-0.213 0-0.32-0.027-0.307-0.267-0.533-0.573-0.56-0.293-0.013-0.56 0.187-0.627 0.467-0.013 0.080-0.013 0.173-0.013 0.267 0 1.587 0 3.187 0 4.773 0 1.333 0.6 2.293 1.773 2.893 1.427 0.733 2.867 1.453 4.293 2.187 0.24-0.173 0.48-0.36 0.707-0.56 0.88-0.893 1.787-1.813 2.32-2.853-0.573-0.28-1.88-0.773-2.427-1.053-1.2-0.6-1.8-1.56-1.8-2.893zM15.613 13.6c0.28 0.187 0.467 0.187 0.747 0 0.227-0.147 0.533-0.187 0.827-0.28-0.387-0.933-0.787-1.88-1.173-2.827h-0.080c-0.387 0.947-0.787 1.893-1.173 2.813 0.293 0.093 0.6 0.133 0.84 0.28zM16 4.653c-6.28 0-11.36 5.080-11.36 11.347 0 1.76 0.4 3.427 1.107 4.907 0.080-0.093 0.2-0.187 0.373-0.267 0.693-0.347 1.387-0.68 2.080-1.027 0.747-0.36 1.107-0.96 1.107-1.773 0-0.96 0-1.92 0-2.88 0-0.747 0.16-1.453 0.493-2.12 0.92-1.84 1.84-3.693 2.747-5.533 0.613-1.267 2.053-1.573 3.053-0.933 0.133 0.080 0.24 0.187 0.387 0.293 0.053-0.040 0.12-0.093 0.187-0.147 0.973-0.813 2.48-0.573 3.107 0.533 0.507 0.893 0.933 1.84 1.4 2.76 0.547 1.093 1.080 2.187 1.613 3.28 0.28 0.587 0.387 1.2 0.387 1.84 0 0.96 0 1.933 0 2.893 0 0.827 0.36 1.427 1.12 1.787 0.667 0.333 1.333 0.667 2.013 0.987 0.173 0.080 0.32 0.133 0.427 0.267 0.72-1.48 1.12-3.107 1.12-4.867 0-6.267-5.080-11.347-11.347-11.347zM15.373 20.28c0.027-1.693 0-3.387 0-5.080 0-0.027 0-0.053 0-0.080-0.040-0.307-0.293-0.533-0.587-0.533s-0.547 0.2-0.613 0.493c-0.013 0.080 0 0.16 0 0.24 0 1.147 0 2.28 0 3.427 0 0.173-0.067 0.36-0.16 0.493-0.133 0.2-0.413 0.24-0.64 0.16-0.253-0.093-0.4-0.307-0.4-0.6 0-1.2 0-2.4 0-3.6 0-0.213 0.040-0.44 0.12-0.653 0.587-1.733 1.213-3.453 2.053-5.067 0.227-0.453 0.293-0.907 0.253-1.387-0.027-0.36-0.213-0.613-0.547-0.76-0.467-0.2-0.933 0-1.187 0.533-0.92 1.84-1.827 3.693-2.747 5.533-0.24 0.493-0.36 1.013-0.36 1.56 0 0.973 0 1.947 0 2.92 0 1.2-0.52 2.12-1.573 2.707-0.547 0.307-1.133 0.573-1.693 0.853-0.067 0.027-0.8 0.467-0.88 0.507 0.533 1.427 1.787 2.32 2.213 2.667 0.227 0.2 0.467 0.387 0.707 0.56 1.453-0.733 2.907-1.467 4.36-2.213 1.080-0.56 1.68-1.453 1.707-2.667zM16.6 23.173c-0.24-0.2-0.4-0.48-0.613-0.733-0.013 0.027-0.040 0.040-0.053 0.067-0.453 0.707-1.067 1.213-1.8 1.573-0.72 0.36-1.427 0.72-2.147 1.093-0.493 0.253-0.987 0.507-1.48 0.747 1.627 0.907 3.493 1.413 5.493 1.413s3.867-0.52 5.493-1.427c-1.253-0.64-2.52-1.267-3.76-1.92-0.413-0.213-0.773-0.52-1.133-0.84z">
    </path>
</svg>
