<svg version="1.1" xmlns="http://www.w3.org/2000/svg" width="32" height="32" viewBox="0 0 33 33">
    <path
        d="M16 0c-8.84 0-16 7.16-16 16s7.16 16 16 16 16-7.16 16-16-7.16-16-16-16zM16 29.68c-7.547 0-13.68-6.133-13.68-13.68s6.133-13.68 13.68-13.68 13.68 6.133 13.68 13.68-6.133 13.68-13.68 13.68zM15.853 10.893c-1.133 0-2.28 0-3.413 0-0.44 0-0.613 0.173-0.613 0.613 0 0.787 0 1.56 0 2.347 0 0.427 0.187 0.613 0.613 0.613 0.56 0 1.133 0 1.693 0 0.573 0 1.147 0 1.72 0 0.427 0 0.613-0.187 0.627-0.613 0-0.787 0-1.56 0-2.347 0-0.427-0.187-0.613-0.613-0.613zM16 4.653c-6.267 0-11.347 5.080-11.347 11.347s5.080 11.347 11.347 11.347 11.347-5.080 11.347-11.347-5.080-11.347-11.347-11.347zM22.533 20.307c0 0.973-0.48 1.627-1.28 1.84-1.093 0.293-2.107-0.4-2.16-1.52-0.053-1.027-0.027-2.053-0.027-3.093 0-0.813 0-1.627 0-2.44 0-0.947-0.16-1.093-1.093-1.080-0.067 0-0.133 0-0.253 0v0.347c0 1.84 0 3.68 0 5.533 0 0.48 0.067 0.56 0.52 0.653 0.24 0.053 0.36 0.2 0.373 0.427 0.013 0.28 0.013 0.56 0 0.84-0.013 0.293-0.213 0.44-0.56 0.44-1.347 0-2.693 0-4.027 0-1.267 0-2.533 0-3.8 0-0.44 0-0.573-0.133-0.587-0.573 0-0.227 0-0.453 0-0.68 0-0.253 0.133-0.4 0.373-0.453 0.453-0.107 0.507-0.173 0.507-0.667 0-3.107 0-6.227 0-9.333 0-0.733 0.173-0.907 0.893-0.907 1.84 0 3.68 0 5.533 0 0.547 0 0.76 0.227 0.76 0.76 0 0.787 0 1.587 0 2.427 0.2 0 0.4 0 0.587 0 0.973-0.067 1.947 0.613 1.947 1.947 0 1.84 0 3.68 0 5.533 0 0.307 0.027 0.6 0.4 0.693 0.293 0.080 0.547-0.053 0.64-0.347 0.027-0.107 0.067-0.213 0.067-0.32 0-2.173 0-4.333 0-6.507-0.76-0.32-1.133-0.907-1.213-1.707 0-0.12-0.107-0.253-0.2-0.333-0.28-0.213-0.6-0.4-0.893-0.6-0.333-0.227-0.427-0.573-0.227-0.867 0.2-0.307 0.547-0.36 0.907-0.12 0.88 0.573 1.747 1.16 2.613 1.747 0.107 0.067 0.187 0.24 0.187 0.36 0 2.667 0 5.333 0 8z">
    </path>
</svg>
