<?xml version="1.0" encoding="UTF-8"?>
<svg id="Layer_1" xmlns="http://www.w3.org/2000/svg" width="100" height="100" viewBox="0 0 100 100">
    <path
        d="M50,2.5C23.766,2.5,2.5,23.766,2.5,50s21.266,47.5,47.5,47.5,47.5-21.266,47.5-47.5S76.234,2.5,50,2.5ZM50,90.601c-22.387,0-40.601-18.213-40.601-40.601S27.613,9.399,50,9.399s40.601,18.213,40.601,40.601-18.213,40.601-40.601,40.601Z" />
    <path
        d="M75.112,43.598h-18.71v-18.709c0-3.536-2.866-6.402-6.402-6.402h0c-3.536,0-6.402,2.866-6.402,6.402v18.709h-18.709c-3.536,0-6.402,2.866-6.402,6.402h0c0,3.536,2.866,6.402,6.402,6.402h18.709v18.71c0,3.536,2.866,6.402,6.402,6.402h0c3.536,0,6.402-2.866,6.402-6.402v-18.71h18.71c3.536,0,6.402-2.866,6.402-6.402h0c0-3.536-2.866-6.402-6.402-6.402Z" />
</svg>