<svg version="1.1" xmlns="http://www.w3.org/2000/svg" width="32" height="32" viewBox="0 0 33 33">
    <path
        d="M0 16.547c0-0.36 0-0.72 0-1.080 0-0.040 0-0.067 0-0.107 0.027-0.64 0.093-1.267 0.187-1.893 0.227-1.4 0.627-2.747 1.2-4.040 0.867-1.92 2.067-3.6 3.6-5.040 1.227-1.16 2.613-2.107 4.133-2.84 1.88-0.893 3.84-1.387 5.893-1.52 0.147 0 0.28-0.013 0.427-0.027 0.36 0 0.72 0 1.080 0 0.040 0 0.080 0 0.12 0.013 0.973 0.040 1.947 0.16 2.893 0.373 1.973 0.44 3.8 1.24 5.467 2.387 1.4 0.96 2.627 2.107 3.667 3.44 1.2 1.547 2.080 3.24 2.653 5.12 0.36 1.187 0.573 2.4 0.653 3.627 0 0.133 0.013 0.253 0.027 0.387v1.293s0 0.080-0.013 0.12c-0.053 1.080-0.213 2.16-0.48 3.213-0.56 2.16-1.52 4.12-2.893 5.88-0.907 1.147-1.933 2.16-3.107 3.027-1.427 1.053-2.987 1.853-4.68 2.387-1.253 0.4-2.533 0.627-3.84 0.707-0.147 0-0.307 0.027-0.453 0.027h-1.080s-0.067 0-0.093 0c-0.773-0.027-1.533-0.12-2.293-0.253-1.493-0.28-2.907-0.747-4.253-1.427-1.64-0.827-3.093-1.907-4.36-3.24-1.6-1.68-2.787-3.6-3.547-5.787-0.507-1.413-0.787-2.84-0.88-4.307 0-0.147-0.013-0.293-0.027-0.427zM24.6 26.813c3.36-2.587 6.253-7.653 4.867-13.893-1.307-5.867-6.613-10.76-13.48-10.76-6.813 0-11.987 4.707-13.4 10.507-1.453 5.987 1.12 11.28 4.8 14.12 0-0.013 0-0.027 0-0.040 0.040-0.2 0.080-0.413 0.133-0.613 0.267-1.040 0.667-2 1.28-2.88 0.813-1.173 1.893-2.053 3.147-2.72 0.040-0.027 0.080-0.013 0.12 0 0.413 0.227 0.853 0.413 1.293 0.573 1.173 0.413 2.387 0.56 3.627 0.387 1-0.133 1.933-0.467 2.827-0.947 0.093-0.053 0.173-0.053 0.253 0 0.267 0.173 0.547 0.32 0.813 0.507 1.467 0.987 2.533 2.307 3.173 3.96 0.227 0.573 0.4 1.173 0.507 1.773zM16.040 7.8c3.107 0 5.64 2.533 5.68 5.653 0.040 3.147-2.507 5.773-5.72 5.773-3.147 0-5.693-2.6-5.707-5.707 0-3.173 2.56-5.72 5.747-5.72z">
    </path>
</svg>
