<?xml version="1.0" encoding="UTF-8"?>
<svg id="Layer_1" xmlns="http://www.w3.org/2000/svg" width="100" height="100" viewBox="0 0 100 100">
    <path
        d="M61.09,71.93c0-2.814,1.336-5.32,3.405-6.924-.749-.492-1.532-.933-2.295-1.404-.257-.159-.482-.161-.759-.015-2.645,1.399-5.43,2.381-8.404,2.792-3.684.509-7.266.077-10.76-1.165-1.331-.473-2.613-1.056-3.858-1.72-.127-.068-.228-.088-.364-.015-3.717,1.998-6.905,4.603-9.325,8.094-1.811,2.612-3.035,5.487-3.807,8.561-.151.599-.272,1.206-.407,1.809-.008.038-.024.074-.037.116-10.944-8.417-18.564-24.133-14.257-41.91C14.392,22.93,29.757,8.948,49.99,8.948c20.386,0,36.134,14.538,40.013,31.948.722,3.24,1.046,6.371,1.048,9.377,2.559,1.67,4.628,4.029,5.94,6.814.238-1.593.393-3.199.467-4.816.005-.114.027-.227.041-.341v-3.859c-.029-.385-.063-.769-.086-1.154-.225-3.669-.873-7.262-1.943-10.777-1.689-5.549-4.321-10.611-7.883-15.187-3.092-3.972-6.718-7.381-10.876-10.221-4.957-3.386-10.366-5.741-16.22-7.067-2.828-.641-5.693-1.018-8.593-1.123-.122-.004-.244-.027-.366-.04h-3.216c-.418.029-.835.063-1.253.088-6.095.368-11.906,1.852-17.421,4.472-4.541,2.157-8.635,4.976-12.286,8.43-4.54,4.294-8.119,9.28-10.692,14.98-1.732,3.838-2.918,7.841-3.574,12-.295,1.867-.486,3.743-.552,5.632-.004.105-.025.21-.039.315v3.216c.03.426.063.852.089,1.278.257,4.372,1.105,8.627,2.55,12.761,2.268,6.487,5.787,12.21,10.53,17.178,3.764,3.942,8.077,7.153,12.944,9.609,4.007,2.022,8.221,3.435,12.637,4.247,2.258.415,4.532.674,6.827.754.097.003.194.026.291.039h3.216c.451-.03.902-.063,1.353-.09,3.226-.191,6.392-.709,9.499-1.546-.847-1.348-1.346-2.937-1.346-4.644v-19.29Z" />
    <path
        d="M50.109,25.663c-9.468.003-17.078,7.553-17.057,16.971.02,9.238,7.562,16.93,16.922,16.939,9.553.009,17.108-7.811,16.99-17.146-.117-9.248-7.615-16.78-16.855-16.764Z" />
    <path
        d="M94.663,93.846c1.45,0,2.626-1.176,2.626-2.626v-19.29c0-1.45-1.176-2.626-2.626-2.626h-2.242v-5.214c0-5.71-4.645-10.355-10.355-10.355s-10.355,4.645-10.355,10.355v5.214h-1.86c-1.45,0-2.626,1.176-2.626,2.626v19.29c0,1.45,1.176,2.626,2.626,2.626h24.812ZM76.246,64.833c0-3.613,2.611-6.553,5.82-6.553s5.82,2.94,5.82,6.553v4.471h-11.641v-4.471Z" />
</svg>