<svg version="1.1" xmlns="http://www.w3.org/2000/svg" width="32" height="32" viewBox="0 0 33 33">
    <path
        d="M16 0.027c-8.84 0-16 7.173-16 16s7.16 16 16 16 16-7.16 16-16-7.16-16-16-16zM16 29.707c-7.547 0-13.68-6.133-13.68-13.68s6.133-13.667 13.68-13.667 13.68 6.133 13.68 13.68-6.133 13.68-13.68 13.68zM16 4.68c-6.267 0-11.347 5.080-11.347 11.347s5.080 11.347 11.347 11.347 11.347-5.080 11.347-11.347-5.080-11.347-11.347-11.347zM16.987 24.427c-0.347 0.307-0.747 0.453-1.2 0.453s-0.88-0.147-1.227-0.453c-0.347-0.307-0.52-0.72-0.52-1.267 0-0.48 0.173-0.893 0.507-1.213 0.333-0.333 0.747-0.493 1.24-0.493s0.893 0.16 1.213 0.493c0.333 0.333 0.493 0.733 0.493 1.213 0 0.533-0.173 0.96-0.52 1.267zM21.28 13.8c-0.267 0.493-0.573 0.907-0.947 1.267-0.36 0.36-1.013 0.96-1.96 1.8-0.267 0.24-0.467 0.44-0.627 0.627-0.16 0.173-0.28 0.347-0.347 0.493-0.080 0.147-0.133 0.293-0.173 0.453-0.040 0.147-0.107 0.413-0.187 0.787-0.147 0.8-0.6 1.2-1.36 1.2-0.4 0-0.733-0.133-1-0.387-0.267-0.267-0.413-0.653-0.413-1.16 0-0.64 0.093-1.2 0.293-1.667s0.467-0.88 0.787-1.24c0.333-0.36 0.773-0.773 1.333-1.267 0.493-0.427 0.84-0.747 1.067-0.973s0.4-0.467 0.547-0.733c0.147-0.267 0.227-0.56 0.227-0.867 0-0.613-0.227-1.133-0.68-1.547-0.453-0.427-1.040-0.627-1.76-0.627-0.84 0-1.467 0.213-1.853 0.64-0.4 0.427-0.733 1.053-1.013 1.88-0.267 0.867-0.76 1.293-1.48 1.293-0.427 0-0.787-0.147-1.080-0.453s-0.44-0.627-0.44-0.987c0-0.733 0.24-1.467 0.707-2.213s1.147-1.36 2.040-1.853c0.893-0.493 1.947-0.733 3.133-0.733 1.107 0 2.093 0.2 2.933 0.613 0.853 0.413 1.507 0.96 1.973 1.667s0.693 1.467 0.693 2.293c0 0.653-0.133 1.227-0.4 1.707z">
    </path>
</svg>
