<?xml version="1.0" encoding="UTF-8"?>
<svg id="Layer_1" xmlns="http://www.w3.org/2000/svg" width="100" height="100"
    viewBox="0 0 100 100">
    <path
        d="M30.399,36.97c0-2.633.845-5.301,2.536-8.003,1.69-2.702,4.157-4.94,7.4-6.714,3.243-1.773,7.026-2.66,11.349-2.66,4.018,0,7.566.742,10.643,2.224,3.076,1.483,5.452,3.499,7.13,6.049,1.677,2.55,2.515,5.321,2.515,8.315,0,2.356-.478,4.421-1.434,6.194-.956,1.774-2.093,3.305-3.409,4.594-1.316,1.288-3.679,3.457-7.088,6.506-.943.859-1.698,1.615-2.266,2.266-.568.651-.991,1.247-1.268,1.788-.277.541-.492,1.081-.645,1.621s-.381,1.49-.686,2.848c-.527,2.883-2.176,4.324-4.947,4.324-1.441,0-2.654-.471-3.638-1.413-.984-.942-1.476-2.342-1.476-4.199,0-2.328.36-4.344,1.081-6.049.72-1.704,1.677-3.201,2.869-4.49,1.191-1.288,2.799-2.819,4.822-4.594,1.774-1.552,3.056-2.723,3.846-3.513s1.455-1.669,1.995-2.64c.541-.97.811-2.023.811-3.159,0-2.217-.825-4.088-2.473-5.613-1.649-1.524-3.777-2.286-6.382-2.286-3.049,0-5.294.769-6.735,2.307-1.442,1.538-2.661,3.804-3.659,6.797-.943,3.133-2.73,4.698-5.363,4.698-1.552,0-2.862-.547-3.929-1.642-1.067-1.095-1.6-2.279-1.6-3.554ZM50.687,82.534c-1.691,0-3.167-.548-4.428-1.642-1.262-1.094-1.891-2.625-1.891-4.594,0-1.746.609-3.215,1.829-4.407,1.219-1.191,2.716-1.788,4.49-1.788,1.746,0,3.215.597,4.407,1.788,1.191,1.192,1.788,2.661,1.788,4.407,0,1.94-.624,3.465-1.871,4.573-1.247,1.109-2.688,1.663-4.324,1.663Z" />
    <path
        d="M50.042,9.442c22.387,0,40.601,18.213,40.601,40.601s-18.213,40.601-40.601,40.601S9.442,72.43,9.442,50.042,27.655,9.442,50.042,9.442M50.042,2.542C23.809,2.542,2.542,23.809,2.542,50.042s21.266,47.5,47.5,47.5,47.5-21.266,47.5-47.5S76.276,2.542,50.042,2.542h0Z" />
</svg>