<svg version="1.1" xmlns="http://www.w3.org/2000/svg" width="32" height="32" viewBox="0 0 33 33">
    <path
        d="M20.72 12.64c-0.040-0.173-0.093-0.347-0.147-0.52 0.027 0.227 0 0.453-0.027 0.667 0.080 0.027 0.16 0.067 0.24 0.12-0.027-0.093-0.040-0.173-0.067-0.267zM16.653 21.627l0.040-0.24s0.013-0.080 0.027-0.12c-0.067-0.040-0.12-0.080-0.187-0.107v1.053c0.040-0.187 0.080-0.387 0.107-0.573zM27.093 15.8c0-0.147-0.027-0.293-0.027-0.44 0-0.853-0.147-1.68-0.373-2.493-0.427-1.507-1.107-2.893-2.147-4.080-0.4-0.467-0.827-0.88-1.293-1.267 0.080 0.28 0.133 0.56 0.133 0.867 0 0.36-0.067 0.72-0.187 1.053 0.107-0.067 0.213-0.147 0.32-0.213 0.12 0.12 0.227 0.24 0.347 0.373 0.933 1.12 1.547 2.4 1.893 3.813 0.16 0.653 0.28 1.307 0.293 1.973 0 0.027 0 0.053 0 0.093-0.053 0-0.093 0-0.133 0-0.173 0-0.36 0-0.533 0 0.2 0.28 0.333 0.613 0.347 0.973 0 0.040 0 0.080 0 0.107 0.067 0 0.133 0 0.2 0 0.133 0 0.133 0 0.133 0.133-0.040 1.080-0.28 2.107-0.68 3.107-0.267 0.693-0.587 1.36-1.013 1.973-0.213 0.307-0.48 0.587-0.72 0.893-0.027 0.040-0.067 0.053-0.107 0.027-0.627-0.413-1.307-0.707-1.973-1.053-0.147-0.080-0.293-0.16-0.44-0.227-0.067-0.040-0.080-0.067-0.053-0.133 0.293-0.76 0.56-1.533 0.773-2.32 0.053-0.187 0.093-0.387 0.133-0.573h-0.333c-0.227 0-0.453 0-0.693 0-0.053 0.253-0.12 0.507-0.187 0.76 0 0.027-0.013 0.067-0.027 0.093 0.28 0.413 0.387 0.893 0.293 1.4-0.107 0.547-0.213 1.093-0.307 1.64 0.013 0 0.027 0.013 0.053 0.027 0.4 0.2 0.8 0.4 1.187 0.627 0.267 0.147 0.533 0.32 0.8 0.493 0.027 0 0.040 0.027 0.067 0.053-0.76 0.813-1.653 1.413-2.653 1.8-0.027 0.147-0.053 0.293-0.093 0.44-0.093 0.347-0.267 0.64-0.507 0.893 0.387-0.12 0.76-0.267 1.12-0.427 0.947-0.413 1.827-0.933 2.6-1.613 1.44-1.227 2.507-2.72 3.147-4.507 0.267-0.733 0.44-1.493 0.547-2.267 0.067-0.493 0.107-0.987 0.093-1.48 0-0.080 0.013-0.16 0.027-0.24 0-0.080 0-0.16 0-0.253zM16.040 24.787c0.133-0.747 0.293-1.493 0.427-2.227 0.027-0.12 0.040-0.24 0.067-0.36v-1.053c-0.187-0.12-0.373-0.227-0.547-0.347-0.293-0.187-0.587-0.36-0.893-0.547 0 0 0 0.027-0.013 0.040v0.027s-0.067 0.080-0.093 0.12c-0.093 0.133-0.187 0.267-0.28 0.4s-0.187 0.253-0.28 0.387c0.333-0.067 0.68-0.133 1.013-0.213 0 0.040 0 0.067 0 0.093 0 1.613 0 3.227 0 4.84 0 0.093-0.027 0.107-0.107 0.107-0.28-0.027-0.547-0.040-0.827-0.053-0.040 0-0.080-0.027-0.093-0.053-0.693-0.973-1.293-2.013-1.8-3.093-0.28 0.093-0.573 0.147-0.88 0.147-0.027 0-0.053 0-0.080 0 0.227 0.467 0.467 0.947 0.707 1.413 0.227 0.427 0.48 0.827 0.72 1.227-1.493-0.373-2.733-1.227-3.92-2.2 0 0 0.013-0.027 0.027-0.027 0.2-0.133 0.413-0.267 0.613-0.4h-0.373s-0.107 0-0.107 0c-0.16 0-0.307 0-0.467 0s-0.333 0-0.493 0c-0.2 0-0.387 0-0.587 0-0.133 0-0.267-0.013-0.387-0.040 0.453 0.56 0.947 1.080 1.52 1.533 0.827 0.653 1.72 1.213 2.68 1.64 0.813 0.36 1.653 0.613 2.52 0.787 0.467 0.093 0.933 0.147 1.4 0.147 0.48 0 0.973 0 1.453 0 0.093 0 0.2 0 0.293-0.027-0.893-0.373-1.413-1.293-1.24-2.267zM20.787 12.907c0.133 0.093 0.24 0.227 0.307 0.387l0.093 0.227 0.2 0.493 0.12 0.307c0.053 0.133 0.107 0.267 0.173 0.4 0.133 0 0.253 0 0.387 0-0.040-0.427-0.12-0.853-0.213-1.267-0.147-0.747-0.347-1.48-0.6-2.187-0.28 0.080-0.573 0.133-0.867 0.133 0 0-0.013 0-0.027 0 0.107 0.227 0.187 0.48 0.2 0.733 0.053 0.173 0.093 0.347 0.147 0.52 0.027 0.093 0.040 0.173 0.067 0.267zM6.493 19.387c-0.173-0.507-0.307-1.027-0.4-1.56-0.067-0.387-0.080-0.773-0.12-1.16 0-0.040 0-0.067 0-0.12h0.107c1.24 0 2.467 0 3.707 0 0.093 0 0.12 0.027 0.12 0.107 0 0.6 0.067 1.187 0.173 1.773 0.027 0.16 0.067 0.32 0.107 0.467 0.253 0 0.493 0 0.747 0 0.067-0.107 0.133-0.213 0.2-0.32-0.013-0.093-0.040-0.173-0.053-0.267-0.080-0.427-0.147-0.867-0.213-1.307-0.027-0.147-0.027-0.307-0.040-0.467 0.040 0 0.080 0 0.107 0 0.467 0 0.92 0 1.387 0 0.053-0.347 0.187-0.68 0.387-1.013 0.013-0.027 0.027-0.040 0.040-0.067-0.6 0-1.213 0-1.813 0-0.027 0-0.053 0-0.107 0 0.027-0.307 0.040-0.6 0.067-0.893-0.16 0.053-0.333 0.080-0.507 0.080-0.133 0-0.267-0.013-0.4-0.040-0.027 0.293-0.067 0.587-0.080 0.88h-0.147c-1.133 0-2.267 0-3.413 0-0.107 0-0.227 0-0.333 0-0.093 0-0.107-0.027-0.093-0.107 0.080-0.507 0.147-1.013 0.24-1.52 0.147-0.747 0.373-1.48 0.68-2.187 0.373-0.853 0.867-1.627 1.507-2.32 0.027-0.027 0.053-0.053 0.080-0.080 0 0 0.027 0 0.027-0.013 0.173 0.133 0.333 0.28 0.52 0.373 0.44 0.227 0.88 0.44 1.32 0.653 0.107 0.053 0.213 0.093 0.307 0.147 0.64-0.453 1.28-0.92 1.92-1.373 0.067-0.053 0.147-0.093 0.227-0.133 0.2-0.413 0.413-0.813 0.653-1.2 0.333-0.533 0.693-1.053 1.040-1.573 0.027-0.040 0.080-0.067 0.12-0.067 0.28-0.013 0.56-0.027 0.827-0.040 0.027 0 0.053 0.040 0.067 0.067 0 0.053 0 0.093 0 0.147 0 0.92 0 1.853 0 2.773 0.36 0.080 0.733 0.16 1.093 0.24v-3.213c0.080 0 0.147 0 0.213 0 0.2 0 0.4 0.013 0.613 0.040 0.040 0 0.107 0.027 0.133 0.067 0.147 0.187 0.293 0.373 0.427 0.56 0.4-0.587 1.013-1.027 1.733-1.2-0.48-0.16-0.973-0.293-1.48-0.387-0.36-0.067-0.747-0.093-1.107-0.133-0.053 0-0.107 0-0.16-0.040 0.107 0-1.507 0-1.453 0-0.12 0-0.227 0.027-0.333 0.040-0.707 0.040-1.387 0.187-2.053 0.373-1.373 0.387-2.627 1.027-3.787 1.853-1.413 1.013-2.507 2.293-3.293 3.84-0.333 0.667-0.6 1.347-0.773 2.067-0.133 0.533-0.24 1.067-0.24 1.613 0 0.093 0 0.173-0.027 0.28-0.013-0.12-0.040-0.24-0.053-0.347v1.987c0.013-0.147 0.040-0.28 0.053-0.427 0 0 0 0 0 0 0 0.24 0.013 0.467 0.040 0.707 0.053 0.627 0.16 1.24 0.32 1.84 0.147 0.533 0.32 1.053 0.533 1.56 0.093-0.307 0.267-0.587 0.493-0.827 0.040-0.040 0.093-0.093 0.147-0.133zM13.053 6.4c-0.72 1.027-1.293 2.133-1.76 3.307-0.72-0.36-1.48-0.653-2.12-1.173 1.093-1.093 2.427-1.733 3.88-2.133zM10.48 3.413c4.733-1.893 9.373-1.2 12.907 1.080l-0.427 0.347c-0.36 0.293-0.28 0.88 0.16 1.040 0.56 0.213 1.133 0.44 1.693 0.653l1.693 0.653c0.44 0.173 0.893-0.2 0.827-0.667l-0.56-3.6c-0.067-0.467-0.613-0.68-0.987-0.387l-0.52 0.413c-4.173-2.96-9.853-3.987-15.68-1.693-3.28 1.28-7.053 5.053-8.333 8.333-1.72 4.4-1.573 8.693-0.107 12.347 0.253 0.627 0.987 0.907 1.6 0.6 0.547-0.267 0.787-0.92 0.56-1.493-1.28-3.213-1.387-7.027 0.267-10.907 1.307-3.067 3.813-5.493 6.92-6.733zM30.827 9.96c-0.227-0.573-0.907-0.827-1.453-0.547l-0.187 0.093c-0.507 0.253-0.72 0.84-0.507 1.36 0.933 2.293 1.267 4.88 0.787 7.587-0.987 5.627-5.44 10.067-11.067 11.027-3.52 0.6-6.867-0.16-9.573-1.84l0.36-0.427c0.307-0.36 0.107-0.92-0.36-1l-1.813-0.32c-0.6-0.107-1.2-0.213-1.813-0.32-0.467-0.080-0.84 0.373-0.68 0.813l1.253 3.467c0.16 0.44 0.747 0.547 1.053 0.187l0.493-0.587c3.12 2.027 7 3 11.12 2.387 6.827-1 12.253-6.36 13.36-13.16 0.507-3.107 0.107-6.067-0.96-8.693zM17.64 20.773c0.067 0.040 0.080 0.080 0.067 0.16-0.053 0.28-0.107 0.573-0.173 0.853-0.2 1.053-0.413 2.107-0.613 3.16-0.12 0.627 0.293 1.2 0.92 1.347 0.080 0.013 0.16 0.027 0.24 0.027 0.507 0 0.973-0.347 1.12-0.867 0.053-0.2 0.080-0.413 0.12-0.613 0.28-1.467 0.56-2.92 0.84-4.387 0.067-0.373-0.053-0.68-0.333-0.933-0.8-0.707-1.587-1.413-2.387-2.107-0.067-0.067-0.080-0.107-0.040-0.187 0.72-1.413 1.44-2.827 2.16-4.253 0.347-0.693 0.093-1.493-0.573-1.867-0.4-0.227-0.8-0.44-1.2-0.667-0.053-0.027-0.107-0.053-0.173-0.067-1.227-0.267-2.453-0.533-3.68-0.8-0.093-0.027-0.173-0.027-0.267-0.027-0.227 0-0.427 0.067-0.613 0.213-0.84 0.6-1.693 1.213-2.533 1.813-0.24 0.173-0.493 0.333-0.733 0.52-0.387 0.307-0.44 0.88-0.133 1.267 0.187 0.24 0.453 0.373 0.733 0.373 0.187 0 0.373-0.053 0.547-0.173 0.92-0.653 1.84-1.32 2.76-1.987 0.040-0.027 0.080-0.040 0.12-0.040 0.027 0 0.053 0 0.080 0.013 0.507 0.16 1.027 0.32 1.533 0.493 0.133 0.040 0.253 0.080 0.4 0.133-0.067 0.093-0.107 0.173-0.16 0.253-0.733 1.187-1.467 2.387-2.2 3.573-0.333 0.547-0.387 1.12-0.147 1.707 0.173 0.44 0.507 0.733 0.907 0.973 1.147 0.68 2.267 1.387 3.4 2.093zM7.827 22.12c0.187 0 0.387 0 0.573 0 0.32 0 0.64 0 0.96 0 0.040 0 0.067 0 0.107 0 0.413 0 0.813 0 1.227 0 0.36 0 0.707 0 1.067 0 0.64 0 1.147-0.267 1.52-0.787 0.333-0.467 0.667-0.933 1-1.4 0.027-0.027 0.040-0.067 0.067-0.093-0.24-0.147-0.467-0.293-0.693-0.427-0.333-0.2-0.627-0.453-0.84-0.773-0.107-0.16-0.2-0.32-0.307-0.493-0.027 0.053-0.067 0.107-0.093 0.147-0.293 0.467-0.6 0.933-0.893 1.4-0.040 0.080-0.093 0.093-0.187 0.093v0c-0.693 0-1.387 0-2.080 0-0.48 0-0.947 0-1.427 0-0.64 0-1.16 0.533-1.16 1.173s0.52 1.147 1.173 1.147zM18.307 8.387c0 1.16 0.947 2.093 2.093 2.093v0c1.16 0 2.093-0.933 2.093-2.107 0-1.16-0.933-2.093-2.093-2.093v0c-1.16 0-2.107 0.933-2.107 2.093zM23.88 15.613c-0.44 0-0.88 0-1.307 0s-0.92 0-1.373 0v0c-0.080 0-0.107-0.027-0.133-0.093-0.16-0.387-0.32-0.773-0.48-1.147-0.093-0.24-0.2-0.467-0.307-0.72-0.027 0.040-0.040 0.053-0.040 0.067-0.32 0.64-0.64 1.267-0.96 1.907-0.027 0.040-0.013 0.107 0 0.16 0.16 0.373 0.333 0.747 0.507 1.12 0.187 0.387 0.493 0.587 0.92 0.587 0 0 0 0 0 0 0.307 0 0.613 0 0.933 0 0.413 0 0.84 0 1.253 0 0.053 0 0.107 0 0.16 0v0c0.187 0 0.36 0 0.547 0 0.133 0 0.267 0 0.387 0 0.493-0.040 0.867-0.48 0.84-0.973-0.027-0.507-0.44-0.88-0.947-0.88z">
    </path>
</svg>
