<svg version="1.1" xmlns="http://www.w3.org/2000/svg" width="32" height="32" viewBox="0 0 33 33">
    <path
        d="M16 2.32c7.547 0 13.68 6.133 13.68 13.68s-6.133 13.68-13.68 13.68-13.68-6.133-13.68-13.68 6.133-13.68 13.68-13.68zM16 0c-8.84 0-16 7.16-16 16s7.16 16 16 16 16-7.16 16-16-7.16-16-16-16v0zM16 4.653c-6.267 0-11.347 5.080-11.347 11.347s5.080 11.347 11.347 11.347 11.347-5.080 11.347-11.347-5.080-11.347-11.347-11.347zM15.88 24.68c-2.613 0-4.96-1.147-6.56-2.96l6.667-5.773-0.067-8.787c4.827 0.013 8.733 3.933 8.733 8.76s-3.92 8.76-8.76 8.76z">
    </path>
</svg>
