<svg version="1.1" xmlns="http://www.w3.org/2000/svg" width="32" height="32" viewBox="0 0 33 33">
    <path
        d="M16 2.32c7.547 0 13.68 6.133 13.68 13.68s-6.133 13.68-13.68 13.68-13.68-6.133-13.68-13.68 6.133-13.68 13.68-13.68zM16 0c-8.84 0-16 7.16-16 16s7.16 16 16 16 16-7.16 16-16-7.16-16-16-16v0zM16.040 27.093c-6.253-0.067-11.147-5.040-11.12-11.173 0.027-6.24 5.013-11.12 11.16-11.093 6.307 0.027 11.107 5.067 11.107 11.147 0 6.227-5.027 11.093-11.133 11.12zM14.92 13.16s0 0 0 0c0 0.92 0 1.827 0 2.747 0 0.453 0.2 0.8 0.587 1.027 1.053 0.613 2.107 1.227 3.16 1.827 0.547 0.32 1.080 0.627 1.64 0.947 0.427 0.24 0.933 0.2 1.293-0.093s0.507-0.773 0.373-1.213c-0.107-0.333-0.347-0.547-0.64-0.72-1.32-0.76-2.64-1.52-3.96-2.28-0.147-0.080-0.2-0.173-0.2-0.333 0-1.56 0-3.12 0-4.68 0-0.64-0.507-1.16-1.133-1.16-0.6 0-1.147 0.52-1.133 1.16 0.013 0.92 0 1.853 0 2.773z">
    </path>
</svg>
