<svg version="1.1" xmlns="http://www.w3.org/2000/svg" width="32" height="32" viewBox="0 0 33 33">
    <path
        d="M16 2.32c7.547 0 13.68 6.133 13.68 13.68s-6.133 13.68-13.68 13.68-13.68-6.133-13.68-13.68 6.133-13.68 13.68-13.68zM16 0c-8.84 0-16 7.16-16 16s7.16 16 16 16 16-7.16 16-16-7.16-16-16-16v0zM4.987 16.587c0-0.667 0-1.32 0-1.987 0.013 0.107 0.027 0.213 0.053 0.347 0-0.107 0.027-0.187 0.027-0.28 0-0.547 0.107-1.080 0.24-1.613 0.173-0.72 0.44-1.413 0.773-2.067 0.787-1.547 1.88-2.827 3.293-3.84 1.16-0.827 2.413-1.467 3.787-1.853 0.68-0.187 1.36-0.333 2.053-0.373 0.107 0 0.2-0.027 0.333-0.040-0.053-0.013-0.080-0.027-0.12-0.040 0.627 0 1.253 0 1.893 0-0.107 0-0.213 0.027-0.32 0.027 0.053 0.027 0.107 0.027 0.16 0.040 0.373 0.040 0.747 0.067 1.107 0.133 1.2 0.213 2.32 0.64 3.387 1.227 1.133 0.64 2.133 1.467 2.973 2.44 1.027 1.187 1.72 2.56 2.147 4.080 0.227 0.813 0.373 1.64 0.373 2.493 0 0.147 0.013 0.293 0.027 0.44 0 0.080 0 0.16 0 0.253 0 0.080-0.027 0.16-0.027 0.24 0.013 0.493-0.027 0.987-0.093 1.48-0.107 0.773-0.28 1.533-0.547 2.267-0.64 1.787-1.707 3.28-3.147 4.507-0.787 0.667-1.667 1.187-2.6 1.613-0.907 0.4-1.853 0.693-2.84 0.827-0.28 0.040-0.56 0.080-0.84 0.093-0.48 0.013-0.973 0-1.453 0-0.467 0-0.933-0.053-1.4-0.147-0.867-0.173-1.707-0.427-2.52-0.787-0.973-0.427-1.853-0.987-2.68-1.64-0.747-0.587-1.387-1.293-1.933-2.080-0.773-1.12-1.347-2.333-1.693-3.653-0.16-0.6-0.267-1.213-0.32-1.84-0.013-0.227-0.027-0.467-0.040-0.707 0 0 0 0 0 0-0.013 0.147-0.040 0.28-0.053 0.427zM8.52 9.16s-0.013 0-0.027 0.013c-0.027 0.027-0.053 0.053-0.080 0.080-0.627 0.693-1.133 1.467-1.507 2.32-0.307 0.707-0.547 1.427-0.68 2.187-0.093 0.507-0.16 1.013-0.24 1.52 0 0.080 0 0.12 0.093 0.107 0.107 0 0.227 0 0.333 0 1.133 0 2.267 0 3.413 0 0.053 0 0.107 0 0.147 0 0.133-1.68 0.4-3.32 1.12-4.867-0.24-0.107-0.48-0.213-0.72-0.333-0.44-0.213-0.893-0.427-1.32-0.653-0.187-0.093-0.347-0.24-0.52-0.373zM26.12 15.387s0-0.067 0-0.093c-0.013-0.667-0.133-1.32-0.293-1.973-0.347-1.413-0.947-2.693-1.893-3.813-0.107-0.133-0.227-0.253-0.347-0.373-0.787 0.573-1.653 0.96-2.493 1.387 0.080 0.227 0.173 0.427 0.24 0.64 0.253 0.72 0.453 1.453 0.6 2.2 0.133 0.64 0.253 1.293 0.253 1.947 0 0.067 0.040 0.080 0.093 0.080 1.24 0 2.467 0 3.707 0 0.040 0 0.080 0 0.133 0zM6.053 16.48s0 0.080 0 0.12c0.040 0.387 0.053 0.773 0.12 1.16 0.12 0.8 0.36 1.56 0.68 2.307 0.4 0.92 0.893 1.773 1.6 2.507 0.040 0.040 0.067 0.067 0.133 0.027 0.787-0.44 1.587-0.853 2.413-1.227 0.053-0.027 0.053-0.053 0.040-0.093-0.12-0.347-0.24-0.68-0.36-1.027-0.2-0.613-0.4-1.24-0.52-1.88-0.107-0.587-0.173-1.173-0.173-1.773 0-0.093-0.027-0.107-0.12-0.107-1.24 0-2.467 0-3.707 0-0.027 0-0.067 0-0.107 0zM22.253 16.48c0 0.133 0 0.253 0 0.373-0.053 0.68-0.173 1.347-0.36 2.013-0.213 0.787-0.48 1.56-0.773 2.32-0.027 0.067-0.027 0.107 0.053 0.133 0.147 0.067 0.293 0.16 0.44 0.227 0.667 0.347 1.347 0.64 1.973 1.053 0.053 0.027 0.080 0.013 0.107-0.027 0.24-0.293 0.507-0.573 0.72-0.893 0.427-0.613 0.747-1.28 1.013-1.973 0.387-1 0.64-2.027 0.68-3.107 0-0.133 0-0.133-0.133-0.133-1.213 0-2.427 0-3.627 0-0.027 0-0.067 0-0.107 0zM10.893 15.387s0.080 0 0.107 0c1.44 0 2.867 0 4.307 0 0.040 0 0.093 0 0.133 0 0.067 0 0.093-0.027 0.080-0.093 0-0.080 0-0.147 0-0.227 0-1.080 0-2.173 0-3.253 0-0.067 0-0.107-0.093-0.107-0.533-0.013-1.053-0.107-1.573-0.24-0.627-0.147-1.227-0.387-1.84-0.6-0.080-0.027-0.107 0-0.133 0.067-0.24 0.6-0.453 1.2-0.613 1.827-0.147 0.547-0.253 1.093-0.307 1.653-0.027 0.32-0.040 0.64-0.067 0.96zM21.213 15.387c-0.013-0.293-0.027-0.573-0.053-0.853-0.080-0.667-0.2-1.32-0.373-1.973-0.147-0.547-0.293-1.107-0.547-1.613-0.040-0.080-0.080-0.093-0.16-0.053-0.347 0.133-0.707 0.253-1.067 0.373-0.76 0.253-1.52 0.427-2.32 0.453-0.027 0-0.067 0-0.093 0.013v3.653h4.6zM11.973 20.92c0.6-0.187 1.187-0.387 1.76-0.547 0.56-0.16 1.133-0.253 1.707-0.267 0.080 0 0.080-0.053 0.080-0.107 0-1.133 0-2.28 0-3.413 0-0.080-0.013-0.107-0.107-0.107-1.467 0-2.947 0-4.413 0-0.027 0-0.067 0-0.107 0 0 0.16 0.013 0.307 0.040 0.467 0.067 0.44 0.133 0.867 0.213 1.307 0.147 0.76 0.333 1.52 0.627 2.24 0.067 0.16 0.147 0.307 0.2 0.44zM21.2 16.48h-4.587v3.613c1.24 0.080 2.427 0.347 3.573 0.84 0.253-0.613 0.467-1.24 0.627-1.88 0.227-0.84 0.387-1.693 0.373-2.573zM15.52 20.947c-0.6 0.12-1.173 0.24-1.76 0.373-0.467 0.12-0.933 0.267-1.4 0.4-0.107 0.027-0.107 0.053-0.067 0.16 0.587 1.427 1.307 2.76 2.2 4.013 0.013 0.027 0.067 0.053 0.093 0.053 0.28 0.027 0.547 0.040 0.827 0.053 0.080 0 0.107-0.013 0.107-0.107 0-1.613 0-3.227 0-4.84 0-0.027 0-0.053 0-0.093zM16.613 25.987s0.040 0 0.053 0c0.293-0.013 0.587-0.040 0.893-0.053 0.027 0 0.067-0.027 0.093-0.053 0.133-0.187 0.293-0.373 0.413-0.587 0.387-0.693 0.773-1.4 1.133-2.107 0.24-0.453 0.44-0.92 0.653-1.387 0.027-0.053 0-0.067-0.040-0.080-0.293-0.107-0.573-0.213-0.867-0.307-0.6-0.187-1.227-0.293-1.853-0.36-0.147-0.013-0.293-0.027-0.453-0.040v4.973zM19.867 9.973c-0.040-0.067-0.053-0.12-0.080-0.16-0.307-0.72-0.653-1.427-1.053-2.093-0.347-0.587-0.733-1.147-1.16-1.667-0.027-0.040-0.080-0.067-0.133-0.067-0.2-0.013-0.4-0.027-0.613-0.040-0.067 0-0.147 0-0.213 0v4.76s0.107 0 0.147 0c0.32-0.040 0.653-0.067 0.973-0.107 0.587-0.067 1.16-0.187 1.707-0.413 0.147-0.053 0.28-0.133 0.427-0.213zM15.52 10.72s0-0.080 0-0.107c0-1.48 0-2.973 0-4.453 0-0.053 0-0.107 0-0.147 0-0.027-0.040-0.067-0.067-0.067-0.28 0-0.56 0.013-0.827 0.040-0.040 0-0.093 0.027-0.12 0.067-0.347 0.52-0.707 1.040-1.040 1.573-0.453 0.733-0.84 1.52-1.173 2.32-0.027 0.067-0.027 0.093 0.053 0.12s0.16 0.053 0.24 0.080c0.733 0.24 1.493 0.387 2.267 0.507 0.227 0.040 0.453 0.053 0.693 0.067zM22.867 23.373s-0.040-0.040-0.067-0.053c-0.267-0.16-0.52-0.333-0.8-0.493-0.387-0.213-0.787-0.413-1.187-0.627-0.12-0.067-0.12-0.053-0.173 0.067-0.067 0.173-0.133 0.347-0.2 0.52-0.307 0.827-0.68 1.627-1.187 2.36-0.080 0.12-0.173 0.24-0.267 0.387 1.533-0.32 2.813-1.027 3.867-2.16zM13.16 25.573c-0.24-0.4-0.493-0.8-0.72-1.227-0.347-0.653-0.667-1.32-1-1.987-0.107-0.213-0.107-0.213-0.32-0.107-0.653 0.307-1.253 0.68-1.853 1.080 0 0-0.013 0.027-0.027 0.027 1.173 0.987 2.413 1.84 3.92 2.2zM9.227 8.453c0.64 0.52 1.4 0.813 2.12 1.173 0.467-1.173 1.040-2.28 1.76-3.307-1.453 0.413-2.787 1.040-3.88 2.133zM18.84 6.227s0.027 0.053 0.040 0.067c0.227 0.32 0.467 0.64 0.68 0.973 0.467 0.747 0.853 1.533 1.173 2.347 0.027 0.080 0.067 0.093 0.133 0.053 0.080-0.053 0.173-0.093 0.253-0.133 0.56-0.293 1.133-0.573 1.627-0.973 0.040-0.027 0.080-0.053 0.12-0.093-1.2-1.013-2.52-1.747-4.013-2.227z">
    </path>
</svg>
