<svg version="1.1" xmlns="http://www.w3.org/2000/svg" width="32" height="32" viewBox="0 0 33 33">
    <path
        d="M27.093 15.8c0-0.147-0.027-0.293-0.027-0.44 0-0.853-0.147-1.68-0.373-2.493-0.427-1.507-1.107-2.893-2.147-4.080-0.853-0.987-1.84-1.8-2.973-2.44-1.067-0.6-2.187-1.013-3.387-1.227-0.36-0.067-0.747-0.093-1.107-0.133-0.053 0-0.107 0-0.16-0.040 0.107 0 0.213-0.027 0.32-0.027h-1.893s0.067 0.013 0.12 0.040c-0.12 0-0.227 0.027-0.333 0.040-0.707 0.040-1.387 0.187-2.053 0.373-1.373 0.387-2.627 1.027-3.787 1.853-1.413 1.013-2.507 2.293-3.293 3.84-0.333 0.667-0.6 1.347-0.773 2.067-0.133 0.533-0.24 1.067-0.24 1.613 0 0.093 0 0.173-0.027 0.28-0.013-0.12-0.040-0.24-0.053-0.347v1.987c0.013-0.147 0.040-0.28 0.053-0.427 0 0 0 0 0 0 0 0.24 0.013 0.467 0.040 0.707 0.053 0.627 0.16 1.24 0.32 1.84 0.36 1.32 0.92 2.533 1.693 3.653 0.547 0.787 1.173 1.48 1.933 2.080 0.827 0.653 1.72 1.213 2.68 1.64 0.813 0.36 1.653 0.613 2.52 0.787 0.467 0.093 0.933 0.147 1.4 0.147 0.48 0 0.973 0 1.453 0 0.28 0 0.56-0.053 0.84-0.093 0.987-0.133 1.933-0.427 2.84-0.827 0.947-0.413 1.827-0.933 2.6-1.613 1.44-1.227 2.507-2.72 3.147-4.507 0.267-0.733 0.44-1.493 0.547-2.267 0.067-0.493 0.107-0.987 0.093-1.48 0-0.080 0.013-0.16 0.027-0.24 0-0.080 0-0.16 0-0.253zM15.387 20.187c-0.587 0-1.16 0.107-1.707 0.267-0.587 0.16-1.16 0.36-1.76 0.547-0.067-0.133-0.133-0.28-0.2-0.44-0.293-0.72-0.48-1.48-0.627-2.24-0.080-0.427-0.147-0.867-0.213-1.307-0.027-0.147-0.027-0.307-0.040-0.467 0.040 0 0.080 0 0.107 0 1.467 0 2.947 0 4.413 0 0.093 0 0.107 0.027 0.107 0.107 0 1.133 0 2.28 0 3.413 0 0.053 0 0.107-0.080 0.107zM15.387 15.467s-0.093 0-0.133 0c-1.44 0-2.867 0-4.307 0-0.027 0-0.053 0-0.107 0 0.027-0.333 0.040-0.653 0.067-0.96 0.053-0.56 0.173-1.107 0.307-1.653 0.16-0.627 0.373-1.227 0.613-1.827 0.027-0.067 0.053-0.093 0.133-0.067 0.6 0.213 1.213 0.453 1.84 0.6 0.52 0.12 1.040 0.227 1.573 0.24 0.093 0 0.093 0.053 0.093 0.107 0 1.080 0 2.173 0 3.253 0 0.080 0 0.147 0 0.227 0 0.067-0.013 0.093-0.080 0.093zM13.413 7.707c0.333-0.533 0.693-1.053 1.040-1.573 0.027-0.040 0.080-0.067 0.12-0.067 0.28-0.013 0.56-0.027 0.827-0.040 0.027 0 0.053 0.040 0.067 0.067 0 0.053 0 0.093 0 0.147 0 1.48 0 2.973 0 4.453 0 0.027 0 0.053 0 0.107-0.24-0.027-0.467-0.040-0.693-0.067-0.76-0.12-1.52-0.267-2.267-0.507-0.080-0.027-0.16-0.053-0.24-0.080-0.080-0.013-0.067-0.053-0.053-0.12 0.347-0.8 0.72-1.587 1.173-2.32zM13.067 6.4c-0.72 1.027-1.293 2.133-1.76 3.307-0.72-0.36-1.48-0.653-2.12-1.173 1.093-1.093 2.427-1.733 3.88-2.133zM5.92 15.36c0.080-0.507 0.147-1.013 0.24-1.52 0.147-0.747 0.373-1.48 0.68-2.187 0.373-0.853 0.867-1.627 1.507-2.32 0.027-0.027 0.053-0.053 0.080-0.080 0 0 0.027 0 0.027-0.013 0.173 0.133 0.333 0.28 0.52 0.373 0.44 0.227 0.88 0.44 1.32 0.653 0.24 0.12 0.48 0.227 0.72 0.333-0.707 1.547-0.973 3.173-1.12 4.867h-0.147c-1.133 0-2.267 0-3.413 0-0.107 0-0.227 0-0.333 0-0.093 0-0.107-0.027-0.093-0.107zM8.52 22.667s-0.093 0-0.133-0.027c-0.707-0.733-1.2-1.587-1.6-2.507-0.32-0.747-0.56-1.507-0.68-2.307-0.067-0.387-0.080-0.773-0.12-1.16 0-0.040 0-0.067 0-0.12h0.107c1.24 0 2.467 0 3.707 0 0.093 0 0.12 0.027 0.12 0.107 0 0.6 0.067 1.187 0.173 1.773 0.12 0.64 0.307 1.267 0.52 1.88 0.107 0.347 0.24 0.693 0.36 1.027 0.013 0.053 0.013 0.080-0.040 0.093-0.827 0.373-1.627 0.787-2.413 1.227zM9.2 23.44s0.013-0.027 0.027-0.027c0.6-0.4 1.2-0.773 1.853-1.080 0.213-0.107 0.213-0.107 0.32 0.107 0.333 0.667 0.653 1.333 1 1.987 0.227 0.427 0.48 0.827 0.72 1.227-1.493-0.373-2.733-1.227-3.92-2.2zM15.36 26.067c-0.28-0.027-0.547-0.040-0.827-0.053-0.040 0-0.080-0.027-0.093-0.053-0.893-1.253-1.627-2.587-2.2-4.013-0.040-0.107-0.040-0.12 0.067-0.16 0.467-0.133 0.933-0.28 1.4-0.4 0.573-0.133 1.16-0.24 1.76-0.373 0 0.040 0 0.067 0 0.093 0 1.613 0 3.227 0 4.84 0 0.093-0.027 0.107-0.107 0.107zM23.867 9.587c0.933 1.12 1.547 2.4 1.893 3.813 0.16 0.653 0.28 1.307 0.293 1.973 0 0.027 0 0.053 0 0.093-0.053 0-0.093 0-0.133 0-1.24 0-2.467 0-3.707 0-0.053 0-0.093 0-0.093-0.080 0-0.667-0.12-1.307-0.253-1.947-0.147-0.747-0.347-1.48-0.6-2.2-0.080-0.213-0.16-0.413-0.24-0.64 0.84-0.427 1.707-0.813 2.493-1.387 0.12 0.12 0.227 0.24 0.347 0.373zM16.56 15.467v-3.653s0.053-0.013 0.093-0.013c0.8-0.027 1.573-0.2 2.32-0.453 0.36-0.12 0.707-0.24 1.067-0.373 0.080-0.027 0.12-0.027 0.16 0.053 0.253 0.52 0.4 1.067 0.547 1.613 0.173 0.653 0.293 1.307 0.373 1.973 0.027 0.28 0.040 0.56 0.053 0.853h-4.6zM21.147 16.56c0 0.88-0.16 1.733-0.373 2.573-0.173 0.64-0.387 1.267-0.627 1.88-1.147-0.493-2.333-0.76-3.573-0.84v-3.613h4.587zM22.813 8.533s-0.080 0.067-0.12 0.093c-0.493 0.4-1.067 0.68-1.627 0.973-0.080 0.040-0.173 0.080-0.253 0.133-0.067 0.040-0.093 0.027-0.133-0.053-0.32-0.813-0.707-1.6-1.173-2.347-0.213-0.333-0.453-0.653-0.68-0.973 0 0-0.013-0.027-0.040-0.067 1.507 0.48 2.827 1.213 4.013 2.227zM16.56 6.027c0.080 0 0.147 0 0.213 0 0.2 0 0.4 0.013 0.613 0.040 0.040 0 0.107 0.027 0.133 0.067 0.44 0.52 0.813 1.093 1.16 1.667 0.4 0.667 0.747 1.373 1.053 2.093 0.013 0.040 0.040 0.093 0.080 0.16-0.147 0.067-0.28 0.147-0.427 0.213-0.547 0.227-1.12 0.333-1.707 0.413-0.32 0.040-0.653 0.067-0.973 0.107-0.053 0-0.093 0-0.147 0v-4.76zM17.587 25.96s-0.053 0.053-0.093 0.053c-0.293 0.027-0.587 0.040-0.893 0.053-0.013 0-0.027 0-0.053 0v-4.973c0.16 0.013 0.307 0.027 0.453 0.040 0.627 0.067 1.253 0.173 1.853 0.36 0.293 0.093 0.587 0.2 0.867 0.307 0.040 0.013 0.067 0.027 0.040 0.080-0.213 0.467-0.413 0.933-0.653 1.387-0.36 0.707-0.747 1.4-1.133 2.107-0.12 0.2-0.267 0.387-0.413 0.587zM18.947 25.6c0.093-0.147 0.187-0.267 0.267-0.387 0.507-0.733 0.88-1.52 1.187-2.36 0.067-0.173 0.133-0.347 0.2-0.52 0.053-0.12 0.053-0.12 0.173-0.067 0.4 0.2 0.8 0.4 1.187 0.627 0.267 0.147 0.533 0.32 0.8 0.493 0.027 0 0.040 0.027 0.067 0.053-1.053 1.12-2.333 1.84-3.867 2.16zM26.053 16.68c-0.040 1.080-0.28 2.107-0.68 3.107-0.267 0.693-0.587 1.36-1.013 1.973-0.213 0.307-0.48 0.587-0.72 0.893-0.027 0.040-0.067 0.053-0.107 0.027-0.627-0.4-1.307-0.707-1.973-1.053-0.147-0.080-0.293-0.16-0.44-0.227-0.067-0.040-0.080-0.067-0.053-0.133 0.293-0.76 0.56-1.533 0.773-2.32 0.173-0.653 0.307-1.333 0.36-2.013 0-0.12 0-0.24 0-0.373 0.040 0 0.080 0 0.107 0 1.213 0 2.427 0 3.627 0 0.133 0 0.133 0 0.133 0.133zM10.48 3.413c4.733-1.893 9.373-1.2 12.907 1.080l-0.427 0.347c-0.36 0.293-0.28 0.867 0.16 1.040 0.56 0.213 1.133 0.44 1.693 0.653l1.693 0.653c0.44 0.173 0.893-0.2 0.827-0.667l-0.56-3.6c-0.067-0.467-0.613-0.68-0.987-0.387l-0.52 0.413c-4.173-2.96-9.853-3.987-15.68-1.693-3.28 1.28-7.053 5.053-8.333 8.333-1.72 4.4-1.573 8.693-0.107 12.347 0.253 0.627 0.987 0.907 1.6 0.6 0.547-0.267 0.787-0.92 0.56-1.493-1.28-3.213-1.387-7.027 0.267-10.907 1.307-3.067 3.813-5.493 6.92-6.733zM30.827 9.96c-0.227-0.573-0.907-0.827-1.453-0.547l-0.187 0.093c-0.507 0.253-0.72 0.84-0.507 1.36 0.933 2.293 1.267 4.88 0.787 7.587-0.987 5.627-5.44 10.067-11.067 11.027-3.52 0.6-6.867-0.16-9.573-1.84l0.36-0.427c0.307-0.36 0.107-0.92-0.36-1l-1.813-0.32c-0.6-0.107-1.2-0.213-1.813-0.32-0.467-0.080-0.84 0.373-0.68 0.813l1.253 3.467c0.16 0.44 0.747 0.547 1.053 0.187l0.493-0.587c3.12 2.027 7 3 11.12 2.387 6.827-1 12.253-6.36 13.36-13.16 0.507-3.107 0.107-6.067-0.96-8.693z">
    </path>
</svg>
